Kaveri-Regular.ufo
<glyph name="numbersign" format="2">
  <advance width="507"/>
  <unicode hex="0023"/>
  <note>
GF Latin Plus glyph
</note>
  <outline>
    <contour>
      <point x="97" y="0" type="line"/>
      <point x="156" y="0" type="line"/>
      <point x="183" y="153" type="line"/>
      <point x="275" y="153" type="line"/>
      <point x="248" y="0" type="line"/>
      <point x="307" y="0" type="line"/>
      <point x="334" y="153" type="line"/>
      <point x="462" y="153" type="line"/>
      <point x="470" y="212" type="line"/>
      <point x="347" y="212" type="line"/>
      <point x="363" y="309" type="line"/>
      <point x="487" y="309" type="line"/>
      <point x="495" y="368" type="line"/>
      <point x="373" y="368" type="line"/>
      <point x="400" y="522" type="line"/>
      <point x="341" y="522" type="line"/>
      <point x="314" y="368" type="line"/>
      <point x="222" y="368" type="line"/>
      <point x="250" y="522" type="line"/>
      <point x="191" y="522" type="line"/>
      <point x="163" y="368" type="line"/>
      <point x="46" y="368" type="line"/>
      <point x="36" y="309" type="line"/>
      <point x="152" y="309" type="line"/>
      <point x="135" y="212" type="line"/>
      <point x="21" y="212" type="line"/>
      <point x="12" y="153" type="line"/>
      <point x="124" y="153" type="line"/>
    </contour>
    <contour>
      <point x="194" y="212" type="line"/>
      <point x="211" y="309" type="line"/>
      <point x="305" y="309" type="line"/>
      <point x="288" y="212" type="line"/>
    </contour>
  </outline>
</glyph>
<glyph name="dollar" format="2">
  <advance width="435"/>
  <unicode hex="0024"/>
  <note>
GF Latin Plus glyph
</note>
  <outline>
    <component base="S"/>
    <contour>
      <point x="186" y="516" type="line"/>
      <point x="231" y="544" type="line"/>
      <point x="226" y="588" type="line"/>
      <point x="181" y="561" type="line"/>
    </contour>
    <contour>
      <point x="181" y="-63" type="line"/>
      <point x="231" y="-63" type="line"/>
      <point x="231" y="5" type="line"/>
      <point x="181" y="5" type="line"/>
    </contour>
  </outline>
</glyph>
<glyph name="ampersand" format="2">
  <advance width="492"/>
  <unicode hex="0026"/>
  <note>
GF Latin Plus glyph
</note>
  <outline>
    <contour>
      <point x="165" y="-3" type="curve" smooth="yes"/>
      <point x="213" y="-3"/>
      <point x="249" y="9"/>
      <point x="290" y="45" type="curve" smooth="yes"/>
      <point x="316" y="68" type="line"/>
      <point x="369" y="0" type="line"/>
      <point x="461" y="0" type="line"/>
      <point x="372" y="118" type="line"/>
      <point x="415" y="160" type="line"/>
      <point x="464" y="231" type="line"/>
      <point x="432" y="270" type="line"/>
      <point x="328" y="176" type="line"/>
      <point x="214" y="332" type="line" smooth="yes"/>
      <point x="190" y="364"/>
      <point x="180" y="385"/>
      <point x="180" y="404" type="curve" smooth="yes"/>
      <point x="180" y="434"/>
      <point x="201" y="447"/>
      <point x="237" y="447" type="curve" smooth="yes"/>
      <point x="354" y="447" type="line"/>
      <point x="354" y="511" type="line"/>
      <point x="324" y="519"/>
      <point x="276" y="525"/>
      <point x="221" y="525" type="curve" smooth="yes"/>
      <point x="149" y="525"/>
      <point x="91" y="498"/>
      <point x="91" y="424" type="curve" smooth="yes"/>
      <point x="91" y="398"/>
      <point x="96" y="368"/>
      <point x="125" y="324" type="curve" smooth="yes"/>
      <point x="136" y="308" type="line"/>
      <point x="92" y="270" type="line" smooth="yes"/>
      <point x="48" y="233"/>
      <point x="26" y="187"/>
      <point x="26" y="136" type="curve" smooth="yes"/>
      <point x="26" y="52"/>
      <point x="85" y="-3"/>
    </contour>
    <contour>
      <point x="180" y="77" type="curve" smooth="yes"/>
      <point x="137" y="77"/>
      <point x="110" y="105"/>
      <point x="110" y="146" type="curve" smooth="yes"/>
      <point x="110" y="172"/>
      <point x="119" y="195"/>
      <point x="148" y="220" type="curve" smooth="yes"/>
      <point x="178" y="247" type="line"/>
      <point x="268" y="127" type="line"/>
      <point x="249" y="108" type="line" smooth="yes"/>
      <point x="224" y="84"/>
      <point x="203" y="77"/>
    </contour>
  </outline>
</glyph>
<glyph name="quotesingle" format="2">
  <advance width="140"/>
  <unicode hex="0027"/>
  <note>
GF Latin Plus glyph
</note>
  <outline>
    <contour>
      <point x="32" y="357" type="line"/>
      <point x="105" y="357" type="line"/>
      <point x="110" y="488" type="line"/>
      <point x="110" y="536" type="line"/>
      <point x="25" y="536" type="line"/>
      <point x="25" y="488" type="line"/>
    </contour>
  </outline>
</glyph>
<glyph name="parenleft" format="2">
  <advance width="266"/>
  <unicode hex="0028"/>
  <note>
GF Latin Plus glyph
</note>
  <outline>
    <contour>
      <point x="173" y="-150" type="curve"/>
      <point x="253" y="-150" type="line"/>
      <point x="182" y="-29"/>
      <point x="135" y="79"/>
      <point x="135" y="232" type="curve" smooth="yes"/>
      <point x="135" y="386"/>
      <point x="190" y="508"/>
      <point x="253" y="614" type="curve"/>
      <point x="173" y="614" type="line"/>
      <point x="106" y="520"/>
      <point x="47" y="399"/>
      <point x="47" y="232" type="curve" smooth="yes"/>
      <point x="47" y="58"/>
      <point x="103" y="-55"/>
    </contour>
  </outline>
</glyph>
<glyph name="parenright" format="2">
  <advance width="265"/>
  <unicode hex="0029"/>
  <note>
GF Latin Plus glyph
</note>
  <outline>
    <contour>
      <point x="12" y="-150" type="curve"/>
      <point x="92" y="-150" type="line"/>
      <point x="162" y="-52"/>
      <point x="218" y="64"/>
      <point x="218" y="232" type="curve" smooth="yes"/>
      <point x="218" y="405"/>
      <point x="164" y="517"/>
      <point x="92" y="614" type="curve"/>
      <point x="12" y="614" type="line"/>
      <point x="86" y="491"/>
      <point x="129" y="384"/>
      <point x="129" y="232" type="curve" smooth="yes"/>
      <point x="129" y="78"/>
      <point x="78" y="-40"/>
    </contour>
  </outline>
</glyph>
<glyph name="asterisk" format="2">
  <advance width="313"/>
  <unicode hex="002A"/>
  <note>
GF Latin Plus glyph
</note>
  <outline>
    <contour>
      <point x="209" y="366" type="line"/>
      <point x="282" y="433" type="line"/>
      <point x="262" y="460" type="line"/>
      <point x="179" y="402" type="line"/>
    </contour>
    <contour>
      <point x="107" y="285" type="line"/>
      <point x="141" y="382" type="line"/>
      <point x="95" y="393" type="line"/>
      <point x="75" y="295" type="line"/>
    </contour>
    <contour>
      <point x="134" y="408" type="line"/>
      <point x="131" y="454" type="line"/>
      <point x="31" y="445" type="line"/>
      <point x="31" y="411" type="line"/>
    </contour>
    <contour>
      <point x="231" y="289" type="line"/>
      <point x="251" y="316" type="line"/>
      <point x="169" y="378" type="line"/>
      <point x="144" y="338" type="line"/>
    </contour>
    <contour>
      <point x="159" y="419" type="line"/>
      <point x="203" y="437" type="line"/>
      <point x="158" y="526" type="line"/>
      <point x="126" y="516" type="line"/>
    </contour>
  </outline>
</glyph>
<glyph name="plus" format="2">
  <advance width="435"/>
  <unicode hex="002B"/>
  <note>
GF Latin Plus glyph
</note>
  <outline>
    <contour>
      <point x="181" y="94" type="line"/>
      <point x="252" y="94" type="line"/>
      <point x="252" y="414" type="line"/>
      <point x="181" y="414" type="line"/>
    </contour>
    <contour>
      <point x="57" y="218" type="line"/>
      <point x="377" y="218" type="line"/>
      <point x="377" y="290" type="line"/>
      <point x="57" y="290" type="line"/>
    </contour>
  </outline>
</glyph>
<glyph name="comma" format="2">
  <advance width="253"/>
  <unicode hex="002C"/>
  <outline>
    <contour>
      <point x="162" y="98" type="curve" smooth="yes"/>
      <point x="94" y="98" type="line" smooth="yes"/>
      <point x="78" y="98"/>
      <point x="68" y="88"/>
      <point x="68" y="74" type="curve" smooth="yes"/>
      <point x="68" y="20" type="line" smooth="yes"/>
      <point x="68" y="6"/>
      <point x="87" y="0"/>
      <point x="94" y="0" type="curve" smooth="yes"/>
      <point x="137" y="0" type="line"/>
      <point x="137" y="-20" type="line" smooth="yes"/>
      <point x="137" y="-35"/>
      <point x="124" y="-39"/>
      <point x="117" y="-39" type="curve" smooth="yes"/>
      <point x="89" y="-38" type="line"/>
      <point x="73" y="-36" type="line" smooth="yes"/>
      <point x="72" y="-36"/>
      <point x="70" y="-37"/>
      <point x="68" y="-39" type="curve"/>
      <point x="68" y="-88" type="line"/>
      <point x="137" y="-88" type="line" smooth="yes"/>
      <point x="163" y="-88"/>
      <point x="186" y="-69"/>
      <point x="186" y="-39" type="curve" smooth="yes"/>
      <point x="186" y="64" type="line" smooth="yes"/>
      <point x="186" y="74"/>
      <point x="182" y="98"/>
    </contour>
  </outline>
</glyph>
<glyph name="hyphen" format="2">
  <advance width="248"/>
  <unicode hex="002D"/>
  <note>
GF Latin Plus glyph
</note>
  <outline>
    <contour>
      <point x="16" y="171" type="line"/>
      <point x="231" y="171" type="line"/>
      <point x="231" y="242" type="line"/>
      <point x="16" y="242" type="line"/>
    </contour>
  </outline>
</glyph>
<glyph name="slash" format="2">
  <advance width="314"/>
  <unicode hex="002F"/>
  <note>
GF Latin Plus glyph
</note>
  <outline>
    <contour>
      <point x="12" y="-51" type="line"/>
      <point x="101" y="-51" type="line"/>
      <point x="302" y="550" type="line"/>
      <point x="213" y="550" type="line"/>
    </contour>
  </outline>
</glyph>
<glyph name="zero" format="2">
  <advance width="464"/>
  <unicode hex="0030"/>
  <note>
GF Latin Plus glyph
</note>
  <outline>
    <contour>
      <point x="180" y="-2" type="curve" smooth="yes"/>
      <point x="287" y="-2" type="line" smooth="yes"/>
      <point x="369" y="-2"/>
      <point x="419" y="42"/>
      <point x="419" y="129" type="curve" smooth="yes"/>
      <point x="419" y="395" type="line" smooth="yes"/>
      <point x="419" y="479"/>
      <point x="377" y="531"/>
      <point x="288" y="531" type="curve" smooth="yes"/>
      <point x="180" y="531" type="line" smooth="yes"/>
      <point x="97" y="531"/>
      <point x="44" y="484"/>
      <point x="44" y="395" type="curve" smooth="yes"/>
      <point x="44" y="129" type="line" smooth="yes"/>
      <point x="44" y="41"/>
      <point x="96" y="-2"/>
    </contour>
    <contour>
      <point x="200" y="76" type="line" smooth="yes"/>
      <point x="157" y="76"/>
      <point x="132" y="97"/>
      <point x="132" y="142" type="curve" smooth="yes"/>
      <point x="132" y="386" type="line" smooth="yes"/>
      <point x="132" y="429"/>
      <point x="156" y="452"/>
      <point x="197" y="452" type="curve" smooth="yes"/>
      <point x="268" y="452" type="line" smooth="yes"/>
      <point x="308" y="452"/>
      <point x="331" y="432"/>
      <point x="331" y="386" type="curve" smooth="yes"/>
      <point x="331" y="142" type="line" smooth="yes"/>
      <point x="331" y="99"/>
      <point x="310" y="76"/>
      <point x="265" y="76" type="curve" smooth="yes"/>
    </contour>
  </outline>
</glyph>
<glyph name="one" format="2">
  <advance width="263"/>
  <unicode hex="0031"/>
  <note>
GF Latin Plus glyph
</note>
  <outline>
    <contour>
      <point x="124" y="0" type="line"/>
      <point x="212" y="0" type="line"/>
      <point x="212" y="532" type="line"/>
      <point x="133" y="532" type="line"/>
      <point x="25" y="485" type="line"/>
      <point x="25" y="429" type="line"/>
      <point x="124" y="447" type="line"/>
    </contour>
  </outline>
</glyph>
<glyph name="two" format="2">
  <advance width="420"/>
  <unicode hex="0032"/>
  <note>
GF Latin Plus glyph
</note>
  <outline>
    <contour>
      <point x="34" y="0" type="line"/>
      <point x="391" y="0" type="line"/>
      <point x="391" y="80" type="line"/>
      <point x="152" y="80" type="line"/>
      <point x="286" y="210" type="line" smooth="yes"/>
      <point x="346" y="269"/>
      <point x="374" y="318"/>
      <point x="374" y="390" type="curve" smooth="yes"/>
      <point x="374" y="477"/>
      <point x="335" y="531"/>
      <point x="213" y="531" type="curve" smooth="yes"/>
      <point x="148" y="531"/>
      <point x="93" y="523"/>
      <point x="49" y="517" type="curve"/>
      <point x="49" y="448" type="line"/>
      <point x="195" y="448" type="line" smooth="yes"/>
      <point x="265" y="448"/>
      <point x="286" y="420"/>
      <point x="286" y="377" type="curve" smooth="yes"/>
      <point x="286" y="330"/>
      <point x="265" y="296"/>
      <point x="217" y="250" type="curve" smooth="yes"/>
      <point x="34" y="71" type="line"/>
    </contour>
  </outline>
</glyph>
<glyph name="three" format="2">
  <advance width="415"/>
  <unicode hex="0033"/>
  <note>
GF Latin Plus glyph
</note>
  <outline>
    <contour>
      <point x="226" y="-4" type="curve" smooth="yes"/>
      <point x="319" y="-4"/>
      <point x="375" y="40"/>
      <point x="375" y="123" type="curve" smooth="yes"/>
      <point x="375" y="154" type="line" smooth="yes"/>
      <point x="375" y="218"/>
      <point x="334" y="255"/>
      <point x="297" y="265" type="curve"/>
      <point x="332" y="275"/>
      <point x="367" y="303"/>
      <point x="367" y="362" type="curve" smooth="yes"/>
      <point x="367" y="403" type="line" smooth="yes"/>
      <point x="367" y="484"/>
      <point x="317" y="530"/>
      <point x="225" y="531" type="curve" smooth="yes"/>
      <point x="154" y="532"/>
      <point x="92" y="525"/>
      <point x="42" y="518" type="curve"/>
      <point x="42" y="448" type="line"/>
      <point x="190" y="448" type="line" smooth="yes"/>
      <point x="253" y="448"/>
      <point x="279" y="426"/>
      <point x="279" y="383" type="curve" smooth="yes"/>
      <point x="279" y="359" type="line" smooth="yes"/>
      <point x="279" y="321"/>
      <point x="251" y="307"/>
      <point x="205" y="305" type="curve" smooth="yes"/>
      <point x="77" y="299" type="line"/>
      <point x="77" y="232" type="line"/>
      <point x="209" y="226" type="line" smooth="yes"/>
      <point x="249" y="225"/>
      <point x="286" y="210"/>
      <point x="286" y="165" type="curve" smooth="yes"/>
      <point x="286" y="139" type="line" smooth="yes"/>
      <point x="286" y="91"/>
      <point x="253" y="78"/>
      <point x="194" y="78" type="curve" smooth="yes"/>
      <point x="28" y="78" type="line"/>
      <point x="28" y="8" type="line"/>
      <point x="81" y="0"/>
      <point x="150" y="-4"/>
    </contour>
  </outline>
</glyph>
<glyph name="five" format="2">
  <advance width="439"/>
  <unicode hex="0035"/>
  <note>
GF Latin Plus glyph
</note>
  <outline>
    <contour>
      <point x="230" y="-3" type="curve" smooth="yes"/>
      <point x="338" y="-3"/>
      <point x="402" y="36"/>
      <point x="402" y="126" type="curve" smooth="yes"/>
      <point x="402" y="204" type="line" smooth="yes"/>
      <point x="402" y="274"/>
      <point x="361" y="327"/>
      <point x="278" y="327" type="curve" smooth="yes"/>
      <point x="219" y="327" type="line" smooth="yes"/>
      <point x="182" y="327"/>
      <point x="155" y="315"/>
      <point x="142" y="298" type="curve"/>
      <point x="149" y="447" type="line"/>
      <point x="383" y="447" type="line"/>
      <point x="383" y="527" type="line"/>
      <point x="73" y="527" type="line"/>
      <point x="58" y="205" type="line"/>
      <point x="141" y="205" type="line"/>
      <point x="147" y="237"/>
      <point x="165" y="252"/>
      <point x="201" y="252" type="curve" smooth="yes"/>
      <point x="248" y="252" type="line" smooth="yes"/>
      <point x="294" y="252"/>
      <point x="314" y="228"/>
      <point x="314" y="189" type="curve" smooth="yes"/>
      <point x="314" y="145" type="line" smooth="yes"/>
      <point x="314" y="107"/>
      <point x="289" y="75"/>
      <point x="233" y="75" type="curve" smooth="yes"/>
      <point x="48" y="75" type="line"/>
      <point x="48" y="6" type="line"/>
      <point x="102" y="0"/>
      <point x="169" y="-3"/>
    </contour>
  </outline>
</glyph>
<glyph name="six" format="2">
  <advance width="539"/>
  <unicode hex="0036"/>
  <outline>
    <contour>
      <point x="441" y="303" type="curve" smooth="yes"/>
      <point x="285" y="303" type="line"/>
      <point x="285" y="387" type="line" smooth="yes"/>
      <point x="285" y="404"/>
      <point x="299" y="420"/>
      <point x="321" y="420" type="curve" smooth="yes"/>
      <point x="520" y="420" type="line"/>
      <point x="520" y="488" type="line"/>
      <point x="305" y="488" type="line" smooth="yes"/>
      <point x="256" y="488"/>
      <point x="207" y="456"/>
      <point x="207" y="406" type="curve" smooth="yes"/>
      <point x="207" y="78" type="line" smooth="yes"/>
      <point x="207" y="36"/>
      <point x="250" y="0"/>
      <point x="305" y="0" type="curve" smooth="yes"/>
      <point x="451" y="0" type="line" smooth="yes"/>
      <point x="497" y="0"/>
      <point x="539" y="37"/>
      <point x="539" y="88" type="curve" smooth="yes"/>
      <point x="539" y="215" type="line" smooth="yes"/>
      <point x="539" y="265"/>
      <point x="499" y="303"/>
    </contour>
    <contour>
      <point x="418" y="68" type="curve" smooth="yes"/>
      <point x="330" y="68" type="line" smooth="yes"/>
      <point x="309" y="68"/>
      <point x="285" y="89"/>
      <point x="285" y="113" type="curve" smooth="yes"/>
      <point x="285" y="234" type="line"/>
      <point x="418" y="234" type="line" smooth="yes"/>
      <point x="444" y="234"/>
      <point x="461" y="218"/>
      <point x="461" y="201" type="curve" smooth="yes"/>
      <point x="461" y="104" type="line" smooth="yes"/>
      <point x="461" y="88"/>
      <point x="447" y="68"/>
    </contour>
  </outline>
</glyph>
<glyph name="seven" format="2">
  <advance width="393"/>
  <unicode hex="0037"/>
  <note>
GF Latin Plus glyph
</note>
  <outline>
    <contour>
      <point x="91" y="0" type="line"/>
      <point x="190" y="0" type="line"/>
      <point x="371" y="487" type="line"/>
      <point x="346" y="527" type="line"/>
      <point x="18" y="527" type="line"/>
      <point x="18" y="438" type="line"/>
      <point x="257" y="438" type="line"/>
    </contour>
  </outline>
</glyph>
<glyph name="nine" format="2">
  <advance width="539"/>
  <unicode hex="0039"/>
  <outline>
    <contour>
      <point x="441" y="488" type="curve" smooth="yes"/>
      <point x="311" y="488" type="line" smooth="yes"/>
      <point x="242" y="488"/>
      <point x="207" y="450"/>
      <point x="207" y="416" type="curve" smooth="yes"/>
      <point x="207" y="264" type="line" smooth="yes"/>
      <point x="207" y="229"/>
      <point x="241" y="186"/>
      <point x="305" y="186" type="curve" smooth="yes"/>
      <point x="461" y="186" type="line"/>
      <point x="461" y="107" type="line" smooth="yes"/>
      <point x="461" y="88"/>
      <point x="437" y="68"/>
      <point x="402" y="68" type="curve" smooth="yes"/>
      <point x="227" y="68" type="line"/>
      <point x="227" y="0" type="line"/>
      <point x="432" y="0" type="line" smooth="yes"/>
      <point x="492" y="0"/>
      <point x="539" y="42"/>
      <point x="539" y="94" type="curve" smooth="yes"/>
      <point x="539" y="400" type="line" smooth="yes"/>
      <point x="539" y="455"/>
      <point x="489" y="488"/>
    </contour>
    <contour>
      <point x="285" y="289" type="curve" smooth="yes"/>
      <point x="285" y="387" type="line" smooth="yes"/>
      <point x="285" y="408"/>
      <point x="305" y="420"/>
      <point x="324" y="420" type="curve" smooth="yes"/>
      <point x="418" y="420" type="line" smooth="yes"/>
      <point x="447" y="420"/>
      <point x="461" y="402"/>
      <point x="461" y="387" type="curve" smooth="yes"/>
      <point x="461" y="254" type="line"/>
      <point x="330" y="254" type="line" smooth="yes"/>
      <point x="305" y="254"/>
      <point x="285" y="270"/>
    </contour>
  </outline>
</glyph>
<glyph name="less" format="2">
  <advance width="435"/>
  <unicode hex="003C"/>
  <note>
GF Latin Plus glyph
</note>
  <outline>
    <contour>
      <point x="365" y="113" type="line"/>
      <point x="365" y="190" type="line"/>
      <point x="154" y="250" type="line"/>
      <point x="365" y="306" type="line"/>
      <point x="365" y="383" type="line"/>
      <point x="68" y="289" type="line"/>
      <point x="68" y="210" type="line"/>
    </contour>
  </outline>
</glyph>
<glyph name="at" format="2">
  <advance width="627"/>
  <unicode hex="0040"/>
  <note>
GF Latin Plus glyph
</note>
  <outline>
    <contour>
      <point x="190" y="-126" type="curve" smooth="yes"/>
      <point x="422" y="-126" type="line" smooth="yes"/>
      <point x="525" y="-126"/>
      <point x="574" y="-73"/>
      <point x="574" y="34" type="curve" smooth="yes"/>
      <point x="574" y="357" type="line" smooth="yes"/>
      <point x="574" y="480"/>
      <point x="498" y="523"/>
      <point x="418" y="523" type="curve" smooth="yes"/>
      <point x="352" y="523" type="line" smooth="yes"/>
      <point x="262" y="523"/>
      <point x="168" y="516"/>
      <point x="134" y="509" type="curve"/>
      <point x="134" y="456" type="line"/>
      <point x="418" y="456" type="line" smooth="yes"/>
      <point x="474" y="456"/>
      <point x="506" y="417"/>
      <point x="506" y="357" type="curve" smooth="yes"/>
      <point x="506" y="34" type="line" smooth="yes"/>
      <point x="506" y="-24"/>
      <point x="483" y="-58"/>
      <point x="418" y="-58" type="curve" smooth="yes"/>
      <point x="190" y="-58" type="line" smooth="yes"/>
      <point x="154" y="-58"/>
      <point x="108" y="-38"/>
      <point x="108" y="34" type="curve" smooth="yes"/>
      <point x="108" y="236" type="line" smooth="yes"/>
      <point x="108" y="300"/>
      <point x="145" y="315"/>
      <point x="190" y="315" type="curve" smooth="yes"/>
      <point x="323" y="315" type="line" smooth="yes"/>
      <point x="360" y="315"/>
      <point x="380" y="302"/>
      <point x="380" y="264" type="curve" smooth="yes"/>
      <point x="380" y="229" type="line"/>
      <point x="272" y="229" type="line" smooth="yes"/>
      <point x="205" y="229"/>
      <point x="167" y="197"/>
      <point x="167" y="136" type="curve" smooth="yes"/>
      <point x="167" y="106" type="line" smooth="yes"/>
      <point x="167" y="58"/>
      <point x="197" y="10"/>
      <point x="258" y="10" type="curve" smooth="yes"/>
      <point x="323" y="10"/>
      <point x="380" y="58"/>
      <point x="382" y="58" type="curve"/>
      <point x="394" y="17" type="line"/>
      <point x="448" y="17" type="line"/>
      <point x="448" y="270" type="line" smooth="yes"/>
      <point x="448" y="369"/>
      <point x="383" y="382"/>
      <point x="322" y="382" type="curve" smooth="yes"/>
      <point x="190" y="382" type="line" smooth="yes"/>
      <point x="68" y="382"/>
      <point x="41" y="304"/>
      <point x="41" y="240" type="curve" smooth="yes"/>
      <point x="41" y="25" type="line" smooth="yes"/>
      <point x="41" y="-84"/>
      <point x="109" y="-126"/>
    </contour>
    <contour>
      <point x="286" y="78" type="curve" smooth="yes"/>
      <point x="254" y="78"/>
      <point x="238" y="93"/>
      <point x="238" y="120" type="curve" smooth="yes"/>
      <point x="238" y="138" type="line" smooth="yes"/>
      <point x="238" y="172"/>
      <point x="263" y="175"/>
      <point x="286" y="177" type="curve" smooth="yes"/>
      <point x="380" y="182" type="line"/>
      <point x="380" y="111" type="line"/>
      <point x="360" y="92"/>
      <point x="315" y="78"/>
    </contour>
  </outline>
</glyph>
<glyph name="A" format="2">
  <advance width="486"/>
  <unicode hex="0041"/>
  <note>
GF Latin Plus glyph
</note>
  <outline>
    <contour>
      <point x="16" y="0" type="line"/>
      <point x="107" y="0" type="line"/>
      <point x="146" y="124" type="line"/>
      <point x="338" y="124" type="line"/>
      <point x="378" y="0" type="line"/>
      <point x="470" y="0" type="line"/>
      <point x="299" y="527" type="line"/>
      <point x="187" y="527" type="line"/>
    </contour>
    <contour>
      <point x="167" y="204" type="line"/>
      <point x="242" y="451" type="line"/>
      <point x="316" y="204" type="line"/>
    </contour>
  </outline>
</glyph>
<glyph name="B" format="2">
  <advance width="441"/>
  <unicode hex="0042"/>
  <note>
GF Latin Plus glyph
</note>
  <outline>
    <contour>
      <point x="49" y="0" type="line"/>
      <point x="259" y="0" type="line" smooth="yes"/>
      <point x="357" y="0"/>
      <point x="413" y="36"/>
      <point x="413" y="145" type="curve" smooth="yes"/>
      <point x="413" y="226"/>
      <point x="364" y="263"/>
      <point x="322" y="273" type="curve"/>
      <point x="366" y="285"/>
      <point x="396" y="326"/>
      <point x="396" y="390" type="curve" smooth="yes"/>
      <point x="396" y="479"/>
      <point x="350" y="527"/>
      <point x="250" y="527" type="curve" smooth="yes"/>
      <point x="49" y="527" type="line"/>
    </contour>
    <contour>
      <point x="137" y="79" type="line"/>
      <point x="137" y="236" type="line"/>
      <point x="256" y="236" type="line" smooth="yes"/>
      <point x="298" y="236"/>
      <point x="329" y="208"/>
      <point x="329" y="160" type="curve" smooth="yes"/>
      <point x="329" y="99"/>
      <point x="300" y="79"/>
      <point x="256" y="79" type="curve" smooth="yes"/>
    </contour>
    <contour>
      <point x="137" y="304" type="line"/>
      <point x="137" y="447" type="line"/>
      <point x="249" y="447" type="line" smooth="yes"/>
      <point x="285" y="447"/>
      <point x="313" y="429"/>
      <point x="311" y="375" type="curve" smooth="yes"/>
      <point x="310" y="332"/>
      <point x="287" y="304"/>
      <point x="251" y="304" type="curve" smooth="yes"/>
    </contour>
  </outline>
</glyph>
<glyph name="C" format="2">
  <advance width="417"/>
  <unicode hex="0043"/>
  <note>
GF Latin Plus glyph
</note>
  <anchor x="239" y="-107" name="bottom"/>
  <anchor x="227" y="578" name="top"/>
  <outline>
    <contour>
      <point x="224" y="-4" type="curve" smooth="yes"/>
      <point x="291" y="-4"/>
      <point x="346" y="3"/>
      <point x="387" y="15" type="curve"/>
      <point x="387" y="83" type="line"/>
      <point x="359" y="78"/>
      <point x="315" y="75"/>
      <point x="244" y="75" type="curve" smooth="yes"/>
      <point x="151" y="75"/>
      <point x="124" y="107"/>
      <point x="124" y="264" type="curve" smooth="yes"/>
      <point x="124" y="422"/>
      <point x="156" y="452"/>
      <point x="244" y="452" type="curve" smooth="yes"/>
      <point x="304" y="452"/>
      <point x="362" y="446"/>
      <point x="387" y="441" type="curve"/>
      <point x="387" y="509" type="line"/>
      <point x="349" y="520"/>
      <point x="288" y="532"/>
      <point x="227" y="532" type="curve" smooth="yes"/>
      <point x="103" y="532"/>
      <point x="35" y="481"/>
      <point x="35" y="265" type="curve" smooth="yes"/>
      <point x="35" y="38"/>
      <point x="101" y="-4"/>
    </contour>
  </outline>
</glyph>
<glyph name="D" format="2">
  <advance width="483"/>
  <unicode hex="0044"/>
  <note>
GF Latin Plus glyph
</note>
  <outline>
    <contour>
      <point x="49" y="0" type="line"/>
      <point x="267" y="0" type="line" smooth="yes"/>
      <point x="387" y="0"/>
      <point x="447" y="90"/>
      <point x="447" y="263" type="curve" smooth="yes"/>
      <point x="447" y="424"/>
      <point x="404" y="527"/>
      <point x="267" y="527" type="curve" smooth="yes"/>
      <point x="49" y="527" type="line"/>
    </contour>
    <contour>
      <point x="137" y="79" type="line"/>
      <point x="137" y="447" type="line"/>
      <point x="258" y="447" type="line" smooth="yes"/>
      <point x="326" y="447"/>
      <point x="358" y="407"/>
      <point x="358" y="263" type="curve" smooth="yes"/>
      <point x="358" y="145"/>
      <point x="330" y="79"/>
      <point x="258" y="79" type="curve" smooth="yes"/>
    </contour>
  </outline>
</glyph>
<glyph name="E" format="2">
  <advance width="424"/>
  <unicode hex="0045"/>
  <note>
GF Latin Plus glyph
</note>
  <outline>
    <contour>
      <point x="171" y="-3" type="curve" smooth="yes"/>
      <point x="241" y="-2"/>
      <point x="324" y="0"/>
      <point x="388" y="5" type="curve"/>
      <point x="388" y="79" type="line"/>
      <point x="188" y="79" type="line" smooth="yes"/>
      <point x="161" y="79"/>
      <point x="137" y="89"/>
      <point x="137" y="131" type="curve" smooth="yes"/>
      <point x="137" y="222" type="line"/>
      <point x="356" y="227" type="line"/>
      <point x="356" y="297" type="line"/>
      <point x="137" y="302" type="line"/>
      <point x="137" y="395" type="line" smooth="yes"/>
      <point x="137" y="430"/>
      <point x="156" y="445"/>
      <point x="188" y="445" type="curve" smooth="yes"/>
      <point x="388" y="445" type="line"/>
      <point x="388" y="519" type="line"/>
      <point x="330" y="522"/>
      <point x="263" y="526"/>
      <point x="163" y="527" type="curve" smooth="yes"/>
      <point x="109" y="527"/>
      <point x="49" y="501"/>
      <point x="49" y="411" type="curve" smooth="yes"/>
      <point x="49" y="108" type="line" smooth="yes"/>
      <point x="49" y="5"/>
      <point x="124" y="-3"/>
    </contour>
  </outline>
</glyph>
<glyph name="F" format="2">
  <advance width="412"/>
  <unicode hex="0046"/>
  <note>
GF Latin Plus glyph
</note>
  <outline>
    <contour>
      <point x="49" y="0" type="line"/>
      <point x="137" y="0" type="line"/>
      <point x="137" y="210" type="line"/>
      <point x="356" y="215" type="line"/>
      <point x="356" y="284" type="line"/>
      <point x="137" y="289" type="line"/>
      <point x="137" y="396" type="line" smooth="yes"/>
      <point x="137" y="426"/>
      <point x="154" y="445"/>
      <point x="187" y="445" type="curve" smooth="yes"/>
      <point x="388" y="445" type="line"/>
      <point x="388" y="518" type="line"/>
      <point x="310" y="526"/>
      <point x="218" y="526"/>
      <point x="163" y="527" type="curve" smooth="yes"/>
      <point x="109" y="527"/>
      <point x="49" y="501"/>
      <point x="49" y="411" type="curve" smooth="yes"/>
    </contour>
  </outline>
</glyph>
<glyph name="G" format="2">
  <advance width="472"/>
  <unicode hex="0047"/>
  <note>
GF Latin Plus glyph
</note>
  <outline>
    <contour>
      <point x="200" y="-3" type="curve" smooth="yes"/>
      <point x="260" y="-3"/>
      <point x="315" y="19"/>
      <point x="344" y="36" type="curve"/>
      <point x="357" y="0" type="line"/>
      <point x="423" y="0" type="line"/>
      <point x="423" y="292" type="line"/>
      <point x="404" y="293"/>
      <point x="381" y="294"/>
      <point x="352" y="294" type="curve" smooth="yes"/>
      <point x="310" y="294"/>
      <point x="260" y="291"/>
      <point x="232" y="287" type="curve"/>
      <point x="232" y="218" type="line"/>
      <point x="338" y="218" type="line"/>
      <point x="338" y="97" type="line"/>
      <point x="312" y="87"/>
      <point x="269" y="77"/>
      <point x="228" y="77" type="curve" smooth="yes"/>
      <point x="148" y="77"/>
      <point x="124" y="115"/>
      <point x="124" y="263" type="curve" smooth="yes"/>
      <point x="124" y="403"/>
      <point x="144" y="452"/>
      <point x="240" y="452" type="curve" smooth="yes"/>
      <point x="305" y="452"/>
      <point x="369" y="446"/>
      <point x="399" y="442" type="curve"/>
      <point x="399" y="510" type="line"/>
      <point x="347" y="523"/>
      <point x="291" y="532"/>
      <point x="224" y="532" type="curve" smooth="yes"/>
      <point x="71" y="532"/>
      <point x="35" y="436"/>
      <point x="35" y="264" type="curve" smooth="yes"/>
      <point x="35" y="94"/>
      <point x="68" y="-4"/>
    </contour>
  </outline>
</glyph>
<glyph name="H" format="2">
  <advance width="496"/>
  <unicode hex="0048"/>
  <note>
GF Latin Plus glyph
</note>
  <anchor x="248" y="-107" name="bottom"/>
  <anchor x="248" y="578" name="top"/>
  <outline>
    <contour>
      <point x="49" y="0" type="line"/>
      <point x="137" y="0" type="line"/>
      <point x="137" y="219" type="line"/>
      <point x="359" y="219" type="line"/>
      <point x="359" y="0" type="line"/>
      <point x="447" y="0" type="line"/>
      <point x="447" y="527" type="line"/>
      <point x="359" y="527" type="line"/>
      <point x="359" y="299" type="line"/>
      <point x="137" y="299" type="line"/>
      <point x="137" y="527" type="line"/>
      <point x="49" y="527" type="line"/>
    </contour>
  </outline>
</glyph>
<glyph name="I" format="2">
  <advance width="186"/>
  <unicode hex="0049"/>
  <note>
GF Latin Plus glyph
</note>
  <anchor x="93" y="-107" name="bottom"/>
  <anchor x="93" y="578" name="top"/>
  <outline>
    <contour>
      <point x="49" y="0" type="line"/>
      <point x="137" y="0" type="line"/>
      <point x="137" y="527" type="line"/>
      <point x="49" y="527" type="line"/>
    </contour>
  </outline>
</glyph>
<glyph name="J" format="2">
  <advance width="283"/>
  <unicode hex="004A"/>
  <note>
GF Latin Plus glyph
</note>
  <outline>
    <contour>
      <point x="103" y="-4" type="curve" smooth="yes"/>
      <point x="194" y="-4"/>
      <point x="234" y="35"/>
      <point x="234" y="124" type="curve" smooth="yes"/>
      <point x="234" y="527" type="line"/>
      <point x="146" y="527" type="line"/>
      <point x="146" y="137" type="line" smooth="yes"/>
      <point x="146" y="90"/>
      <point x="123" y="75"/>
      <point x="84" y="75" type="curve" smooth="yes"/>
      <point x="63" y="75"/>
      <point x="38" y="78"/>
      <point x="18" y="80" type="curve"/>
      <point x="18" y="10" type="line"/>
      <point x="39" y="2"/>
      <point x="73" y="-4"/>
    </contour>
  </outline>
</glyph>
<glyph name="K" format="2">
  <advance width="450"/>
  <unicode hex="004B"/>
  <note>
GF Latin Plus glyph
</note>
  <outline>
    <contour>
      <point x="49" y="0" type="line"/>
      <point x="137" y="0" type="line"/>
      <point x="137" y="222" type="line"/>
      <point x="215" y="222" type="line"/>
      <point x="339" y="0" type="line"/>
      <point x="434" y="0" type="line"/>
      <point x="285" y="262" type="line"/>
      <point x="430" y="527" type="line"/>
      <point x="336" y="527" type="line"/>
      <point x="215" y="301" type="line"/>
      <point x="137" y="301" type="line"/>
      <point x="137" y="527" type="line"/>
      <point x="49" y="527" type="line"/>
    </contour>
  </outline>
</glyph>
<glyph name="L" format="2">
  <advance width="381"/>
  <unicode hex="004C"/>
  <note>
GF Latin Plus glyph
</note>
  <outline>
    <contour>
      <point x="167" y="0" type="curve" smooth="yes"/>
      <point x="364" y="0" type="line"/>
      <point x="364" y="80" type="line"/>
      <point x="189" y="80" type="line" smooth="yes"/>
      <point x="160" y="80"/>
      <point x="137" y="91"/>
      <point x="137" y="131" type="curve" smooth="yes"/>
      <point x="137" y="527" type="line"/>
      <point x="49" y="527" type="line"/>
      <point x="49" y="118" type="line" smooth="yes"/>
      <point x="49" y="31"/>
      <point x="91" y="0"/>
    </contour>
  </outline>
</glyph>
<glyph name="M" format="2">
  <advance width="618"/>
  <unicode hex="004D"/>
  <note>
GF Latin Plus glyph
</note>
  <outline>
    <contour>
      <point x="34" y="0" type="line"/>
      <point x="119" y="0" type="line"/>
      <point x="166" y="413" type="line"/>
      <point x="151" y="412" type="line"/>
      <point x="267" y="0" type="line"/>
      <point x="350" y="0" type="line"/>
      <point x="463" y="413" type="line"/>
      <point x="450" y="414" type="line"/>
      <point x="498" y="0" type="line"/>
      <point x="584" y="0" type="line"/>
      <point x="521" y="527" type="line"/>
      <point x="436" y="527" type="line"/>
      <point x="309" y="104" type="line"/>
      <point x="181" y="527" type="line"/>
      <point x="95" y="527" type="line"/>
    </contour>
  </outline>
</glyph>
<glyph name="N" format="2">
  <advance width="497"/>
  <unicode hex="004E"/>
  <note>
GF Latin Plus glyph
</note>
  <outline>
    <contour>
      <point x="54" y="0" type="line"/>
      <point x="143" y="0" type="line"/>
      <point x="143" y="376" type="line"/>
      <point x="383" y="0" type="line"/>
      <point x="454" y="0" type="line"/>
      <point x="454" y="527" type="line"/>
      <point x="366" y="527" type="line"/>
      <point x="366" y="151" type="line"/>
      <point x="126" y="527" type="line"/>
      <point x="54" y="527" type="line"/>
    </contour>
  </outline>
</glyph>
<glyph name="O" format="2">
  <advance width="496"/>
  <unicode hex="004F"/>
  <note>
GF Latin Plus glyph
</note>
  <anchor x="248" y="-107" name="bottom"/>
  <anchor x="248" y="578" name="top"/>
  <outline>
    <contour>
      <point x="248" y="-4" type="curve" smooth="yes"/>
      <point x="389" y="-4"/>
      <point x="460" y="34"/>
      <point x="460" y="262" type="curve" smooth="yes"/>
      <point x="460" y="490"/>
      <point x="390" y="532"/>
      <point x="248" y="532" type="curve" smooth="yes"/>
      <point x="108" y="532"/>
      <point x="35" y="490"/>
      <point x="35" y="262" type="curve" smooth="yes"/>
      <point x="35" y="34"/>
      <point x="106" y="-4"/>
    </contour>
    <contour>
      <point x="248" y="75" type="curve" smooth="yes"/>
      <point x="153" y="75"/>
      <point x="124" y="103"/>
      <point x="124" y="262" type="curve" smooth="yes"/>
      <point x="124" y="428"/>
      <point x="159" y="452"/>
      <point x="248" y="452" type="curve" smooth="yes"/>
      <point x="340" y="452"/>
      <point x="372" y="428"/>
      <point x="372" y="262" type="curve" smooth="yes"/>
      <point x="372" y="103"/>
      <point x="340" y="75"/>
    </contour>
  </outline>
</glyph>
<glyph name="P" format="2">
  <advance width="439"/>
  <unicode hex="0050"/>
  <note>
GF Latin Plus glyph
</note>
  <anchor x="213" y="578" name="top"/>
  <outline>
    <contour>
      <point x="49" y="0" type="line"/>
      <point x="137" y="0" type="line"/>
      <point x="137" y="179" type="line"/>
      <point x="163" y="176"/>
      <point x="236" y="169"/>
      <point x="268" y="169" type="curve" smooth="yes"/>
      <point x="331" y="169"/>
      <point x="413" y="194"/>
      <point x="413" y="351" type="curve" smooth="yes"/>
      <point x="413" y="505"/>
      <point x="333" y="527"/>
      <point x="267" y="527" type="curve" smooth="yes"/>
      <point x="49" y="527" type="line"/>
    </contour>
    <contour>
      <point x="137" y="249" type="line"/>
      <point x="137" y="447" type="line"/>
      <point x="258" y="447" type="line" smooth="yes"/>
      <point x="296" y="447"/>
      <point x="325" y="424"/>
      <point x="325" y="350" type="curve" smooth="yes"/>
      <point x="325" y="274"/>
      <point x="297" y="249"/>
      <point x="255" y="249" type="curve" smooth="yes"/>
    </contour>
  </outline>
</glyph>
<glyph name="Q" format="2">
  <advance width="496"/>
  <unicode hex="0051"/>
  <note>
GF Latin Plus glyph
</note>
  <outline>
    <component base="O"/>
    <contour>
      <point x="365" y="-133" type="curve" smooth="yes"/>
      <point x="378" y="-133"/>
      <point x="390" y="-131"/>
      <point x="403" y="-128" type="curve"/>
      <point x="403" y="-62" type="line"/>
      <point x="390" y="-65"/>
      <point x="376" y="-69"/>
      <point x="361" y="-69" type="curve" smooth="yes"/>
      <point x="332" y="-69"/>
      <point x="303" y="-57"/>
      <point x="294" y="-25" type="curve"/>
      <point x="233" y="-25" type="line"/>
      <point x="239" y="-99"/>
      <point x="302" y="-133"/>
    </contour>
  </outline>
</glyph>
<glyph name="R" format="2">
  <advance width="443"/>
  <unicode hex="0052"/>
  <note>
GF Latin Plus glyph
</note>
  <anchor x="214" y="-107" name="bottom"/>
  <anchor x="212" y="578" name="top"/>
  <outline>
    <contour>
      <point x="49" y="0" type="line"/>
      <point x="137" y="0" type="line"/>
      <point x="137" y="204" type="line"/>
      <point x="167" y="203"/>
      <point x="214" y="202"/>
      <point x="240" y="202" type="curve"/>
      <point x="331" y="0" type="line"/>
      <point x="421" y="0" type="line"/>
      <point x="319" y="216" type="line"/>
      <point x="362" y="230"/>
      <point x="409" y="259"/>
      <point x="409" y="363" type="curve" smooth="yes"/>
      <point x="409" y="497"/>
      <point x="341" y="527"/>
      <point x="263" y="527" type="curve" smooth="yes"/>
      <point x="49" y="527" type="line"/>
    </contour>
    <contour>
      <point x="137" y="273" type="line"/>
      <point x="137" y="447" type="line"/>
      <point x="248" y="447" type="line" smooth="yes"/>
      <point x="289" y="447"/>
      <point x="320" y="433"/>
      <point x="320" y="363" type="curve" smooth="yes"/>
      <point x="320" y="290"/>
      <point x="289" y="273"/>
      <point x="248" y="273" type="curve" smooth="yes"/>
    </contour>
  </outline>
</glyph>
<glyph name="S" format="2">
  <advance width="418"/>
  <unicode hex="0053"/>
  <note>
GF Latin Plus glyph
</note>
  <outline>
    <contour>
      <point x="204" y="-4" type="curve" smooth="yes"/>
      <point x="307" y="-4"/>
      <point x="382" y="22"/>
      <point x="382" y="139" type="curve" smooth="yes"/>
      <point x="382" y="173" type="line" smooth="yes"/>
      <point x="382" y="249"/>
      <point x="338" y="304"/>
      <point x="246" y="304" type="curve" smooth="yes"/>
      <point x="191" y="304" type="line" smooth="yes"/>
      <point x="145" y="304"/>
      <point x="120" y="321"/>
      <point x="120" y="365" type="curve" smooth="yes"/>
      <point x="120" y="383" type="line" smooth="yes"/>
      <point x="120" y="438"/>
      <point x="155" y="452"/>
      <point x="210" y="452" type="curve" smooth="yes"/>
      <point x="256" y="452"/>
      <point x="314" y="448"/>
      <point x="357" y="445" type="curve"/>
      <point x="357" y="514" type="line"/>
      <point x="319" y="522"/>
      <point x="254" y="531"/>
      <point x="200" y="531" type="curve" smooth="yes"/>
      <point x="95" y="531"/>
      <point x="36" y="488"/>
      <point x="36" y="387" type="curve" smooth="yes"/>
      <point x="36" y="360" type="line" smooth="yes"/>
      <point x="36" y="258"/>
      <point x="90" y="220"/>
      <point x="186" y="220" type="curve" smooth="yes"/>
      <point x="235" y="220" type="line" smooth="yes"/>
      <point x="276" y="220"/>
      <point x="298" y="200"/>
      <point x="298" y="162" type="curve" smooth="yes"/>
      <point x="298" y="137" type="line" smooth="yes"/>
      <point x="298" y="87"/>
      <point x="258" y="75"/>
      <point x="200" y="75" type="curve" smooth="yes"/>
      <point x="146" y="75"/>
      <point x="81" y="77"/>
      <point x="41" y="81" type="curve"/>
      <point x="41" y="11" type="line"/>
      <point x="82" y="2"/>
      <point x="154" y="-4"/>
    </contour>
  </outline>
</glyph>
<glyph name="T" format="2">
  <advance width="413"/>
  <unicode hex="0054"/>
  <note>
GF Latin Plus glyph
</note>
  <outline>
    <contour>
      <point x="162" y="0" type="line"/>
      <point x="251" y="0" type="line"/>
      <point x="251" y="447" type="line"/>
      <point x="402" y="447" type="line"/>
      <point x="402" y="527" type="line"/>
      <point x="11" y="527" type="line"/>
      <point x="11" y="447" type="line"/>
      <point x="162" y="447" type="line"/>
    </contour>
  </outline>
</glyph>
<glyph name="U" format="2">
  <advance width="487"/>
  <unicode hex="0055"/>
  <note>
GF Latin Plus glyph
</note>
  <outline>
    <contour>
      <point x="243" y="-3" type="curve" smooth="yes"/>
      <point x="361" y="-3"/>
      <point x="445" y="29"/>
      <point x="445" y="167" type="curve" smooth="yes"/>
      <point x="445" y="527" type="line"/>
      <point x="356" y="527" type="line"/>
      <point x="356" y="168" type="line" smooth="yes"/>
      <point x="356" y="98"/>
      <point x="315" y="75"/>
      <point x="243" y="75" type="curve" smooth="yes"/>
      <point x="172" y="75"/>
      <point x="130" y="98"/>
      <point x="130" y="168" type="curve" smooth="yes"/>
      <point x="130" y="527" type="line"/>
      <point x="41" y="527" type="line"/>
      <point x="41" y="167" type="line" smooth="yes"/>
      <point x="41" y="29"/>
      <point x="125" y="-3"/>
    </contour>
  </outline>
</glyph>
<glyph name="V" format="2">
  <advance width="486"/>
  <unicode hex="0056"/>
  <note>
GF Latin Plus glyph
</note>
  <outline>
    <contour>
      <point x="187" y="0" type="line"/>
      <point x="299" y="0" type="line"/>
      <point x="470" y="527" type="line"/>
      <point x="379" y="527" type="line"/>
      <point x="243" y="94" type="line"/>
      <point x="107" y="527" type="line"/>
      <point x="16" y="527" type="line"/>
    </contour>
  </outline>
</glyph>
<glyph name="W" format="2">
  <advance width="707"/>
  <unicode hex="0057"/>
  <note>
GF Latin Plus glyph
</note>
  <anchor x="369" y="578" name="top"/>
  <outline>
    <contour>
      <point x="145" y="0" type="line"/>
      <point x="237" y="0" type="line"/>
      <point x="354" y="399" type="line"/>
      <point x="470" y="0" type="line"/>
      <point x="561" y="0" type="line"/>
      <point x="691" y="527" type="line"/>
      <point x="600" y="527" type="line"/>
      <point x="505" y="128" type="line"/>
      <point x="395" y="527" type="line"/>
      <point x="312" y="527" type="line"/>
      <point x="202" y="128" type="line"/>
      <point x="107" y="527" type="line"/>
      <point x="16" y="527" type="line"/>
    </contour>
  </outline>
</glyph>
<glyph name="X" format="2">
  <advance width="463"/>
  <unicode hex="0058"/>
  <note>
GF Latin Plus glyph
</note>
  <outline>
    <contour>
      <point x="347" y="0" type="line"/>
      <point x="444" y="0" type="line"/>
      <point x="114" y="527" type="line"/>
      <point x="16" y="527" type="line"/>
    </contour>
    <contour>
      <point x="18" y="0" type="line"/>
      <point x="116" y="0" type="line"/>
      <point x="239" y="209" type="line"/>
      <point x="193" y="284" type="line"/>
    </contour>
    <contour>
      <point x="268" y="237" type="line"/>
      <point x="446" y="527" type="line"/>
      <point x="349" y="527" type="line"/>
      <point x="225" y="312" type="line"/>
    </contour>
  </outline>
</glyph>
<glyph name="Y" format="2">
  <advance width="445"/>
  <unicode hex="0059"/>
  <note>
GF Latin Plus glyph
</note>
  <outline>
    <contour>
      <point x="178" y="0" type="line"/>
      <point x="267" y="0" type="line"/>
      <point x="267" y="165" type="line"/>
      <point x="428" y="527" type="line"/>
      <point x="340" y="527" type="line"/>
      <point x="224" y="255" type="line"/>
      <point x="108" y="527" type="line"/>
      <point x="16" y="527" type="line"/>
      <point x="178" y="165" type="line"/>
    </contour>
  </outline>
</glyph>
<glyph name="Z" format="2">
  <advance width="406"/>
  <unicode hex="005A"/>
  <note>
GF Latin Plus glyph
</note>
  <outline>
    <contour>
      <point x="28" y="0" type="line"/>
      <point x="380" y="0" type="line"/>
      <point x="380" y="79" type="line"/>
      <point x="136" y="79" type="line"/>
      <point x="380" y="456" type="line"/>
      <point x="380" y="527" type="line"/>
      <point x="28" y="527" type="line"/>
      <point x="28" y="447" type="line"/>
      <point x="272" y="447" type="line"/>
      <point x="28" y="71" type="line"/>
    </contour>
  </outline>
</glyph>
<glyph name="bracketleft" format="2">
  <advance width="240"/>
  <unicode hex="005B"/>
  <note>
GF Latin Plus glyph
</note>
  <outline>
    <contour>
      <point x="176" y="-150" type="curve" smooth="yes"/>
      <point x="228" y="-150" type="line"/>
      <point x="228" y="-78" type="line"/>
      <point x="201" y="-78" type="line" smooth="yes"/>
      <point x="161" y="-78"/>
      <point x="142" y="-51"/>
      <point x="142" y="-1" type="curve" smooth="yes"/>
      <point x="142" y="453" type="line" smooth="yes"/>
      <point x="142" y="509"/>
      <point x="166" y="530"/>
      <point x="201" y="530" type="curve" smooth="yes"/>
      <point x="228" y="530" type="line"/>
      <point x="228" y="601" type="line"/>
      <point x="176" y="601" type="line" smooth="yes"/>
      <point x="82" y="601"/>
      <point x="54" y="539"/>
      <point x="54" y="465" type="curve" smooth="yes"/>
      <point x="54" y="-6" type="line" smooth="yes"/>
      <point x="54" y="-64"/>
      <point x="69" y="-150"/>
    </contour>
  </outline>
</glyph>
<glyph name="bracketright" format="2">
  <advance width="240"/>
  <unicode hex="005D"/>
  <note>
GF Latin Plus glyph
</note>
  <outline>
    <contour>
      <point x="12" y="-150" type="line"/>
      <point x="65" y="-150" type="line" smooth="yes"/>
      <point x="171" y="-150"/>
      <point x="187" y="-64"/>
      <point x="187" y="-6" type="curve" smooth="yes"/>
      <point x="187" y="465" type="line" smooth="yes"/>
      <point x="187" y="539"/>
      <point x="159" y="601"/>
      <point x="65" y="601" type="curve" smooth="yes"/>
      <point x="12" y="601" type="line"/>
      <point x="12" y="530" type="line"/>
      <point x="39" y="530" type="line" smooth="yes"/>
      <point x="75" y="530"/>
      <point x="98" y="509"/>
      <point x="98" y="453" type="curve" smooth="yes"/>
      <point x="98" y="-1" type="line" smooth="yes"/>
      <point x="98" y="-51"/>
      <point x="80" y="-78"/>
      <point x="39" y="-78" type="curve" smooth="yes"/>
      <point x="12" y="-78" type="line"/>
    </contour>
  </outline>
</glyph>
<glyph name="asciicircum" format="2">
  <advance width="278"/>
  <unicode hex="005E"/>
  <note>
GF Latin Plus glyph
</note>
  <outline>
    <contour>
      <point x="31" y="379" type="line"/>
      <point x="84" y="379" type="line"/>
      <point x="141" y="434" type="line"/>
      <point x="195" y="379" type="line"/>
      <point x="247" y="379" type="line"/>
      <point x="173" y="476" type="line"/>
      <point x="112" y="476" type="line"/>
    </contour>
  </outline>
</glyph>
<glyph name="underscore" format="2">
  <advance width="435"/>
  <unicode hex="005F"/>
  <note>
GF Latin Plus glyph
</note>
  <outline>
    <contour>
      <point x="0" y="-130" type="line"/>
      <point x="435" y="-130" type="line"/>
      <point x="435" y="-58" type="line"/>
      <point x="0" y="-58" type="line"/>
    </contour>
  </outline>
</glyph>
<glyph name="grave" format="2">
  <advance width="161"/>
  <unicode hex="0060"/>
  <note>
GF Latin Plus glyph
</note>
  <outline>
    <contour>
      <point x="97" y="450" type="line"/>
      <point x="149" y="450" type="line"/>
      <point x="84" y="549" type="line"/>
      <point x="12" y="549" type="line"/>
    </contour>
  </outline>
</glyph>
<glyph name="a" format="2">
  <advance width="391"/>
  <unicode hex="0061"/>
  <note>
GF Latin Plus glyph
</note>
  <anchor x="192" y="-107" name="bottom"/>
  <anchor x="192" y="464" name="top"/>
  <outline>
    <contour>
      <point x="124" y="-4" type="curve" smooth="yes"/>
      <point x="188" y="-4"/>
      <point x="252" y="30"/>
      <point x="264" y="41" type="curve"/>
      <point x="278" y="0" type="line"/>
      <point x="348" y="0" type="line"/>
      <point x="348" y="263" type="line" smooth="yes"/>
      <point x="348" y="357"/>
      <point x="296" y="388"/>
      <point x="202" y="388" type="curve" smooth="yes"/>
      <point x="136" y="387"/>
      <point x="90" y="379"/>
      <point x="54" y="369" type="curve"/>
      <point x="54" y="318" type="line"/>
      <point x="170" y="318" type="line" smooth="yes"/>
      <point x="245" y="318"/>
      <point x="259" y="298"/>
      <point x="259" y="257" type="curve" smooth="yes"/>
      <point x="259" y="224" type="line"/>
      <point x="150" y="224" type="line" smooth="yes"/>
      <point x="66" y="224"/>
      <point x="26" y="182"/>
      <point x="26" y="124" type="curve" smooth="yes"/>
      <point x="26" y="92" type="line" smooth="yes"/>
      <point x="26" y="31"/>
      <point x="67" y="-4"/>
    </contour>
    <contour>
      <point x="167" y="58" type="curve" smooth="yes"/>
      <point x="140" y="58"/>
      <point x="115" y="70"/>
      <point x="115" y="107" type="curve" smooth="yes"/>
      <point x="115" y="123" type="line" smooth="yes"/>
      <point x="115" y="154"/>
      <point x="133" y="174"/>
      <point x="177" y="177" type="curve" smooth="yes"/>
      <point x="259" y="182" type="line"/>
      <point x="259" y="81" type="line"/>
      <point x="256" y="79"/>
      <point x="198" y="57"/>
    </contour>
  </outline>
</glyph>
<glyph name="b" format="2">
  <advance width="416"/>
  <unicode hex="0062"/>
  <note>
GF Latin Plus glyph
</note>
  <outline>
    <contour>
      <point x="250" y="-4" type="curve" smooth="yes"/>
      <point x="342" y="-4"/>
      <point x="382" y="62"/>
      <point x="382" y="187" type="curve" smooth="yes"/>
      <point x="382" y="332"/>
      <point x="342" y="388"/>
      <point x="246" y="388" type="curve" smooth="yes"/>
      <point x="210" y="388"/>
      <point x="166" y="371"/>
      <point x="133" y="353" type="curve"/>
      <point x="133" y="545" type="line"/>
      <point x="45" y="545" type="line"/>
      <point x="45" y="0" type="line"/>
      <point x="118" y="0" type="line"/>
      <point x="133" y="37" type="line"/>
      <point x="162" y="15"/>
      <point x="198" y="-4"/>
    </contour>
    <contour>
      <point x="218" y="68" type="curve" smooth="yes"/>
      <point x="182" y="68"/>
      <point x="155" y="79"/>
      <point x="133" y="91" type="curve"/>
      <point x="133" y="291" type="line"/>
      <point x="157" y="305"/>
      <point x="185" y="316"/>
      <point x="218" y="316" type="curve" smooth="yes"/>
      <point x="260" y="316"/>
      <point x="294" y="299"/>
      <point x="294" y="192" type="curve" smooth="yes"/>
      <point x="294" y="100"/>
      <point x="264" y="68"/>
    </contour>
  </outline>
</glyph>
<glyph name="c" format="2">
  <advance width="350"/>
  <unicode hex="0063"/>
  <note>
GF Latin Plus glyph
</note>
  <outline>
    <contour>
      <point x="191" y="-4" type="curve" smooth="yes"/>
      <point x="240" y="-4"/>
      <point x="295" y="3"/>
      <point x="329" y="12" type="curve"/>
      <point x="329" y="63" type="line"/>
      <point x="220" y="63" type="line" smooth="yes"/>
      <point x="152" y="63"/>
      <point x="121" y="84"/>
      <point x="121" y="190" type="curve" smooth="yes"/>
      <point x="121" y="297"/>
      <point x="151" y="321"/>
      <point x="220" y="321" type="curve" smooth="yes"/>
      <point x="324" y="321" type="line"/>
      <point x="324" y="373" type="line"/>
      <point x="279" y="383"/>
      <point x="236" y="387"/>
      <point x="193" y="387" type="curve" smooth="yes"/>
      <point x="92" y="387"/>
      <point x="33" y="346"/>
      <point x="33" y="190" type="curve" smooth="yes"/>
      <point x="33" y="36"/>
      <point x="99" y="-4"/>
    </contour>
  </outline>
</glyph>
<glyph name="d" format="2">
  <advance width="414"/>
  <unicode hex="0064"/>
  <note>
GF Latin Plus glyph
</note>
  <anchor x="202" y="-107" name="bottom"/>
  <anchor x="326" y="607" name="top"/>
  <outline>
    <contour>
      <point x="170" y="-4" type="curve" smooth="yes"/>
      <point x="210" y="-4"/>
      <point x="258" y="16"/>
      <point x="282" y="37" type="curve"/>
      <point x="297" y="0" type="line"/>
      <point x="370" y="0" type="line"/>
      <point x="370" y="545" type="line"/>
      <point x="282" y="545" type="line"/>
      <point x="282" y="368" type="line"/>
      <point x="254" y="378"/>
      <point x="215" y="388"/>
      <point x="177" y="388" type="curve" smooth="yes"/>
      <point x="69" y="388"/>
      <point x="33" y="329"/>
      <point x="33" y="187" type="curve" smooth="yes"/>
      <point x="33" y="51"/>
      <point x="79" y="-4"/>
    </contour>
    <contour>
      <point x="200" y="67" type="curve" smooth="yes"/>
      <point x="143" y="67"/>
      <point x="121" y="96"/>
      <point x="121" y="192" type="curve" smooth="yes"/>
      <point x="121" y="294"/>
      <point x="144" y="321"/>
      <point x="205" y="321" type="curve" smooth="yes"/>
      <point x="234" y="321"/>
      <point x="258" y="313"/>
      <point x="282" y="305" type="curve"/>
      <point x="282" y="92" type="line"/>
      <point x="262" y="80"/>
      <point x="234" y="67"/>
    </contour>
  </outline>
</glyph>
<glyph name="e" format="2">
  <advance width="384"/>
  <unicode hex="0065"/>
  <note>
GF Latin Plus glyph
</note>
  <outline>
    <contour>
      <point x="201" y="-3" type="curve" smooth="yes"/>
      <point x="260" y="-3"/>
      <point x="300" y="3"/>
      <point x="340" y="10" type="curve"/>
      <point x="340" y="62" type="line"/>
      <point x="224" y="62" type="line" smooth="yes"/>
      <point x="140" y="62"/>
      <point x="122" y="88"/>
      <point x="120" y="159" type="curve"/>
      <point x="233" y="159" type="line" smooth="yes"/>
      <point x="305" y="159"/>
      <point x="351" y="183"/>
      <point x="351" y="257" type="curve" smooth="yes"/>
      <point x="351" y="359"/>
      <point x="308" y="388"/>
      <point x="199" y="388" type="curve" smooth="yes"/>
      <point x="75" y="388"/>
      <point x="33" y="345"/>
      <point x="33" y="191" type="curve" smooth="yes"/>
      <point x="33" y="39"/>
      <point x="77" y="-3"/>
    </contour>
    <contour>
      <point x="120" y="213" type="line"/>
      <point x="120" y="300"/>
      <point x="139" y="323"/>
      <point x="199" y="323" type="curve" smooth="yes"/>
      <point x="252" y="323"/>
      <point x="273" y="307"/>
      <point x="273" y="257" type="curve" smooth="yes"/>
      <point x="273" y="224"/>
      <point x="257" y="213"/>
      <point x="224" y="213" type="curve" smooth="yes"/>
    </contour>
  </outline>
</glyph>
<glyph name="f" format="2">
  <advance width="274"/>
  <unicode hex="0066"/>
  <note>
GF Latin Plus glyph
</note>
  <anchor x="191" y="619" name="top"/>
  <outline>
    <contour>
      <point x="70" y="0" type="line"/>
      <point x="158" y="0" type="line"/>
      <point x="158" y="311" type="line"/>
      <point x="263" y="311" type="line"/>
      <point x="263" y="382" type="line"/>
      <point x="158" y="382" type="line"/>
      <point x="158" y="419" type="line" smooth="yes"/>
      <point x="158" y="458"/>
      <point x="168" y="476"/>
      <point x="208" y="476" type="curve" smooth="yes"/>
      <point x="268" y="476" type="line"/>
      <point x="268" y="539" type="line"/>
      <point x="250" y="544"/>
      <point x="223" y="549"/>
      <point x="191" y="549" type="curve" smooth="yes"/>
      <point x="102" y="549"/>
      <point x="70" y="506"/>
      <point x="70" y="414" type="curve" smooth="yes"/>
      <point x="70" y="382" type="line"/>
      <point x="14" y="368" type="line"/>
      <point x="14" y="311" type="line"/>
      <point x="70" y="311" type="line"/>
    </contour>
  </outline>
</glyph>
<glyph name="g" format="2">
  <advance width="414"/>
  <unicode hex="0067"/>
  <note>
GF Latin Plus glyph
</note>
  <outline>
    <contour>
      <point x="142" y="-176" type="curve" smooth="yes"/>
      <point x="254" y="-176" type="line" smooth="yes"/>
      <point x="351" y="-176"/>
      <point x="398" y="-132"/>
      <point x="398" y="-58" type="curve" smooth="yes"/>
      <point x="398" y="-46" type="line" smooth="yes"/>
      <point x="398" y="32"/>
      <point x="350" y="65"/>
      <point x="262" y="65" type="curve" smooth="yes"/>
      <point x="149" y="65" type="line" smooth="yes"/>
      <point x="131" y="65"/>
      <point x="113" y="71"/>
      <point x="113" y="90" type="curve" smooth="yes"/>
      <point x="113" y="113"/>
      <point x="134" y="121"/>
      <point x="164" y="121" type="curve" smooth="yes"/>
      <point x="230" y="121" type="line" smooth="yes"/>
      <point x="330" y="121"/>
      <point x="367" y="174"/>
      <point x="367" y="238" type="curve" smooth="yes"/>
      <point x="367" y="291"/>
      <point x="347" y="311"/>
      <point x="331" y="324" type="curve"/>
      <point x="400" y="334" type="line"/>
      <point x="400" y="383" type="line"/>
      <point x="193" y="383" type="line" smooth="yes"/>
      <point x="92" y="383"/>
      <point x="38" y="344"/>
      <point x="38" y="258" type="curve" smooth="yes"/>
      <point x="38" y="215"/>
      <point x="53" y="172"/>
      <point x="102" y="148" type="curve"/>
      <point x="62" y="139"/>
      <point x="38" y="114"/>
      <point x="38" y="76" type="curve" smooth="yes"/>
      <point x="38" y="31"/>
      <point x="76" y="-1"/>
      <point x="153" y="-1" type="curve" smooth="yes"/>
      <point x="249" y="-1" type="line" smooth="yes"/>
      <point x="296" y="-1"/>
      <point x="315" y="-20"/>
      <point x="315" y="-50" type="curve" smooth="yes"/>
      <point x="315" y="-62" type="line" smooth="yes"/>
      <point x="315" y="-97"/>
      <point x="287" y="-113"/>
      <point x="244" y="-113" type="curve" smooth="yes"/>
      <point x="166" y="-113" type="line" smooth="yes"/>
      <point x="124" y="-113"/>
      <point x="100" y="-97"/>
      <point x="100" y="-64" type="curve" smooth="yes"/>
      <point x="100" y="-53" type="line" smooth="yes"/>
      <point x="100" y="-18"/>
      <point x="129" y="-1"/>
      <point x="164" y="-1" type="curve"/>
      <point x="138" y="27" type="line"/>
      <point x="78" y="27"/>
      <point x="16" y="-6"/>
      <point x="16" y="-69" type="curve" smooth="yes"/>
      <point x="16" y="-83" type="line" smooth="yes"/>
      <point x="16" y="-144"/>
      <point x="69" y="-176"/>
    </contour>
    <contour>
      <point x="179" y="188" type="line" smooth="yes"/>
      <point x="139" y="188"/>
      <point x="118" y="207"/>
      <point x="118" y="253" type="curve" smooth="yes"/>
      <point x="118" y="299"/>
      <point x="141" y="316"/>
      <point x="184" y="316" type="curve" smooth="yes"/>
      <point x="224" y="316" type="line" smooth="yes"/>
      <point x="263" y="316"/>
      <point x="287" y="298"/>
      <point x="287" y="250" type="curve" smooth="yes"/>
      <point x="287" y="215"/>
      <point x="273" y="188"/>
      <point x="220" y="188" type="curve" smooth="yes"/>
    </contour>
  </outline>
</glyph>
<glyph name="h" format="2">
  <advance width="423"/>
  <unicode hex="0068"/>
  <note>
GF Latin Plus glyph
</note>
  <anchor x="211" y="-107" name="bottom"/>
  <anchor x="110" y="621" name="top"/>
  <outline>
    <contour>
      <point x="45" y="0" type="line"/>
      <point x="133" y="0" type="line"/>
      <point x="133" y="278" type="line"/>
      <point x="162" y="296"/>
      <point x="190" y="309"/>
      <point x="228" y="309" type="curve" smooth="yes"/>
      <point x="266" y="309"/>
      <point x="291" y="285"/>
      <point x="291" y="244" type="curve" smooth="yes"/>
      <point x="291" y="0" type="line"/>
      <point x="380" y="0" type="line"/>
      <point x="380" y="255" type="line" smooth="yes"/>
      <point x="380" y="333"/>
      <point x="346" y="389"/>
      <point x="262" y="389" type="curve" smooth="yes"/>
      <point x="213" y="389"/>
      <point x="163" y="365"/>
      <point x="133" y="342" type="curve"/>
      <point x="133" y="544" type="line"/>
      <point x="45" y="544" type="line"/>
    </contour>
  </outline>
</glyph>
<glyph name="i" format="2">
  <advance width="179"/>
  <unicode hex="0069"/>
  <note>
GF Latin Plus glyph
</note>
  <outline>
    <component base="dotlessi"/>
    <contour>
      <point x="56" y="443" type="curve" smooth="yes"/>
      <point x="123" y="443" type="line" smooth="yes"/>
      <point x="131" y="443"/>
      <point x="136" y="447"/>
      <point x="136" y="456" type="curve" smooth="yes"/>
      <point x="136" y="521" type="line" smooth="yes"/>
      <point x="136" y="529"/>
      <point x="132" y="535"/>
      <point x="123" y="535" type="curve" smooth="yes"/>
      <point x="56" y="535" type="line" smooth="yes"/>
      <point x="47" y="535"/>
      <point x="42" y="529"/>
      <point x="42" y="521" type="curve" smooth="yes"/>
      <point x="42" y="456" type="line" smooth="yes"/>
      <point x="42" y="448"/>
      <point x="48" y="443"/>
    </contour>
  </outline>
</glyph>
<glyph name="j" format="2">
  <advance width="179"/>
  <unicode hex="006A"/>
  <note>
GF Latin Plus glyph
</note>
  <outline>
    <component base="jdotless"/>
    <contour>
      <point x="56" y="443" type="curve" smooth="yes"/>
      <point x="123" y="443" type="line" smooth="yes"/>
      <point x="131" y="443"/>
      <point x="135" y="447"/>
      <point x="135" y="456" type="curve" smooth="yes"/>
      <point x="135" y="521" type="line" smooth="yes"/>
      <point x="135" y="529"/>
      <point x="131" y="535"/>
      <point x="123" y="535" type="curve" smooth="yes"/>
      <point x="56" y="535" type="line" smooth="yes"/>
      <point x="47" y="535"/>
      <point x="42" y="529"/>
      <point x="42" y="521" type="curve" smooth="yes"/>
      <point x="42" y="456" type="line" smooth="yes"/>
      <point x="42" y="448"/>
      <point x="48" y="443"/>
    </contour>
  </outline>
</glyph>
<glyph name="k" format="2">
  <advance width="383"/>
  <unicode hex="006B"/>
  <note>
GF Latin Plus glyph
</note>
  <outline>
    <contour>
      <point x="45" y="0" type="line"/>
      <point x="133" y="0" type="line"/>
      <point x="133" y="163" type="line"/>
      <point x="180" y="163" type="line"/>
      <point x="287" y="0" type="line"/>
      <point x="378" y="0" type="line"/>
      <point x="247" y="203" type="line"/>
      <point x="368" y="382" type="line"/>
      <point x="277" y="382" type="line"/>
      <point x="182" y="243" type="line"/>
      <point x="133" y="243" type="line"/>
      <point x="133" y="545" type="line"/>
      <point x="45" y="545" type="line"/>
    </contour>
  </outline>
</glyph>
<glyph name="l" format="2">
  <advance width="218"/>
  <unicode hex="006C"/>
  <note>
GF Latin Plus glyph
</note>
  <anchor x="127" y="-107" name="bottom"/>
  <anchor x="89" y="621" name="top"/>
  <outline>
    <contour>
      <point x="158" y="-1" type="curve" smooth="yes"/>
      <point x="211" y="-1" type="line"/>
      <point x="211" y="62" type="line"/>
      <point x="178" y="66" type="line" smooth="yes"/>
      <point x="149" y="70"/>
      <point x="133" y="84"/>
      <point x="133" y="135" type="curve" smooth="yes"/>
      <point x="133" y="545" type="line"/>
      <point x="45" y="545" type="line"/>
      <point x="45" y="123" type="line" smooth="yes"/>
      <point x="45" y="34"/>
      <point x="83" y="-1"/>
    </contour>
  </outline>
</glyph>
<glyph name="m" format="2">
  <advance width="669"/>
  <unicode hex="006D"/>
  <note>
GF Latin Plus glyph
</note>
  <outline>
    <contour>
      <point x="45" y="0" type="line"/>
      <point x="133" y="0" type="line"/>
      <point x="133" y="278" type="line"/>
      <point x="162" y="297"/>
      <point x="190" y="309"/>
      <point x="228" y="309" type="curve" smooth="yes"/>
      <point x="267" y="309"/>
      <point x="291" y="284"/>
      <point x="291" y="244" type="curve" smooth="yes"/>
      <point x="291" y="0" type="line"/>
      <point x="380" y="0" type="line"/>
      <point x="380" y="242" type="line" smooth="yes"/>
      <point x="380" y="253"/>
      <point x="378" y="264"/>
      <point x="375" y="275" type="curve"/>
      <point x="403" y="294"/>
      <point x="440" y="309"/>
      <point x="473" y="309" type="curve" smooth="yes"/>
      <point x="513" y="309"/>
      <point x="537" y="284"/>
      <point x="537" y="244" type="curve" smooth="yes"/>
      <point x="537" y="0" type="line"/>
      <point x="626" y="0" type="line"/>
      <point x="626" y="251" type="line" smooth="yes"/>
      <point x="626" y="332"/>
      <point x="594" y="389"/>
      <point x="505" y="389" type="curve" smooth="yes"/>
      <point x="454" y="389"/>
      <point x="397" y="359"/>
      <point x="364" y="334" type="curve"/>
      <point x="347" y="366"/>
      <point x="315" y="389"/>
      <point x="267" y="389" type="curve" smooth="yes"/>
      <point x="209" y="389"/>
      <point x="168" y="367"/>
      <point x="133" y="342" type="curve"/>
      <point x="117" y="382" type="line"/>
      <point x="45" y="382" type="line"/>
    </contour>
  </outline>
</glyph>
<glyph name="n" format="2">
  <advance width="423"/>
  <unicode hex="006E"/>
  <note>
GF Latin Plus glyph
</note>
  <outline>
    <contour>
      <point x="45" y="0" type="line"/>
      <point x="133" y="0" type="line"/>
      <point x="133" y="278" type="line"/>
      <point x="162" y="297"/>
      <point x="190" y="309"/>
      <point x="228" y="309" type="curve" smooth="yes"/>
      <point x="267" y="309"/>
      <point x="291" y="284"/>
      <point x="291" y="244" type="curve" smooth="yes"/>
      <point x="291" y="0" type="line"/>
      <point x="380" y="0" type="line"/>
      <point x="380" y="255" type="line" smooth="yes"/>
      <point x="380" y="327"/>
      <point x="351" y="389"/>
      <point x="261" y="389" type="curve" smooth="yes"/>
      <point x="213" y="389"/>
      <point x="164" y="366"/>
      <point x="133" y="342" type="curve"/>
      <point x="117" y="382" type="line"/>
      <point x="45" y="382" type="line"/>
    </contour>
  </outline>
</glyph>
<glyph name="o" format="2">
  <advance width="411"/>
  <unicode hex="006F"/>
  <note>
GF Latin Plus glyph
</note>
  <anchor x="205" y="-107" name="bottom"/>
  <anchor x="205" y="464" name="top"/>
  <outline>
    <contour>
      <point x="205" y="-3" type="curve" smooth="yes"/>
      <point x="328" y="-3"/>
      <point x="377" y="37"/>
      <point x="377" y="192" type="curve" smooth="yes"/>
      <point x="377" y="348"/>
      <point x="326" y="388"/>
      <point x="205" y="388" type="curve" smooth="yes"/>
      <point x="85" y="388"/>
      <point x="33" y="350"/>
      <point x="33" y="192" type="curve" smooth="yes"/>
      <point x="33" y="40"/>
      <point x="83" y="-3"/>
    </contour>
    <contour>
      <point x="205" y="67" type="curve" smooth="yes"/>
      <point x="148" y="67"/>
      <point x="121" y="80"/>
      <point x="121" y="192" type="curve" smooth="yes"/>
      <point x="121" y="304"/>
      <point x="148" y="317"/>
      <point x="205" y="317" type="curve" smooth="yes"/>
      <point x="262" y="317"/>
      <point x="289" y="304"/>
      <point x="289" y="192" type="curve" smooth="yes"/>
      <point x="289" y="80"/>
      <point x="262" y="67"/>
    </contour>
  </outline>
</glyph>
<glyph name="p" format="2">
  <advance width="416"/>
  <unicode hex="0070"/>
  <note>
GF Latin Plus glyph
</note>
  <anchor x="199" y="464" name="top"/>
  <outline>
    <contour>
      <point x="45" y="-169" type="line"/>
      <point x="133" y="-169" type="line"/>
      <point x="133" y="23" type="line"/>
      <point x="166" y="5"/>
      <point x="208" y="-5"/>
      <point x="246" y="-5" type="curve" smooth="yes"/>
      <point x="347" y="-5"/>
      <point x="382" y="66"/>
      <point x="382" y="191" type="curve" smooth="yes"/>
      <point x="382" y="307"/>
      <point x="343" y="388"/>
      <point x="246" y="388" type="curve" smooth="yes"/>
      <point x="201" y="388"/>
      <point x="160" y="365"/>
      <point x="133" y="345" type="curve"/>
      <point x="118" y="382" type="line"/>
      <point x="45" y="382" type="line"/>
    </contour>
    <contour>
      <point x="218" y="68" type="curve" smooth="yes"/>
      <point x="188" y="68"/>
      <point x="157" y="77"/>
      <point x="133" y="91" type="curve"/>
      <point x="133" y="291" type="line"/>
      <point x="154" y="303"/>
      <point x="184" y="316"/>
      <point x="219" y="316" type="curve" smooth="yes"/>
      <point x="260" y="316"/>
      <point x="294" y="285"/>
      <point x="294" y="191" type="curve" smooth="yes"/>
      <point x="294" y="94"/>
      <point x="259" y="68"/>
    </contour>
  </outline>
</glyph>
<glyph name="q" format="2">
  <advance width="414"/>
  <unicode hex="0071"/>
  <note>
GF Latin Plus glyph
</note>
  <outline>
    <contour>
      <point x="282" y="-169" type="line"/>
      <point x="370" y="-169" type="line"/>
      <point x="370" y="374" type="line"/>
      <point x="323" y="381"/>
      <point x="246" y="388"/>
      <point x="178" y="388" type="curve" smooth="yes"/>
      <point x="78" y="388"/>
      <point x="33" y="333"/>
      <point x="33" y="191" type="curve" smooth="yes"/>
      <point x="33" y="58"/>
      <point x="68" y="-4"/>
      <point x="171" y="-4" type="curve" smooth="yes"/>
      <point x="209" y="-4"/>
      <point x="251" y="14"/>
      <point x="282" y="37" type="curve"/>
    </contour>
    <contour>
      <point x="196" y="67" type="curve" smooth="yes"/>
      <point x="142" y="67"/>
      <point x="121" y="96"/>
      <point x="121" y="194" type="curve" smooth="yes"/>
      <point x="121" y="276"/>
      <point x="141" y="321"/>
      <point x="203" y="321" type="curve" smooth="yes"/>
      <point x="282" y="321" type="line"/>
      <point x="282" y="92" type="line"/>
      <point x="257" y="78"/>
      <point x="224" y="67"/>
    </contour>
  </outline>
</glyph>
<glyph name="r" format="2">
  <advance width="299"/>
  <unicode hex="0072"/>
  <note>
GF Latin Plus glyph
</note>
  <anchor x="89" y="-107" name="bottom"/>
  <anchor x="155" y="464" name="top"/>
  <outline>
    <contour>
      <point x="45" y="0" type="line"/>
      <point x="133" y="0" type="line"/>
      <point x="133" y="249" type="line"/>
      <point x="164" y="281"/>
      <point x="193" y="296"/>
      <point x="239" y="296" type="curve" smooth="yes"/>
      <point x="253" y="296"/>
      <point x="269" y="295"/>
      <point x="283" y="293" type="curve"/>
      <point x="283" y="383" type="line"/>
      <point x="273" y="386"/>
      <point x="261" y="387"/>
      <point x="250" y="387" type="curve" smooth="yes"/>
      <point x="199" y="387"/>
      <point x="163" y="358"/>
      <point x="133" y="321" type="curve"/>
      <point x="113" y="382" type="line"/>
      <point x="45" y="382" type="line"/>
    </contour>
  </outline>
</glyph>
<glyph name="s" format="2">
  <advance width="359"/>
  <unicode hex="0073"/>
  <note>
GF Latin Plus glyph
</note>
  <anchor x="174" y="-107" name="bottom"/>
  <anchor x="174" y="464" name="top"/>
  <outline>
    <contour>
      <point x="182" y="-4" type="curve" smooth="yes"/>
      <point x="275" y="-4"/>
      <point x="330" y="18"/>
      <point x="330" y="96" type="curve" smooth="yes"/>
      <point x="330" y="127" type="line" smooth="yes"/>
      <point x="330" y="190"/>
      <point x="294" y="226"/>
      <point x="219" y="226" type="curve" smooth="yes"/>
      <point x="160" y="226" type="line" smooth="yes"/>
      <point x="124" y="226"/>
      <point x="104" y="232"/>
      <point x="104" y="263" type="curve" smooth="yes"/>
      <point x="104" y="277" type="line" smooth="yes"/>
      <point x="104" y="309"/>
      <point x="123" y="319"/>
      <point x="158" y="319" type="curve" smooth="yes"/>
      <point x="314" y="319" type="line"/>
      <point x="314" y="371" type="line"/>
      <point x="285" y="378"/>
      <point x="220" y="386"/>
      <point x="175" y="386" type="curve" smooth="yes"/>
      <point x="66" y="386"/>
      <point x="28" y="349"/>
      <point x="28" y="277" type="curve" smooth="yes"/>
      <point x="28" y="255" type="line" smooth="yes"/>
      <point x="28" y="179"/>
      <point x="77" y="154"/>
      <point x="144" y="154" type="curve" smooth="yes"/>
      <point x="202" y="154" type="line" smooth="yes"/>
      <point x="240" y="154"/>
      <point x="254" y="140"/>
      <point x="254" y="116" type="curve" smooth="yes"/>
      <point x="254" y="102" type="line" smooth="yes"/>
      <point x="254" y="68"/>
      <point x="234" y="62"/>
      <point x="199" y="62" type="curve" smooth="yes"/>
      <point x="34" y="62" type="line"/>
      <point x="34" y="10" type="line"/>
      <point x="63" y="0"/>
      <point x="137" y="-4"/>
    </contour>
  </outline>
</glyph>
<glyph name="t" format="2">
  <advance width="272"/>
  <unicode hex="0074"/>
  <note>
GF Latin Plus glyph
</note>
  <anchor x="145" y="-107" name="bottom"/>
  <anchor x="120" y="529" name="top"/>
  <outline>
    <contour>
      <point x="184" y="0" type="curve" smooth="yes"/>
      <point x="247" y="0" type="line"/>
      <point x="247" y="65" type="line"/>
      <point x="199" y="69" type="line" smooth="yes"/>
      <point x="177" y="72"/>
      <point x="154" y="82"/>
      <point x="154" y="132" type="curve" smooth="yes"/>
      <point x="154" y="311" type="line"/>
      <point x="252" y="311" type="line"/>
      <point x="252" y="382" type="line"/>
      <point x="154" y="382" type="line"/>
      <point x="154" y="489" type="line"/>
      <point x="85" y="489" type="line"/>
      <point x="72" y="382" type="line"/>
      <point x="10" y="368" type="line"/>
      <point x="10" y="311" type="line"/>
      <point x="70" y="311" type="line"/>
      <point x="67" y="131" type="line" smooth="yes"/>
      <point x="64" y="34"/>
      <point x="101" y="0"/>
    </contour>
  </outline>
</glyph>
<glyph name="u" format="2">
  <advance width="423"/>
  <unicode hex="0075"/>
  <note>
GF Latin Plus glyph
</note>
  <anchor x="207" y="-107" name="bottom"/>
  <anchor x="207" y="464" name="top"/>
  <outline>
    <contour>
      <point x="155" y="-4" type="curve" smooth="yes"/>
      <point x="206" y="-4"/>
      <point x="254" y="16"/>
      <point x="290" y="40" type="curve"/>
      <point x="307" y="0" type="line"/>
      <point x="379" y="0" type="line"/>
      <point x="379" y="382" type="line"/>
      <point x="290" y="382" type="line"/>
      <point x="290" y="104" type="line"/>
      <point x="262" y="85"/>
      <point x="230" y="73"/>
      <point x="198" y="73" type="curve" smooth="yes"/>
      <point x="157" y="73"/>
      <point x="132" y="87"/>
      <point x="132" y="137" type="curve" smooth="yes"/>
      <point x="132" y="382" type="line"/>
      <point x="44" y="382" type="line"/>
      <point x="44" y="112" type="line" smooth="yes"/>
      <point x="44" y="36"/>
      <point x="85" y="-4"/>
    </contour>
  </outline>
</glyph>
<glyph name="v" format="2">
  <advance width="395"/>
  <unicode hex="0076"/>
  <note>
GF Latin Plus glyph
</note>
  <outline>
    <contour>
      <point x="144" y="0" type="line"/>
      <point x="245" y="0" type="line"/>
      <point x="385" y="382" type="line"/>
      <point x="295" y="382" type="line"/>
      <point x="196" y="81" type="line"/>
      <point x="101" y="382" type="line"/>
      <point x="10" y="382" type="line"/>
    </contour>
  </outline>
</glyph>
<glyph name="w" format="2">
  <advance width="582"/>
  <unicode hex="0077"/>
  <note>
GF Latin Plus glyph
</note>
  <anchor x="294" y="-107" name="bottom"/>
  <anchor x="294" y="464" name="top"/>
  <outline>
    <contour>
      <point x="117" y="0" type="line"/>
      <point x="212" y="0" type="line"/>
      <point x="291" y="259" type="line"/>
      <point x="369" y="0" type="line"/>
      <point x="466" y="0" type="line"/>
      <point x="572" y="382" type="line"/>
      <point x="481" y="382" type="line"/>
      <point x="413" y="81" type="line"/>
      <point x="330" y="382" type="line"/>
      <point x="256" y="382" type="line"/>
      <point x="173" y="81" type="line"/>
      <point x="101" y="382" type="line"/>
      <point x="10" y="382" type="line"/>
    </contour>
  </outline>
</glyph>
<glyph name="x" format="2">
  <advance width="378"/>
  <unicode hex="0078"/>
  <note>
GF Latin Plus glyph
</note>
  <outline>
    <contour>
      <point x="278" y="0" type="line"/>
      <point x="368" y="0" type="line"/>
      <point x="99" y="382" type="line"/>
      <point x="9" y="382" type="line"/>
    </contour>
    <contour>
      <point x="9" y="0" type="line"/>
      <point x="99" y="0" type="line"/>
      <point x="188" y="136" type="line"/>
      <point x="156" y="218" type="line"/>
    </contour>
    <contour>
      <point x="221" y="162" type="line"/>
      <point x="368" y="382" type="line"/>
      <point x="278" y="382" type="line"/>
      <point x="184" y="236" type="line"/>
    </contour>
  </outline>
</glyph>
<glyph name="y" format="2">
  <advance width="399"/>
  <unicode hex="0079"/>
  <note>
GF Latin Plus glyph
</note>
  <outline>
    <contour>
      <point x="159" y="-169" type="line"/>
      <point x="231" y="-169" type="line"/>
      <point x="265" y="-98" type="line"/>
      <point x="388" y="382" type="line"/>
      <point x="298" y="382" type="line"/>
      <point x="219" y="72" type="line"/>
      <point x="212" y="73"/>
      <point x="184" y="72"/>
      <point x="171" y="116" type="curve" smooth="yes"/>
      <point x="102" y="382" type="line"/>
      <point x="10" y="382" type="line"/>
      <point x="89" y="97" type="line" smooth="yes"/>
      <point x="107" y="30"/>
      <point x="147" y="0"/>
      <point x="203" y="0" type="curve"/>
    </contour>
  </outline>
</glyph>
<glyph name="z" format="2">
  <advance width="358"/>
  <unicode hex="007A"/>
  <note>
GF Latin Plus glyph
</note>
  <outline>
    <contour>
      <point x="33" y="0" type="line"/>
      <point x="330" y="0" type="line"/>
      <point x="330" y="71" type="line"/>
      <point x="135" y="71" type="line"/>
      <point x="330" y="318" type="line"/>
      <point x="330" y="382" type="line"/>
      <point x="27" y="382" type="line"/>
      <point x="27" y="311" type="line"/>
      <point x="228" y="311" type="line"/>
      <point x="33" y="64" type="line"/>
    </contour>
  </outline>
</glyph>
<glyph name="braceleft" format="2">
  <advance width="224"/>
  <unicode hex="007B"/>
  <note>
GF Latin Plus glyph
</note>
  <outline>
    <contour>
      <point x="212" y="-150" type="curve"/>
      <point x="212" y="-83" type="line"/>
      <point x="166" y="-83"/>
      <point x="152" y="-59"/>
      <point x="152" y="2" type="curve" smooth="yes"/>
      <point x="152" y="170" type="line" smooth="yes"/>
      <point x="152" y="207"/>
      <point x="125" y="231"/>
      <point x="85" y="238" type="curve"/>
      <point x="125" y="242"/>
      <point x="152" y="263"/>
      <point x="152" y="308" type="curve" smooth="yes"/>
      <point x="152" y="435" type="line" smooth="yes"/>
      <point x="152" y="509"/>
      <point x="168" y="530"/>
      <point x="212" y="530" type="curve"/>
      <point x="212" y="601" type="line"/>
      <point x="104" y="601"/>
      <point x="64" y="547"/>
      <point x="64" y="468" type="curve" smooth="yes"/>
      <point x="64" y="323" type="line" smooth="yes"/>
      <point x="64" y="290"/>
      <point x="36" y="281"/>
      <point x="12" y="279" type="curve"/>
      <point x="12" y="197" type="line"/>
      <point x="41" y="199"/>
      <point x="63" y="181"/>
      <point x="63" y="153" type="curve" smooth="yes"/>
      <point x="63" y="-27" type="line" smooth="yes"/>
      <point x="63" y="-102"/>
      <point x="94" y="-150"/>
    </contour>
  </outline>
</glyph>
<glyph name="bar" format="2">
  <advance width="179"/>
  <unicode hex="007C"/>
  <note>
GF Latin Plus glyph
</note>
  <outline>
    <contour>
      <point x="54" y="-51" type="line"/>
      <point x="125" y="-51" type="line"/>
      <point x="125" y="550" type="line"/>
      <point x="54" y="550" type="line"/>
    </contour>
  </outline>
</glyph>
<glyph name="braceright" format="2">
  <advance width="224"/>
  <unicode hex="007D"/>
  <note>
GF Latin Plus glyph
</note>
  <outline>
    <contour>
      <point x="12" y="-150" type="line"/>
      <point x="130" y="-150"/>
      <point x="161" y="-102"/>
      <point x="161" y="-27" type="curve" smooth="yes"/>
      <point x="161" y="153" type="line" smooth="yes"/>
      <point x="161" y="181"/>
      <point x="183" y="199"/>
      <point x="212" y="197" type="curve"/>
      <point x="212" y="279" type="line"/>
      <point x="188" y="281"/>
      <point x="160" y="290"/>
      <point x="160" y="323" type="curve" smooth="yes"/>
      <point x="160" y="468" type="line" smooth="yes"/>
      <point x="160" y="547"/>
      <point x="120" y="601"/>
      <point x="12" y="601" type="curve"/>
      <point x="12" y="530" type="line"/>
      <point x="56" y="530"/>
      <point x="71" y="509"/>
      <point x="71" y="435" type="curve" smooth="yes"/>
      <point x="71" y="308" type="line" smooth="yes"/>
      <point x="71" y="263"/>
      <point x="99" y="242"/>
      <point x="139" y="238" type="curve"/>
      <point x="99" y="231"/>
      <point x="72" y="207"/>
      <point x="72" y="170" type="curve" smooth="yes"/>
      <point x="72" y="2" type="line" smooth="yes"/>
      <point x="72" y="-59"/>
      <point x="58" y="-83"/>
      <point x="12" y="-83" type="curve"/>
    </contour>
  </outline>
</glyph>
<glyph name="asciitilde" format="2">
  <advance width="308"/>
  <unicode hex="007E"/>
  <note>
GF Latin Plus glyph
</note>
  <outline>
    <contour>
      <point x="199" y="382" type="curve" smooth="yes"/>
      <point x="232" y="382"/>
      <point x="258" y="407"/>
      <point x="277" y="430" type="curve"/>
      <point x="264" y="463" type="line"/>
      <point x="248" y="448"/>
      <point x="224" y="431"/>
      <point x="200" y="431" type="curve" smooth="yes"/>
      <point x="178" y="431"/>
      <point x="145" y="467"/>
      <point x="114" y="467" type="curve" smooth="yes"/>
      <point x="79" y="467"/>
      <point x="52" y="443"/>
      <point x="31" y="419" type="curve"/>
      <point x="44" y="389" type="line"/>
      <point x="67" y="406"/>
      <point x="85" y="418"/>
      <point x="109" y="418" type="curve" smooth="yes"/>
      <point x="131" y="418"/>
      <point x="167" y="382"/>
    </contour>
  </outline>
</glyph>
<glyph name="cent" format="2">
  <advance width="347"/>
  <unicode hex="00A2"/>
  <note>
GF Latin Plus glyph
</note>
  <outline>
    <contour>
      <point x="163" y="-64" type="line"/>
      <point x="213" y="-64" type="line"/>
      <point x="213" y="-3" type="line"/>
      <point x="252" y="-2"/>
      <point x="284" y="4"/>
      <point x="321" y="20" type="curve"/>
      <point x="321" y="73" type="line"/>
      <point x="301" y="69"/>
      <point x="262" y="63"/>
      <point x="200" y="63" type="curve" smooth="yes"/>
      <point x="140" y="63"/>
      <point x="113" y="84"/>
      <point x="113" y="187" type="curve" smooth="yes"/>
      <point x="113" y="297"/>
      <point x="140" y="315"/>
      <point x="199" y="315" type="curve" smooth="yes"/>
      <point x="258" y="315"/>
      <point x="300" y="311"/>
      <point x="317" y="308" type="curve"/>
      <point x="317" y="360" type="line"/>
      <point x="283" y="371"/>
      <point x="246" y="379"/>
      <point x="215" y="381" type="curve"/>
      <point x="215" y="448" type="line"/>
      <point x="164" y="448" type="line"/>
      <point x="164" y="382" type="line"/>
      <point x="83" y="382"/>
      <point x="25" y="346"/>
      <point x="25" y="190" type="curve" smooth="yes"/>
      <point x="25" y="34"/>
      <point x="86" y="-2"/>
      <point x="163" y="-3" type="curve"/>
    </contour>
  </outline>
</glyph>
<glyph name="sterling" format="2">
  <advance width="435"/>
  <unicode hex="00A3"/>
  <note>
GF Latin Plus glyph
</note>
  <outline>
    <contour>
      <point x="42" y="0" type="line"/>
      <point x="395" y="0" type="line"/>
      <point x="395" y="79" type="line"/>
      <point x="201" y="79" type="line"/>
      <point x="201" y="230" type="line"/>
      <point x="339" y="236" type="line"/>
      <point x="339" y="285" type="line"/>
      <point x="201" y="293" type="line"/>
      <point x="201" y="369" type="line" smooth="yes"/>
      <point x="201" y="435"/>
      <point x="227" y="450"/>
      <point x="281" y="450" type="curve" smooth="yes"/>
      <point x="390" y="450" type="line"/>
      <point x="390" y="521" type="line"/>
      <point x="364" y="525"/>
      <point x="322" y="529"/>
      <point x="277" y="529" type="curve" smooth="yes"/>
      <point x="167" y="529"/>
      <point x="113" y="487"/>
      <point x="113" y="359" type="curve" smooth="yes"/>
      <point x="113" y="293" type="line"/>
      <point x="42" y="281" type="line"/>
      <point x="42" y="236" type="line"/>
      <point x="113" y="230" type="line"/>
      <point x="113" y="79" type="line"/>
      <point x="42" y="67" type="line"/>
    </contour>
  </outline>
</glyph>
<glyph name="currency" format="2">
  <advance width="435"/>
  <unicode hex="00A4"/>
  <note>
GF Latin Plus glyph
</note>
  <outline>
    <contour>
      <point x="217" y="130" type="curve" smooth="yes"/>
      <point x="284" y="130"/>
      <point x="340" y="186"/>
      <point x="340" y="254" type="curve" smooth="yes"/>
      <point x="340" y="321"/>
      <point x="284" y="377"/>
      <point x="217" y="377" type="curve" smooth="yes"/>
      <point x="149" y="377"/>
      <point x="94" y="321"/>
      <point x="94" y="254" type="curve" smooth="yes"/>
      <point x="94" y="186"/>
      <point x="149" y="130"/>
    </contour>
    <contour>
      <point x="86" y="86" type="line"/>
      <point x="164" y="163" type="line"/>
      <point x="126" y="201" type="line"/>
      <point x="49" y="124" type="line"/>
    </contour>
    <contour>
      <point x="123" y="310" type="line"/>
      <point x="161" y="347" type="line"/>
      <point x="86" y="421" type="line"/>
      <point x="49" y="384" type="line"/>
    </contour>
    <contour>
      <point x="347" y="86" type="line"/>
      <point x="384" y="124" type="line"/>
      <point x="309" y="199" type="line"/>
      <point x="271" y="162" type="line"/>
    </contour>
    <contour>
      <point x="217" y="177" type="curve" smooth="yes"/>
      <point x="175" y="177"/>
      <point x="141" y="212"/>
      <point x="141" y="254" type="curve" smooth="yes"/>
      <point x="141" y="296"/>
      <point x="175" y="331"/>
      <point x="217" y="331" type="curve" smooth="yes"/>
      <point x="259" y="331"/>
      <point x="293" y="296"/>
      <point x="293" y="254" type="curve" smooth="yes"/>
      <point x="293" y="212"/>
      <point x="259" y="177"/>
    </contour>
    <contour>
      <point x="309" y="308" type="line"/>
      <point x="384" y="384" type="line"/>
      <point x="347" y="421" type="line"/>
      <point x="271" y="346" type="line"/>
    </contour>
  </outline>
</glyph>
<glyph name="brokenbar" format="2">
  <advance width="179"/>
  <unicode hex="00A6"/>
  <note>
GF Latin Plus glyph
</note>
  <outline>
    <contour>
      <point x="54" y="306" type="line"/>
      <point x="125" y="306" type="line"/>
      <point x="125" y="550" type="line"/>
      <point x="54" y="550" type="line"/>
    </contour>
    <contour>
      <point x="54" y="-51" type="line"/>
      <point x="125" y="-51" type="line"/>
      <point x="125" y="182" type="line"/>
      <point x="54" y="182" type="line"/>
    </contour>
  </outline>
</glyph>
<glyph name="section" format="2">
  <advance width="387"/>
  <unicode hex="00A7"/>
  <note>
GF Latin Plus glyph
</note>
  <outline>
    <contour>
      <point x="225" y="-4" type="curve" smooth="yes"/>
      <point x="302" y="-4"/>
      <point x="351" y="19"/>
      <point x="351" y="99" type="curve" smooth="yes"/>
      <point x="351" y="139" type="line" smooth="yes"/>
      <point x="351" y="173"/>
      <point x="341" y="201"/>
      <point x="308" y="210" type="curve"/>
      <point x="343" y="221"/>
      <point x="356" y="245"/>
      <point x="356" y="279" type="curve" smooth="yes"/>
      <point x="356" y="311" type="line" smooth="yes"/>
      <point x="356" y="371"/>
      <point x="325" y="393"/>
      <point x="242" y="393" type="curve" smooth="yes"/>
      <point x="166" y="393" type="line" smooth="yes"/>
      <point x="134" y="393"/>
      <point x="123" y="403"/>
      <point x="123" y="425" type="curve" smooth="yes"/>
      <point x="123" y="448" type="line" smooth="yes"/>
      <point x="123" y="480"/>
      <point x="140" y="488"/>
      <point x="175" y="488" type="curve" smooth="yes"/>
      <point x="327" y="488" type="line"/>
      <point x="327" y="549" type="line"/>
      <point x="291" y="557"/>
      <point x="204" y="560"/>
      <point x="162" y="560" type="curve" smooth="yes"/>
      <point x="78" y="560"/>
      <point x="39" y="524"/>
      <point x="39" y="462" type="curve" smooth="yes"/>
      <point x="39" y="421" type="line" smooth="yes"/>
      <point x="39" y="386"/>
      <point x="48" y="354"/>
      <point x="82" y="341" type="curve"/>
      <point x="48" y="330"/>
      <point x="32" y="314"/>
      <point x="32" y="271" type="curve" smooth="yes"/>
      <point x="32" y="239" type="line" smooth="yes"/>
      <point x="32" y="178"/>
      <point x="71" y="159"/>
      <point x="144" y="159" type="curve" smooth="yes"/>
      <point x="221" y="159" type="line" smooth="yes"/>
      <point x="259" y="159"/>
      <point x="265" y="152"/>
      <point x="265" y="129" type="curve" smooth="yes"/>
      <point x="265" y="102" type="line" smooth="yes"/>
      <point x="265" y="80"/>
      <point x="255" y="66"/>
      <point x="207" y="66" type="curve" smooth="yes"/>
      <point x="61" y="66" type="line"/>
      <point x="61" y="4" type="line"/>
      <point x="101" y="-2"/>
      <point x="178" y="-4"/>
    </contour>
    <contour>
      <point x="165" y="225" type="line" smooth="yes"/>
      <point x="128" y="225"/>
      <point x="116" y="238"/>
      <point x="116" y="260" type="curve" smooth="yes"/>
      <point x="116" y="290" type="line" smooth="yes"/>
      <point x="116" y="317"/>
      <point x="128" y="326"/>
      <point x="165" y="326" type="curve" smooth="yes"/>
      <point x="221" y="326" type="line" smooth="yes"/>
      <point x="261" y="326"/>
      <point x="272" y="318"/>
      <point x="272" y="291" type="curve" smooth="yes"/>
      <point x="272" y="261" type="line" smooth="yes"/>
      <point x="272" y="229"/>
      <point x="263" y="225"/>
      <point x="221" y="225" type="curve" smooth="yes"/>
    </contour>
  </outline>
</glyph>
<glyph name="dieresis" format="2">
  <advance width="288"/>
  <unicode hex="00A8"/>
  <note>
GF Latin Plus glyph
</note>
  <outline>
    <contour>
      <point x="194" y="459" type="curve" smooth="yes"/>
      <point x="235" y="459" type="line" smooth="yes"/>
      <point x="243" y="459"/>
      <point x="248" y="463"/>
      <point x="248" y="472" type="curve" smooth="yes"/>
      <point x="248" y="537" type="line" smooth="yes"/>
      <point x="248" y="545"/>
      <point x="243" y="551"/>
      <point x="235" y="551" type="curve" smooth="yes"/>
      <point x="194" y="551" type="line" smooth="yes"/>
      <point x="184" y="551"/>
      <point x="180" y="546"/>
      <point x="180" y="537" type="curve" smooth="yes"/>
      <point x="180" y="472" type="line" smooth="yes"/>
      <point x="180" y="464"/>
      <point x="186" y="459"/>
    </contour>
    <contour>
      <point x="54" y="459" type="curve" smooth="yes"/>
      <point x="95" y="459" type="line" smooth="yes"/>
      <point x="103" y="459"/>
      <point x="108" y="463"/>
      <point x="108" y="472" type="curve" smooth="yes"/>
      <point x="108" y="537" type="line" smooth="yes"/>
      <point x="108" y="545"/>
      <point x="103" y="551"/>
      <point x="95" y="551" type="curve" smooth="yes"/>
      <point x="54" y="551" type="line" smooth="yes"/>
      <point x="45" y="551"/>
      <point x="40" y="546"/>
      <point x="40" y="537" type="curve" smooth="yes"/>
      <point x="40" y="472" type="line" smooth="yes"/>
      <point x="40" y="464"/>
      <point x="46" y="459"/>
    </contour>
  </outline>
</glyph>
<glyph name="copyright" format="2">
  <advance width="586"/>
  <unicode hex="00A9"/>
  <note>
GF Latin Plus glyph
</note>
  <outline>
    <contour>
      <point x="222" y="0" type="curve" smooth="yes"/>
      <point x="381" y="0" type="line" smooth="yes"/>
      <point x="489" y="0"/>
      <point x="552" y="97"/>
      <point x="552" y="262" type="curve" smooth="yes"/>
      <point x="552" y="389"/>
      <point x="524" y="522"/>
      <point x="381" y="522" type="curve" smooth="yes"/>
      <point x="222" y="522" type="line" smooth="yes"/>
      <point x="69" y="522"/>
      <point x="34" y="392"/>
      <point x="34" y="262" type="curve" smooth="yes"/>
      <point x="34" y="130"/>
      <point x="86" y="0"/>
    </contour>
    <contour>
      <point x="273" y="105" type="curve" smooth="yes"/>
      <point x="319" y="105"/>
      <point x="360" y="106"/>
      <point x="400" y="122" type="curve"/>
      <point x="400" y="164" type="line"/>
      <point x="371" y="158"/>
      <point x="332" y="152"/>
      <point x="288" y="152" type="curve" smooth="yes"/>
      <point x="235" y="152"/>
      <point x="214" y="185"/>
      <point x="214" y="258" type="curve" smooth="yes"/>
      <point x="214" y="342"/>
      <point x="238" y="368"/>
      <point x="290" y="368" type="curve" smooth="yes"/>
      <point x="312" y="368"/>
      <point x="354" y="366"/>
      <point x="396" y="360" type="curve"/>
      <point x="396" y="401" type="line"/>
      <point x="357" y="412"/>
      <point x="301" y="416"/>
      <point x="273" y="416" type="curve" smooth="yes"/>
      <point x="206" y="416"/>
      <point x="162" y="375"/>
      <point x="162" y="260" type="curve" smooth="yes"/>
      <point x="162" y="134"/>
      <point x="214" y="105"/>
    </contour>
    <contour>
      <point x="222" y="47" type="line" smooth="yes"/>
      <point x="128" y="47"/>
      <point x="86" y="149"/>
      <point x="86" y="262" type="curve" smooth="yes"/>
      <point x="87" y="432"/>
      <point x="152" y="475"/>
      <point x="222" y="475" type="curve" smooth="yes"/>
      <point x="381" y="475" type="line" smooth="yes"/>
      <point x="480" y="475"/>
      <point x="500" y="369"/>
      <point x="500" y="262" type="curve" smooth="yes"/>
      <point x="500" y="109"/>
      <point x="448" y="47"/>
      <point x="377" y="47" type="curve" smooth="yes"/>
    </contour>
  </outline>
</glyph>
<glyph name="ordfeminine" format="2">
  <advance width="292"/>
  <unicode hex="00AA"/>
  <note>
GF Latin Plus glyph
</note>
  <outline>
    <component base="a.superior" yOffset="57"/>
    <contour>
      <point x="20" y="183" type="line"/>
      <point x="268" y="183" type="line"/>
      <point x="268" y="226" type="line"/>
      <point x="20" y="226" type="line"/>
    </contour>
  </outline>
</glyph>
<glyph name="logicalnot" format="2">
  <advance width="435"/>
  <unicode hex="00AC"/>
  <note>
GF Latin Plus glyph
</note>
  <outline>
    <component base="minus" yOffset="85"/>
    <contour>
      <point x="305" y="132" type="line"/>
      <point x="377" y="132" type="line"/>
      <point x="377" y="333" type="line"/>
      <point x="305" y="333" type="line"/>
    </contour>
  </outline>
</glyph>
<glyph name="registered" format="2">
  <advance width="586"/>
  <unicode hex="00AE"/>
  <note>
GF Latin Plus glyph
</note>
  <outline>
    <contour>
      <point x="222" y="0" type="curve" smooth="yes"/>
      <point x="381" y="0" type="line" smooth="yes"/>
      <point x="489" y="0"/>
      <point x="552" y="97"/>
      <point x="552" y="262" type="curve" smooth="yes"/>
      <point x="552" y="389"/>
      <point x="524" y="522"/>
      <point x="381" y="522" type="curve" smooth="yes"/>
      <point x="222" y="522" type="line" smooth="yes"/>
      <point x="69" y="522"/>
      <point x="34" y="392"/>
      <point x="34" y="262" type="curve" smooth="yes"/>
      <point x="34" y="130"/>
      <point x="86" y="0"/>
    </contour>
    <contour>
      <point x="222" y="47" type="line" smooth="yes"/>
      <point x="128" y="47"/>
      <point x="86" y="149"/>
      <point x="86" y="262" type="curve" smooth="yes"/>
      <point x="87" y="432"/>
      <point x="152" y="475"/>
      <point x="222" y="475" type="curve" smooth="yes"/>
      <point x="381" y="475" type="line" smooth="yes"/>
      <point x="480" y="475"/>
      <point x="500" y="369"/>
      <point x="500" y="262" type="curve" smooth="yes"/>
      <point x="500" y="109"/>
      <point x="448" y="47"/>
      <point x="377" y="47" type="curve" smooth="yes"/>
    </contour>
    <contour>
      <point x="183" y="109" type="line"/>
      <point x="235" y="109" type="line"/>
      <point x="235" y="235" type="line"/>
      <point x="297" y="233" type="line"/>
      <point x="362" y="109" type="line"/>
      <point x="415" y="109" type="line"/>
      <point x="347" y="232" type="line"/>
      <point x="375" y="240"/>
      <point x="406" y="253"/>
      <point x="406" y="319" type="curve" smooth="yes"/>
      <point x="406" y="397"/>
      <point x="361" y="414"/>
      <point x="314" y="414" type="curve" smooth="yes"/>
      <point x="183" y="414" type="line"/>
    </contour>
    <contour>
      <point x="235" y="273" type="line"/>
      <point x="235" y="366" type="line"/>
      <point x="314" y="366" type="line" smooth="yes"/>
      <point x="338" y="366"/>
      <point x="354" y="355"/>
      <point x="354" y="318" type="curve" smooth="yes"/>
      <point x="354" y="279"/>
      <point x="340" y="273"/>
      <point x="314" y="273" type="curve" smooth="yes"/>
    </contour>
  </outline>
</glyph>
<glyph name="macron" format="2">
  <advance width="260"/>
  <unicode hex="00AF"/>
  <note>
GF Latin Plus glyph
</note>
  <outline>
    <contour>
      <point x="31" y="468" type="line"/>
      <point x="228" y="468" type="line"/>
      <point x="228" y="520" type="line"/>
      <point x="31" y="520" type="line"/>
    </contour>
  </outline>
</glyph>
<glyph name="degree" format="2">
  <advance width="230"/>
  <unicode hex="00B0"/>
  <note>
GF Latin Plus glyph
</note>
  <outline>
    <contour>
      <point x="115" y="347" type="curve" smooth="yes"/>
      <point x="173" y="347"/>
      <point x="214" y="388"/>
      <point x="214" y="447" type="curve" smooth="yes"/>
      <point x="214" y="506"/>
      <point x="173" y="547"/>
      <point x="115" y="547" type="curve" smooth="yes"/>
      <point x="58" y="547"/>
      <point x="15" y="506"/>
      <point x="15" y="447" type="curve" smooth="yes"/>
      <point x="15" y="388"/>
      <point x="58" y="347"/>
    </contour>
    <contour>
      <point x="115" y="388" type="curve" smooth="yes"/>
      <point x="81" y="388"/>
      <point x="56" y="412"/>
      <point x="56" y="447" type="curve" smooth="yes"/>
      <point x="56" y="482"/>
      <point x="80" y="507"/>
      <point x="115" y="507" type="curve" smooth="yes"/>
      <point x="150" y="507"/>
      <point x="173" y="482"/>
      <point x="173" y="447" type="curve" smooth="yes"/>
      <point x="173" y="412"/>
      <point x="149" y="388"/>
    </contour>
  </outline>
</glyph>
<glyph name="twosuperior" format="2">
  <advance width="323"/>
  <unicode hex="00B2"/>
  <note>
GF Latin Plus glyph
</note>
  <outline>
    <contour>
      <point x="31" y="200" type="line"/>
      <point x="296" y="200" type="line"/>
      <point x="296" y="268" type="line"/>
      <point x="135" y="268" type="line"/>
      <point x="217" y="350" type="line" smooth="yes"/>
      <point x="265" y="400"/>
      <point x="284" y="431"/>
      <point x="284" y="484" type="curve" smooth="yes"/>
      <point x="284" y="549"/>
      <point x="255" y="588"/>
      <point x="163" y="588" type="curve" smooth="yes"/>
      <point x="114" y="588"/>
      <point x="74" y="581"/>
      <point x="41" y="576" type="curve"/>
      <point x="41" y="517" type="line"/>
      <point x="147" y="517" type="line" smooth="yes"/>
      <point x="191" y="517"/>
      <point x="205" y="499"/>
      <point x="205" y="473" type="curve" smooth="yes"/>
      <point x="205" y="443"/>
      <point x="190" y="416"/>
      <point x="158" y="385" type="curve" smooth="yes"/>
      <point x="31" y="257" type="line"/>
    </contour>
  </outline>
</glyph>
<glyph name="threesuperior" format="2">
  <advance width="323"/>
  <unicode hex="00B3"/>
  <note>
GF Latin Plus glyph
</note>
  <outline>
    <contour>
      <point x="170" y="197" type="curve" smooth="yes"/>
      <point x="242" y="197"/>
      <point x="286" y="232"/>
      <point x="286" y="295" type="curve" smooth="yes"/>
      <point x="286" y="315" type="line" smooth="yes"/>
      <point x="286" y="359"/>
      <point x="261" y="385"/>
      <point x="231" y="394" type="curve"/>
      <point x="259" y="402"/>
      <point x="281" y="424"/>
      <point x="281" y="464" type="curve" smooth="yes"/>
      <point x="281" y="493" type="line" smooth="yes"/>
      <point x="281" y="555"/>
      <point x="240" y="588"/>
      <point x="172" y="588" type="curve" smooth="yes"/>
      <point x="119" y="589"/>
      <point x="76" y="584"/>
      <point x="36" y="577" type="curve"/>
      <point x="36" y="517" type="line"/>
      <point x="142" y="517" type="line" smooth="yes"/>
      <point x="186" y="517"/>
      <point x="204" y="504"/>
      <point x="204" y="477" type="curve" smooth="yes"/>
      <point x="204" y="461" type="line" smooth="yes"/>
      <point x="204" y="437"/>
      <point x="185" y="429"/>
      <point x="153" y="427" type="curve" smooth="yes"/>
      <point x="63" y="422" type="line"/>
      <point x="63" y="365" type="line"/>
      <point x="156" y="361" type="line" smooth="yes"/>
      <point x="185" y="359"/>
      <point x="209" y="350"/>
      <point x="209" y="321" type="curve" smooth="yes"/>
      <point x="209" y="306" type="line" smooth="yes"/>
      <point x="209" y="277"/>
      <point x="187" y="267"/>
      <point x="145" y="267" type="curve" smooth="yes"/>
      <point x="28" y="267" type="line"/>
      <point x="28" y="207" type="line"/>
      <point x="68" y="201"/>
      <point x="115" y="197"/>
    </contour>
  </outline>
</glyph>
<glyph name="acute" format="2">
  <advance width="161"/>
  <unicode hex="00B4"/>
  <note>
GF Latin Plus glyph
</note>
  <outline>
    <contour>
      <point x="12" y="450" type="line"/>
      <point x="64" y="450" type="line"/>
      <point x="149" y="549" type="line"/>
      <point x="76" y="549" type="line"/>
    </contour>
  </outline>
</glyph>
<glyph name="paragraph" format="2">
  <advance width="409"/>
  <unicode hex="00B6"/>
  <note>
GF Latin Plus glyph
</note>
  <outline>
    <contour>
      <point x="183" y="-192" type="line"/>
      <point x="243" y="-192" type="line"/>
      <point x="243" y="468" type="line"/>
      <point x="299" y="468" type="line"/>
      <point x="299" y="0" type="line"/>
      <point x="358" y="0" type="line"/>
      <point x="358" y="466" type="line"/>
      <point x="405" y="466" type="line"/>
      <point x="405" y="527" type="line"/>
      <point x="136" y="527" type="line" smooth="yes"/>
      <point x="72" y="527"/>
      <point x="22" y="495"/>
      <point x="22" y="427" type="curve" smooth="yes"/>
      <point x="22" y="325" type="line" smooth="yes"/>
      <point x="22" y="267"/>
      <point x="56" y="219"/>
      <point x="130" y="219" type="curve"/>
      <point x="158" y="218"/>
      <point x="176" y="224"/>
      <point x="183" y="229" type="curve"/>
    </contour>
    <contour>
      <point x="140" y="278" type="line" smooth="yes"/>
      <point x="120" y="278"/>
      <point x="81" y="283"/>
      <point x="81" y="334" type="curve" smooth="yes"/>
      <point x="81" y="412" type="line" smooth="yes"/>
      <point x="81" y="449"/>
      <point x="97" y="468"/>
      <point x="140" y="468" type="curve" smooth="yes"/>
      <point x="183" y="468" type="line"/>
      <point x="183" y="278" type="line"/>
    </contour>
  </outline>
</glyph>
<glyph name="periodcentered" format="2">
  <advance width="185"/>
  <unicode hex="00B7"/>
  <note>
GF Latin Plus glyph
</note>
  <outline>
    <contour>
      <point x="67" y="218" type="curve" smooth="yes"/>
      <point x="118" y="218" type="line" smooth="yes"/>
      <point x="126" y="218"/>
      <point x="132" y="221"/>
      <point x="132" y="231" type="curve" smooth="yes"/>
      <point x="132" y="284" type="line" smooth="yes"/>
      <point x="132" y="293"/>
      <point x="128" y="298"/>
      <point x="118" y="298" type="curve" smooth="yes"/>
      <point x="67" y="298" type="line" smooth="yes"/>
      <point x="58" y="298"/>
      <point x="54" y="292"/>
      <point x="54" y="284" type="curve" smooth="yes"/>
      <point x="54" y="231" type="line" smooth="yes"/>
      <point x="54" y="223"/>
      <point x="59" y="218"/>
    </contour>
  </outline>
</glyph>
<glyph name="cedilla" format="2">
  <advance width="178"/>
  <unicode hex="00B8"/>
  <note>
GF Latin Plus glyph
</note>
  <outline>
    <contour>
      <point x="31" y="-139" type="line"/>
      <point x="62" y="-139" type="line" smooth="yes"/>
      <point x="111" y="-139"/>
      <point x="135" y="-118"/>
      <point x="135" y="-84" type="curve" smooth="yes"/>
      <point x="135" y="-51"/>
      <point x="112" y="-36"/>
      <point x="76" y="-36" type="curve"/>
      <point x="41" y="-46" type="line"/>
      <point x="71" y="-48"/>
      <point x="78" y="-60"/>
      <point x="78" y="-73" type="curve" smooth="yes"/>
      <point x="78" y="-89"/>
      <point x="68" y="-98"/>
      <point x="45" y="-101" type="curve" smooth="yes"/>
      <point x="31" y="-103" type="line"/>
    </contour>
    <contour>
      <point x="41" y="-46" type="line"/>
      <point x="81" y="-46" type="line"/>
      <point x="117" y="11" type="line"/>
      <point x="77" y="11" type="line"/>
    </contour>
  </outline>
</glyph>
<glyph name="onesuperior" format="2">
  <advance width="323"/>
  <unicode hex="00B9"/>
  <note>
GF Latin Plus glyph
</note>
  <outline>
    <contour>
      <point x="129" y="200" type="line"/>
      <point x="207" y="200" type="line"/>
      <point x="207" y="589" type="line"/>
      <point x="137" y="589" type="line"/>
      <point x="48" y="558" type="line"/>
      <point x="48" y="503" type="line"/>
      <point x="129" y="516" type="line"/>
    </contour>
    <contour>
      <point x="42" y="200" type="line"/>
      <point x="293" y="200" type="line"/>
      <point x="293" y="267" type="line"/>
      <point x="42" y="267" type="line"/>
    </contour>
  </outline>
</glyph>
<glyph name="ordmasculine" format="2">
  <advance width="306"/>
  <unicode hex="00BA"/>
  <note>
GF Latin Plus glyph
</note>
  <outline>
    <component base="o.superior" yOffset="57"/>
    <contour>
      <point x="28" y="183" type="line"/>
      <point x="278" y="183" type="line"/>
      <point x="278" y="226" type="line"/>
      <point x="28" y="226" type="line"/>
    </contour>
  </outline>
</glyph>
<glyph name="AE" format="2">
  <advance width="696"/>
  <unicode hex="00C6"/>
  <note>
GF Latin Plus glyph
</note>
  <outline>
    <contour>
      <point x="460" y="-3" type="curve" smooth="yes"/>
      <point x="536" y="-2"/>
      <point x="600" y="1"/>
      <point x="661" y="6" type="curve"/>
      <point x="661" y="79" type="line"/>
      <point x="477" y="79" type="line" smooth="yes"/>
      <point x="442" y="79"/>
      <point x="418" y="88"/>
      <point x="418" y="131" type="curve" smooth="yes"/>
      <point x="418" y="222" type="line"/>
      <point x="628" y="227" type="line"/>
      <point x="628" y="297" type="line"/>
      <point x="418" y="302" type="line"/>
      <point x="418" y="403" type="line" smooth="yes"/>
      <point x="418" y="431"/>
      <point x="429" y="445"/>
      <point x="464" y="445" type="curve" smooth="yes"/>
      <point x="661" y="445" type="line"/>
      <point x="661" y="518" type="line"/>
      <point x="606" y="522"/>
      <point x="529" y="526"/>
      <point x="449" y="527" type="curve" smooth="yes"/>
      <point x="349" y="528"/>
      <point x="293" y="495"/>
      <point x="245" y="405" type="curve" smooth="yes"/>
      <point x="16" y="0" type="line"/>
      <point x="103" y="0" type="line"/>
      <point x="178" y="124" type="line"/>
      <point x="338" y="124" type="line"/>
      <point x="338" y="82" type="line" smooth="yes"/>
      <point x="343" y="16"/>
      <point x="385" y="-3"/>
    </contour>
    <contour>
      <point x="217" y="199" type="line"/>
      <point x="338" y="414" type="line"/>
      <point x="338" y="199" type="line"/>
    </contour>
  </outline>
</glyph>
<glyph name="Eth" format="2">
  <advance width="483"/>
  <unicode hex="00D0"/>
  <note>
GF Latin Plus glyph
</note>
  <outline>
    <component base="D"/>
    <contour>
      <point x="9" y="236" type="line"/>
      <point x="234" y="236" type="line"/>
      <point x="234" y="295" type="line"/>
      <point x="9" y="295" type="line"/>
    </contour>
  </outline>
</glyph>
<glyph name="multiply" format="2">
  <advance width="435"/>
  <unicode hex="00D7"/>
  <note>
GF Latin Plus glyph
</note>
  <outline>
    <contour>
      <point x="304" y="115" type="line"/>
      <point x="78" y="342" type="line"/>
      <point x="129" y="392" type="line"/>
      <point x="355" y="166" type="line"/>
    </contour>
    <contour>
      <point x="129" y="115" type="line"/>
      <point x="355" y="342" type="line"/>
      <point x="304" y="392" type="line"/>
      <point x="78" y="166" type="line"/>
    </contour>
  </outline>
</glyph>
<glyph name="Oslash" format="2">
  <advance width="496"/>
  <unicode hex="00D8"/>
  <note>
GF Latin Plus glyph
</note>
  <outline>
    <component base="O"/>
    <contour>
      <point x="43" y="0" type="line"/>
      <point x="103" y="0" type="line"/>
      <point x="452" y="527" type="line"/>
      <point x="392" y="527" type="line"/>
    </contour>
  </outline>
</glyph>
<glyph name="Thorn" format="2">
  <advance width="412"/>
  <unicode hex="00DE"/>
  <note>
GF Latin Plus glyph
</note>
  <outline>
    <contour>
      <point x="49" y="0" type="line"/>
      <point x="137" y="0" type="line"/>
      <point x="137" y="110" type="line"/>
      <point x="158" y="107"/>
      <point x="215" y="100"/>
      <point x="241" y="100" type="curve" smooth="yes"/>
      <point x="304" y="100"/>
      <point x="386" y="123"/>
      <point x="386" y="271" type="curve" smooth="yes"/>
      <point x="386" y="417"/>
      <point x="305" y="438"/>
      <point x="239" y="438" type="curve" smooth="yes"/>
      <point x="137" y="438" type="line"/>
      <point x="137" y="527" type="line"/>
      <point x="49" y="527" type="line"/>
    </contour>
    <contour>
      <point x="137" y="179" type="line"/>
      <point x="137" y="358" type="line"/>
      <point x="231" y="358" type="line" smooth="yes"/>
      <point x="269" y="358"/>
      <point x="297" y="337"/>
      <point x="297" y="270" type="curve" smooth="yes"/>
      <point x="297" y="202"/>
      <point x="270" y="179"/>
      <point x="228" y="179" type="curve" smooth="yes"/>
    </contour>
  </outline>
</glyph>
<glyph name="germandbls" format="2">
  <advance width="426"/>
  <unicode hex="00DF"/>
  <note>
GF Latin Plus glyph
</note>
  <outline>
    <contour>
      <point x="285" y="-4" type="curve" smooth="yes"/>
      <point x="342" y="-4"/>
      <point x="412" y="22"/>
      <point x="412" y="102" type="curve" smooth="yes"/>
      <point x="412" y="123" type="line" smooth="yes"/>
      <point x="412" y="216"/>
      <point x="292" y="208"/>
      <point x="292" y="257" type="curve" smooth="yes"/>
      <point x="292" y="302"/>
      <point x="378" y="332"/>
      <point x="378" y="416" type="curve" smooth="yes"/>
      <point x="378" y="490"/>
      <point x="332" y="547"/>
      <point x="213" y="547" type="curve" smooth="yes"/>
      <point x="91" y="547"/>
      <point x="38" y="476"/>
      <point x="38" y="385" type="curve" smooth="yes"/>
      <point x="38" y="0" type="line"/>
      <point x="126" y="0" type="line"/>
      <point x="126" y="376" type="line" smooth="yes"/>
      <point x="126" y="443"/>
      <point x="154" y="475"/>
      <point x="213" y="475" type="curve" smooth="yes"/>
      <point x="265" y="475"/>
      <point x="294" y="456"/>
      <point x="294" y="410" type="curve" smooth="yes"/>
      <point x="294" y="349"/>
      <point x="208" y="316"/>
      <point x="208" y="242" type="curve" smooth="yes"/>
      <point x="208" y="155"/>
      <point x="328" y="165"/>
      <point x="328" y="116" type="curve" smooth="yes"/>
      <point x="328" y="104" type="line" smooth="yes"/>
      <point x="328" y="87"/>
      <point x="315" y="62"/>
      <point x="263" y="62" type="curve" smooth="yes"/>
      <point x="231" y="62"/>
      <point x="198" y="63"/>
      <point x="175" y="65" type="curve"/>
      <point x="175" y="6" type="line"/>
      <point x="198" y="0"/>
      <point x="241" y="-4"/>
    </contour>
  </outline>
</glyph>
<glyph name="ae" format="2">
  <advance width="615"/>
  <unicode hex="00E6"/>
  <note>
GF Latin Plus glyph
</note>
  <anchor x="308" y="464" name="top"/>
  <outline>
    <contour>
      <point x="128" y="-4" type="curve" smooth="yes"/>
      <point x="196" y="-4"/>
      <point x="254" y="29"/>
      <point x="286" y="64" type="curve"/>
      <point x="307" y="27"/>
      <point x="351" y="-4"/>
      <point x="417" y="-4" type="curve" smooth="yes"/>
      <point x="467" y="-4"/>
      <point x="520" y="-1"/>
      <point x="566" y="10" type="curve"/>
      <point x="566" y="62" type="line"/>
      <point x="459" y="62" type="line" smooth="yes"/>
      <point x="392" y="62"/>
      <point x="348" y="78"/>
      <point x="347" y="164" type="curve"/>
      <point x="454" y="164" type="line" smooth="yes"/>
      <point x="534" y="164"/>
      <point x="578" y="185"/>
      <point x="578" y="255" type="curve" smooth="yes"/>
      <point x="578" y="359"/>
      <point x="532" y="388"/>
      <point x="430" y="388" type="curve" smooth="yes"/>
      <point x="371" y="388"/>
      <point x="331" y="371"/>
      <point x="309" y="336" type="curve"/>
      <point x="288" y="369"/>
      <point x="243" y="388"/>
      <point x="188" y="388" type="curve" smooth="yes"/>
      <point x="131" y="387"/>
      <point x="96" y="381"/>
      <point x="56" y="369" type="curve"/>
      <point x="56" y="318" type="line"/>
      <point x="179" y="318" type="line" smooth="yes"/>
      <point x="241" y="318"/>
      <point x="261" y="296"/>
      <point x="261" y="259" type="curve" smooth="yes"/>
      <point x="261" y="222" type="line"/>
      <point x="151" y="222" type="line" smooth="yes"/>
      <point x="65" y="222"/>
      <point x="28" y="179"/>
      <point x="28" y="122" type="curve" smooth="yes"/>
      <point x="28" y="94" type="line" smooth="yes"/>
      <point x="28" y="40"/>
      <point x="57" y="-4"/>
    </contour>
    <contour>
      <point x="168" y="58" type="curve" smooth="yes"/>
      <point x="141" y="58"/>
      <point x="116" y="69"/>
      <point x="116" y="108" type="curve" smooth="yes"/>
      <point x="116" y="123" type="line" smooth="yes"/>
      <point x="116" y="148"/>
      <point x="131" y="171"/>
      <point x="168" y="172" type="curve" smooth="yes"/>
      <point x="260" y="178" type="line"/>
      <point x="260" y="144"/>
      <point x="265" y="116"/>
      <point x="268" y="102" type="curve"/>
      <point x="241" y="75"/>
      <point x="204" y="58"/>
    </contour>
    <contour>
      <point x="347" y="220" type="line"/>
      <point x="348" y="299"/>
      <point x="363" y="321"/>
      <point x="423" y="321" type="curve" smooth="yes"/>
      <point x="476" y="321"/>
      <point x="498" y="305"/>
      <point x="498" y="257" type="curve" smooth="yes"/>
      <point x="498" y="229"/>
      <point x="482" y="220"/>
      <point x="452" y="220" type="curve" smooth="yes"/>
    </contour>
  </outline>
</glyph>
<glyph name="eth" format="2">
  <advance width="411"/>
  <unicode hex="00F0"/>
  <note>
GF Latin Plus glyph
</note>
  <outline>
    <contour>
      <point x="205" y="-3" type="curve" smooth="yes"/>
      <point x="328" y="-3"/>
      <point x="377" y="37"/>
      <point x="377" y="192" type="curve" smooth="yes"/>
      <point x="377" y="251"/>
      <point x="342" y="280"/>
      <point x="316" y="315" type="curve" smooth="yes"/>
      <point x="298" y="360"/>
      <point x="255" y="378"/>
      <point x="193" y="378" type="curve" smooth="yes"/>
      <point x="92" y="378"/>
      <point x="33" y="343"/>
      <point x="33" y="187" type="curve" smooth="yes"/>
      <point x="33" y="39"/>
      <point x="83" y="-3"/>
    </contour>
    <contour>
      <point x="205" y="67" type="curve" smooth="yes"/>
      <point x="148" y="67"/>
      <point x="121" y="79"/>
      <point x="121" y="188" type="curve" smooth="yes"/>
      <point x="121" y="296"/>
      <point x="148" y="308"/>
      <point x="205" y="308" type="curve" smooth="yes"/>
      <point x="262" y="308"/>
      <point x="289" y="296"/>
      <point x="289" y="188" type="curve" smooth="yes"/>
      <point x="289" y="79"/>
      <point x="262" y="67"/>
    </contour>
    <contour>
      <point x="377" y="191" type="line"/>
      <point x="377" y="455"/>
      <point x="293" y="539"/>
      <point x="96" y="546" type="curve"/>
      <point x="96" y="493" type="line"/>
      <point x="233" y="485"/>
      <point x="298" y="425"/>
      <point x="298" y="222" type="curve"/>
    </contour>
    <contour>
      <point x="118" y="403" type="line"/>
      <point x="374" y="501" type="line"/>
      <point x="362" y="531" type="line"/>
      <point x="107" y="432" type="line"/>
    </contour>
  </outline>
</glyph>
<glyph name="divide" format="2">
  <advance width="435"/>
  <unicode hex="00F7"/>
  <note>
GF Latin Plus glyph
</note>
  <outline>
    <component base="minus"/>
    <contour>
      <point x="191" y="358" type="curve" smooth="yes"/>
      <point x="242" y="358" type="line" smooth="yes"/>
      <point x="252" y="358"/>
      <point x="260" y="361"/>
      <point x="260" y="374" type="curve" smooth="yes"/>
      <point x="260" y="423" type="line" smooth="yes"/>
      <point x="260" y="434"/>
      <point x="255" y="440"/>
      <point x="242" y="440" type="curve" smooth="yes"/>
      <point x="191" y="440" type="line" smooth="yes"/>
      <point x="180" y="440"/>
      <point x="174" y="433"/>
      <point x="174" y="423" type="curve" smooth="yes"/>
      <point x="174" y="374" type="line" smooth="yes"/>
      <point x="174" y="364"/>
      <point x="181" y="358"/>
    </contour>
    <contour>
      <point x="191" y="67" type="curve" smooth="yes"/>
      <point x="242" y="67" type="line" smooth="yes"/>
      <point x="252" y="67"/>
      <point x="260" y="71"/>
      <point x="260" y="84" type="curve" smooth="yes"/>
      <point x="260" y="132" type="line" smooth="yes"/>
      <point x="260" y="144"/>
      <point x="255" y="150"/>
      <point x="242" y="150" type="curve" smooth="yes"/>
      <point x="191" y="150" type="line" smooth="yes"/>
      <point x="180" y="150"/>
      <point x="174" y="143"/>
      <point x="174" y="132" type="curve" smooth="yes"/>
      <point x="174" y="84" type="line" smooth="yes"/>
      <point x="174" y="74"/>
      <point x="181" y="67"/>
    </contour>
  </outline>
</glyph>
<glyph name="oslash" format="2">
  <advance width="411"/>
  <unicode hex="00F8"/>
  <note>
GF Latin Plus glyph
</note>
  <anchor x="205" y="464" name="top"/>
  <outline>
    <component base="o"/>
    <contour>
      <point x="26" y="0" type="line"/>
      <point x="68" y="0" type="line"/>
      <point x="385" y="382" type="line"/>
      <point x="342" y="382" type="line"/>
    </contour>
  </outline>
</glyph>
<glyph name="thorn" format="2">
  <advance width="416"/>
  <unicode hex="00FE"/>
  <note>
GF Latin Plus glyph
</note>
  <outline>
    <contour>
      <point x="45" y="-169" type="line"/>
      <point x="133" y="-169" type="line"/>
      <point x="133" y="23" type="line"/>
      <point x="166" y="5"/>
      <point x="208" y="-5"/>
      <point x="246" y="-5" type="curve" smooth="yes"/>
      <point x="343" y="-5"/>
      <point x="382" y="66"/>
      <point x="382" y="191" type="curve" smooth="yes"/>
      <point x="382" y="307"/>
      <point x="339" y="388"/>
      <point x="246" y="388" type="curve" smooth="yes"/>
      <point x="201" y="388"/>
      <point x="160" y="365"/>
      <point x="133" y="345" type="curve"/>
      <point x="133" y="545" type="line"/>
      <point x="45" y="545" type="line"/>
    </contour>
    <contour>
      <point x="218" y="68" type="curve" smooth="yes"/>
      <point x="188" y="68"/>
      <point x="157" y="77"/>
      <point x="133" y="91" type="curve"/>
      <point x="133" y="291" type="line"/>
      <point x="154" y="303"/>
      <point x="184" y="316"/>
      <point x="219" y="316" type="curve" smooth="yes"/>
      <point x="260" y="316"/>
      <point x="294" y="284"/>
      <point x="294" y="187" type="curve" smooth="yes"/>
      <point x="294" y="93"/>
      <point x="259" y="68"/>
    </contour>
  </outline>
</glyph>
<glyph name="dotlessi" format="2">
  <advance width="177"/>
  <unicode hex="0131"/>
  <note>
GF Latin Plus glyph
</note>
  <anchor x="89" y="-107" name="bottom"/>
  <anchor x="89" y="464" name="top"/>
  <outline>
    <contour>
      <point x="45" y="0" type="line"/>
      <point x="133" y="0" type="line"/>
      <point x="133" y="382" type="line"/>
      <point x="45" y="382" type="line"/>
    </contour>
  </outline>
</glyph>
<glyph name="oe" format="2">
  <advance width="637"/>
  <unicode hex="0153"/>
  <note>
GF Latin Plus glyph
</note>
  <outline>
    <contour>
      <point x="204" y="-3" type="curve" smooth="yes"/>
      <point x="317" y="-3"/>
      <point x="364" y="37"/>
      <point x="364" y="192" type="curve" smooth="yes"/>
      <point x="364" y="347"/>
      <point x="316" y="388"/>
      <point x="205" y="388" type="curve" smooth="yes"/>
      <point x="85" y="388"/>
      <point x="33" y="350"/>
      <point x="33" y="192" type="curve" smooth="yes"/>
      <point x="33" y="40"/>
      <point x="83" y="-3"/>
    </contour>
    <contour>
      <point x="205" y="63" type="curve" smooth="yes"/>
      <point x="148" y="63"/>
      <point x="121" y="76"/>
      <point x="121" y="192" type="curve" smooth="yes"/>
      <point x="121" y="308"/>
      <point x="148" y="321"/>
      <point x="205" y="321" type="curve" smooth="yes"/>
      <point x="262" y="321"/>
      <point x="289" y="308"/>
      <point x="289" y="192" type="curve" smooth="yes"/>
      <point x="289" y="76"/>
      <point x="262" y="63"/>
    </contour>
    <contour>
      <point x="447" y="-3" type="curve" smooth="yes"/>
      <point x="505" y="-3"/>
      <point x="551" y="2"/>
      <point x="592" y="10" type="curve"/>
      <point x="592" y="62" type="line"/>
      <point x="472" y="62" type="line" smooth="yes"/>
      <point x="402" y="62"/>
      <point x="374" y="89"/>
      <point x="373" y="159" type="curve"/>
      <point x="494" y="159" type="line" smooth="yes"/>
      <point x="556" y="159"/>
      <point x="603" y="186"/>
      <point x="603" y="249" type="curve" smooth="yes"/>
      <point x="603" y="362"/>
      <point x="556" y="388"/>
      <point x="448" y="388" type="curve" smooth="yes"/>
      <point x="337" y="388"/>
      <point x="299" y="328"/>
      <point x="299" y="191" type="curve" smooth="yes"/>
      <point x="299" y="52"/>
      <point x="345" y="-3"/>
    </contour>
    <contour>
      <point x="372" y="213" type="line"/>
      <point x="372" y="291"/>
      <point x="390" y="323"/>
      <point x="448" y="323" type="curve" smooth="yes"/>
      <point x="501" y="323"/>
      <point x="525" y="310"/>
      <point x="525" y="258" type="curve" smooth="yes"/>
      <point x="525" y="223"/>
      <point x="507" y="213"/>
      <point x="477" y="213" type="curve" smooth="yes"/>
    </contour>
  </outline>
</glyph>
<glyph name="florin" format="2">
  <advance width="435"/>
  <unicode hex="0192"/>
  <note>
GF Latin Plus glyph
</note>
  <outline>
    <contour>
      <point x="86" y="-145" type="curve" smooth="yes"/>
      <point x="173" y="-145"/>
      <point x="210" y="-78"/>
      <point x="233" y="62" type="curve" smooth="yes"/>
      <point x="269" y="274" type="line"/>
      <point x="349" y="274" type="line"/>
      <point x="359" y="337" type="line"/>
      <point x="276" y="337" type="line"/>
      <point x="289" y="406" type="line" smooth="yes"/>
      <point x="301" y="473"/>
      <point x="316" y="503"/>
      <point x="366" y="503" type="curve" smooth="yes"/>
      <point x="405" y="503" type="line"/>
      <point x="413" y="558" type="line"/>
      <point x="403" y="562"/>
      <point x="380" y="570"/>
      <point x="336" y="570" type="curve" smooth="yes"/>
      <point x="254" y="570"/>
      <point x="221" y="517"/>
      <point x="205" y="429" type="curve" smooth="yes"/>
      <point x="188" y="337" type="line"/>
      <point x="127" y="337" type="line"/>
      <point x="117" y="274" type="line"/>
      <point x="180" y="274" type="line"/>
      <point x="142" y="41" type="line" smooth="yes"/>
      <point x="127" y="-49"/>
      <point x="106" y="-78"/>
      <point x="60" y="-78" type="curve" smooth="yes"/>
      <point x="21" y="-78" type="line"/>
      <point x="12" y="-133" type="line"/>
      <point x="25" y="-139"/>
      <point x="53" y="-145"/>
    </contour>
  </outline>
</glyph>
<glyph name="glottalstopsmall" format="2">
  <advance width="276"/>
  <unicode hex="0242"/>
  <outline>
    <contour>
      <point x="252" y="248" type="curve" smooth="yes"/>
      <point x="252" y="310"/>
      <point x="209" y="352"/>
      <point x="122" y="352" type="curve" smooth="yes"/>
      <point x="59" y="352"/>
      <point x="24" y="316"/>
      <point x="24" y="289" type="curve" smooth="yes"/>
      <point x="24" y="267"/>
      <point x="44" y="254"/>
      <point x="64" y="254" type="curve" smooth="yes"/>
      <point x="66" y="254"/>
      <point x="74" y="255"/>
      <point x="74" y="255" type="curve"/>
      <point x="98" y="317" type="line"/>
      <point x="104" y="322"/>
      <point x="116" y="322"/>
      <point x="122" y="322" type="curve" smooth="yes"/>
      <point x="161" y="322"/>
      <point x="183" y="293"/>
      <point x="183" y="248" type="curve" smooth="yes"/>
      <point x="183" y="196"/>
      <point x="148" y="169"/>
      <point x="101" y="157" type="curve"/>
      <point x="101" y="41" type="line" smooth="yes"/>
      <point x="101" y="33"/>
      <point x="94" y="29"/>
      <point x="89" y="29" type="curve" smooth="yes"/>
      <point x="53" y="27" type="line"/>
      <point x="53" y="0" type="line"/>
      <point x="215" y="0" type="line"/>
      <point x="215" y="27" type="line"/>
      <point x="179" y="29" type="line" smooth="yes"/>
      <point x="174" y="29"/>
      <point x="167" y="33"/>
      <point x="167" y="41" type="curve" smooth="yes"/>
      <point x="167" y="148" type="line"/>
      <point x="214" y="164"/>
      <point x="252" y="187"/>
    </contour>
  </outline>
</glyph>
<glyph name="glottalstop" format="2">
  <advance width="332"/>
  <unicode hex="0294"/>
  <outline>
    <contour>
      <point x="304" y="363" type="curve" smooth="yes"/>
      <point x="304" y="441"/>
      <point x="240" y="490"/>
      <point x="156" y="490" type="curve" smooth="yes"/>
      <point x="78" y="490"/>
      <point x="27" y="447"/>
      <point x="27" y="413" type="curve" smooth="yes"/>
      <point x="27" y="392"/>
      <point x="36" y="372"/>
      <point x="65" y="372" type="curve" smooth="yes"/>
      <point x="83" y="372"/>
      <point x="97" y="383"/>
      <point x="97" y="383" type="curve"/>
      <point x="116" y="445" type="line"/>
      <point x="129" y="455"/>
      <point x="143" y="458"/>
      <point x="157" y="458" type="curve" smooth="yes"/>
      <point x="196" y="459"/>
      <point x="233" y="419"/>
      <point x="233" y="356" type="curve" smooth="yes"/>
      <point x="233" y="285"/>
      <point x="174" y="239"/>
      <point x="129" y="224" type="curve"/>
      <point x="129" y="45" type="line" smooth="yes"/>
      <point x="129" y="39"/>
      <point x="119" y="32"/>
      <point x="113" y="31" type="curve" smooth="yes"/>
      <point x="77" y="27" type="line"/>
      <point x="77" y="0" type="line"/>
      <point x="248" y="0" type="line"/>
      <point x="248" y="27" type="line"/>
      <point x="211" y="31" type="line" smooth="yes"/>
      <point x="205" y="32"/>
      <point x="195" y="39"/>
      <point x="195" y="45" type="curve" smooth="yes"/>
      <point x="195" y="217" type="line"/>
      <point x="235" y="235"/>
      <point x="304" y="272"/>
    </contour>
  </outline>
</glyph>
<glyph name="glottalstopmod" format="2">
  <advance width="216"/>
  <unicode hex="02C0"/>
  <outline>
    <contour>
      <point x="201" y="487" type="curve" smooth="yes"/>
      <point x="201" y="534"/>
      <point x="156" y="564"/>
      <point x="102" y="564" type="curve" smooth="yes"/>
      <point x="51" y="564"/>
      <point x="14" y="535"/>
      <point x="14" y="514" type="curve" smooth="yes"/>
      <point x="14" y="502"/>
      <point x="20" y="490"/>
      <point x="39" y="490" type="curve" smooth="yes"/>
      <point x="50" y="490"/>
      <point x="59" y="496"/>
      <point x="59" y="496" type="curve"/>
      <point x="72" y="537" type="line"/>
      <point x="80" y="543"/>
      <point x="93" y="545"/>
      <point x="102" y="545" type="curve" smooth="yes"/>
      <point x="127" y="545"/>
      <point x="154" y="521"/>
      <point x="154" y="483" type="curve" smooth="yes"/>
      <point x="154" y="441"/>
      <point x="113" y="417"/>
      <point x="84" y="407" type="curve"/>
      <point x="84" y="300" type="line" smooth="yes"/>
      <point x="84" y="297"/>
      <point x="77" y="292"/>
      <point x="73" y="292" type="curve" smooth="yes"/>
      <point x="49" y="289" type="line"/>
      <point x="49" y="273" type="line"/>
      <point x="161" y="273" type="line"/>
      <point x="161" y="289" type="line"/>
      <point x="137" y="292" type="line" smooth="yes"/>
      <point x="133" y="292"/>
      <point x="127" y="297"/>
      <point x="127" y="300" type="curve" smooth="yes"/>
      <point x="127" y="403" type="line"/>
      <point x="152" y="414"/>
      <point x="201" y="433"/>
    </contour>
  </outline>
</glyph>
<glyph name="circumflex" format="2">
  <advance width="278"/>
  <unicode hex="02C6"/>
  <note>
GF Latin Plus glyph
</note>
  <outline>
    <contour>
      <point x="31" y="450" type="line"/>
      <point x="84" y="450" type="line"/>
      <point x="141" y="510" type="line"/>
      <point x="195" y="450" type="line"/>
      <point x="247" y="450" type="line"/>
      <point x="173" y="550" type="line"/>
      <point x="112" y="550" type="line"/>
    </contour>
  </outline>
</glyph>
<glyph name="caron" format="2">
  <advance width="278"/>
  <unicode hex="02C7"/>
  <note>
GF Latin Plus glyph
</note>
  <outline>
    <contour>
      <point x="105" y="450" type="line"/>
      <point x="166" y="450" type="line"/>
      <point x="247" y="550" type="line"/>
      <point x="194" y="550" type="line"/>
      <point x="137" y="490" type="line"/>
      <point x="83" y="550" type="line"/>
      <point x="31" y="550" type="line"/>
    </contour>
  </outline>
</glyph>
<glyph name="colontriangularmod" format="2">
  <advance width="182"/>
  <unicode hex="02D0"/>
  <outline>
    <contour>
      <point x="151" y="343" type="line"/>
      <point x="30" y="343" type="line"/>
      <point x="66" y="229" type="line"/>
      <point x="115" y="229" type="line"/>
    </contour>
    <contour>
      <point x="151" y="0" type="line"/>
      <point x="115" y="113" type="line"/>
      <point x="66" y="113" type="line"/>
      <point x="30" y="0" type="line"/>
    </contour>
  </outline>
</glyph>
<glyph name="breve" format="2">
  <advance width="252"/>
  <unicode hex="02D8"/>
  <note>
GF Latin Plus glyph
</note>
  <outline>
    <contour>
      <point x="125" y="446" type="curve" smooth="yes"/>
      <point x="184" y="446"/>
      <point x="224" y="476"/>
      <point x="224" y="552" type="curve"/>
      <point x="181" y="552" type="line"/>
      <point x="181" y="503"/>
      <point x="158" y="487"/>
      <point x="125" y="487" type="curve" smooth="yes"/>
      <point x="96" y="486"/>
      <point x="70" y="503"/>
      <point x="70" y="552" type="curve"/>
      <point x="28" y="552" type="line"/>
      <point x="28" y="477"/>
      <point x="68" y="446"/>
    </contour>
  </outline>
</glyph>
<glyph name="dotaccent" format="2">
  <advance width="131"/>
  <unicode hex="02D9"/>
  <note>
GF Latin Plus glyph
</note>
  <outline>
    <contour>
      <point x="43" y="459" type="curve" smooth="yes"/>
      <point x="84" y="459" type="line" smooth="yes"/>
      <point x="92" y="459"/>
      <point x="97" y="463"/>
      <point x="97" y="472" type="curve" smooth="yes"/>
      <point x="97" y="537" type="line" smooth="yes"/>
      <point x="97" y="545"/>
      <point x="93" y="551"/>
      <point x="84" y="551" type="curve" smooth="yes"/>
      <point x="43" y="551" type="line" smooth="yes"/>
      <point x="34" y="551"/>
      <point x="30" y="546"/>
      <point x="30" y="537" type="curve" smooth="yes"/>
      <point x="30" y="472" type="line" smooth="yes"/>
      <point x="30" y="464"/>
      <point x="35" y="459"/>
    </contour>
  </outline>
</glyph>
<glyph name="ring" format="2">
  <advance width="233"/>
  <unicode hex="02DA"/>
  <note>
GF Latin Plus glyph
</note>
  <outline>
    <contour>
      <point x="117" y="420" type="curve" smooth="yes"/>
      <point x="172" y="420"/>
      <point x="201" y="439"/>
      <point x="201" y="499" type="curve" smooth="yes"/>
      <point x="201" y="558"/>
      <point x="172" y="579"/>
      <point x="117" y="579" type="curve" smooth="yes"/>
      <point x="62" y="579"/>
      <point x="31" y="558"/>
      <point x="31" y="499" type="curve" smooth="yes"/>
      <point x="31" y="439"/>
      <point x="62" y="420"/>
    </contour>
    <contour>
      <point x="117" y="453" type="curve" smooth="yes"/>
      <point x="87" y="453"/>
      <point x="73" y="464"/>
      <point x="73" y="499" type="curve" smooth="yes"/>
      <point x="73" y="534"/>
      <point x="87" y="545"/>
      <point x="117" y="545" type="curve" smooth="yes"/>
      <point x="146" y="545"/>
      <point x="160" y="534"/>
      <point x="160" y="499" type="curve" smooth="yes"/>
      <point x="160" y="464"/>
      <point x="146" y="453"/>
    </contour>
  </outline>
</glyph>
<glyph name="ogonek" format="2">
  <advance width="158"/>
  <unicode hex="02DB"/>
  <note>
GF Latin Plus glyph
</note>
  <outline>
    <contour>
      <point x="106" y="-135" type="curve" smooth="yes"/>
      <point x="114" y="-135"/>
      <point x="122" y="-135"/>
      <point x="127" y="-133" type="curve"/>
      <point x="127" y="-91" type="line"/>
      <point x="121" y="-91" type="line" smooth="yes"/>
      <point x="92" y="-91"/>
      <point x="74" y="-76"/>
      <point x="74" y="-51" type="curve" smooth="yes"/>
      <point x="74" y="-31"/>
      <point x="86" y="-15"/>
      <point x="112" y="0" type="curve"/>
      <point x="80" y="0" type="line"/>
      <point x="48" y="-16"/>
      <point x="30" y="-40"/>
      <point x="30" y="-71" type="curve" smooth="yes"/>
      <point x="30" y="-104"/>
      <point x="53" y="-135"/>
    </contour>
  </outline>
</glyph>
<glyph name="tilde" format="2">
  <advance width="308"/>
  <unicode hex="02DC"/>
  <note>
GF Latin Plus glyph
</note>
  <outline>
    <contour>
      <point x="27" y="453" type="curve"/>
      <point x="71" y="453" type="line"/>
      <point x="72" y="478"/>
      <point x="87" y="491"/>
      <point x="106" y="491" type="curve" smooth="yes"/>
      <point x="139" y="491"/>
      <point x="168" y="454"/>
      <point x="213" y="454" type="curve" smooth="yes"/>
      <point x="258" y="454"/>
      <point x="284" y="485"/>
      <point x="286" y="543" type="curve"/>
      <point x="241" y="543" type="line"/>
      <point x="240" y="517"/>
      <point x="227" y="503"/>
      <point x="206" y="503" type="curve" smooth="yes"/>
      <point x="172" y="503"/>
      <point x="147" y="540"/>
      <point x="99" y="540" type="curve" smooth="yes"/>
      <point x="63" y="540"/>
      <point x="30" y="518"/>
    </contour>
  </outline>
</glyph>
<glyph name="hungarumlaut" format="2">
  <advance width="277"/>
  <unicode hex="02DD"/>
  <note>
GF Latin Plus glyph
</note>
  <outline>
    <contour>
      <point x="126" y="450" type="line"/>
      <point x="178" y="450" type="line"/>
      <point x="254" y="549" type="line"/>
      <point x="186" y="549" type="line"/>
    </contour>
    <contour>
      <point x="12" y="450" type="line"/>
      <point x="64" y="450" type="line"/>
      <point x="140" y="549" type="line"/>
      <point x="72" y="549" type="line"/>
    </contour>
  </outline>
</glyph>
<glyph name="dieresiscomb" format="2">
  <unicode hex="0308"/>
  <note>
GF Latin Plus glyph
</note>
  <anchor x="-192" y="464" name="_top"/>
  <outline>
    <contour>
      <point x="-144" y="459" type="curve" smooth="yes"/>
      <point x="-103" y="459" type="line" smooth="yes"/>
      <point x="-95" y="459"/>
      <point x="-90" y="463"/>
      <point x="-90" y="472" type="curve" smooth="yes"/>
      <point x="-90" y="537" type="line" smooth="yes"/>
      <point x="-90" y="545"/>
      <point x="-95" y="551"/>
      <point x="-103" y="551" type="curve" smooth="yes"/>
      <point x="-144" y="551" type="line" smooth="yes"/>
      <point x="-153" y="551"/>
      <point x="-158" y="546"/>
      <point x="-158" y="537" type="curve" smooth="yes"/>
      <point x="-158" y="472" type="line" smooth="yes"/>
      <point x="-158" y="464"/>
      <point x="-152" y="459"/>
    </contour>
    <contour>
      <point x="-284" y="459" type="curve" smooth="yes"/>
      <point x="-243" y="459" type="line" smooth="yes"/>
      <point x="-235" y="459"/>
      <point x="-230" y="463"/>
      <point x="-230" y="472" type="curve" smooth="yes"/>
      <point x="-230" y="537" type="line" smooth="yes"/>
      <point x="-230" y="545"/>
      <point x="-235" y="551"/>
      <point x="-243" y="551" type="curve" smooth="yes"/>
      <point x="-284" y="551" type="line" smooth="yes"/>
      <point x="-293" y="551"/>
      <point x="-298" y="546"/>
      <point x="-298" y="537" type="curve" smooth="yes"/>
      <point x="-298" y="472" type="line" smooth="yes"/>
      <point x="-298" y="464"/>
      <point x="-292" y="459"/>
    </contour>
  </outline>
</glyph>
<glyph name="Omegagreek" format="2">
  <advance width="548"/>
  <unicode hex="03A9"/>
  <outline>
    <contour>
      <point x="40" y="285" type="curve" smooth="yes"/>
      <point x="40" y="204"/>
      <point x="70" y="130"/>
      <point x="142" y="77" type="curve"/>
      <point x="34" y="71" type="line"/>
      <point x="34" y="0" type="line"/>
      <point x="227" y="0" type="line"/>
      <point x="227" y="76" type="line"/>
      <point x="157" y="138"/>
      <point x="128" y="195"/>
      <point x="128" y="277" type="curve" smooth="yes"/>
      <point x="128" y="367"/>
      <point x="161" y="448"/>
      <point x="274" y="448" type="curve" smooth="yes"/>
      <point x="384" y="448"/>
      <point x="418" y="366"/>
      <point x="418" y="276" type="curve" smooth="yes"/>
      <point x="418" y="202"/>
      <point x="389" y="131"/>
      <point x="323" y="76" type="curve"/>
      <point x="323" y="0" type="line"/>
      <point x="517" y="0" type="line"/>
      <point x="517" y="70" type="line"/>
      <point x="409" y="76" type="line"/>
      <point x="469" y="129"/>
      <point x="506" y="198"/>
      <point x="506" y="282" type="curve" smooth="yes"/>
      <point x="506" y="420"/>
      <point x="444" y="527"/>
      <point x="274" y="527" type="curve" smooth="yes"/>
      <point x="95" y="527"/>
      <point x="40" y="404"/>
    </contour>
  </outline>
</glyph>
<glyph name="pi" format="2">
  <advance width="450"/>
  <unicode hex="03C0"/>
  <outline>
    <contour>
      <point x="12" y="382" type="line"/>
      <point x="12" y="302" type="line"/>
      <point x="74" y="302" type="line"/>
      <point x="74" y="0" type="line"/>
      <point x="162" y="0" type="line"/>
      <point x="162" y="302" type="line"/>
      <point x="252" y="302" type="line"/>
      <point x="252" y="103" type="line" smooth="yes"/>
      <point x="252" y="30"/>
      <point x="284" y="-4"/>
      <point x="345" y="-4" type="curve" smooth="yes"/>
      <point x="377" y="-4"/>
      <point x="399" y="3"/>
      <point x="413" y="12" type="curve"/>
      <point x="413" y="64" type="line"/>
      <point x="378" y="64" type="line" smooth="yes"/>
      <point x="352" y="64"/>
      <point x="340" y="74"/>
      <point x="340" y="108" type="curve" smooth="yes"/>
      <point x="340" y="302" type="line"/>
      <point x="407" y="302" type="line"/>
      <point x="407" y="382" type="line"/>
    </contour>
  </outline>
</glyph>
<glyph name="om" format="2">
  <advance width="790"/>
  <unicode hex="0950"/>
  <outline>
    <contour>
      <point x="482" y="686" type="curve" smooth="yes"/>
      <point x="414" y="686" type="line" smooth="yes"/>
      <point x="393" y="686"/>
      <point x="391" y="663"/>
      <point x="391" y="662" type="curve" smooth="yes"/>
      <point x="391" y="613" type="line" smooth="yes"/>
      <point x="391" y="600"/>
      <point x="403" y="588"/>
      <point x="414" y="588" type="curve" smooth="yes"/>
      <point x="482" y="588" type="line" smooth="yes"/>
      <point x="497" y="588"/>
      <point x="509" y="601"/>
      <point x="509" y="613" type="curve" smooth="yes"/>
      <point x="509" y="662" type="line" smooth="yes"/>
      <point x="509" y="679"/>
      <point x="492" y="686"/>
    </contour>
    <contour>
      <point x="552" y="569" type="curve" smooth="yes"/>
      <point x="355" y="569" type="line" smooth="yes"/>
      <point x="332" y="569"/>
      <point x="309" y="583"/>
      <point x="287" y="613" type="curve"/>
      <point x="234" y="578" type="line"/>
      <point x="275" y="503"/>
      <point x="336" y="500"/>
      <point x="346" y="500" type="curve" smooth="yes"/>
      <point x="566" y="500" type="line" smooth="yes"/>
      <point x="629" y="500"/>
      <point x="662" y="564"/>
      <point x="668" y="578" type="curve"/>
      <point x="619" y="623" type="line"/>
      <point x="600" y="572"/>
      <point x="560" y="569"/>
    </contour>
    <contour>
      <point x="748" y="490" type="curve" smooth="yes"/>
      <point x="607" y="490" type="line" smooth="yes"/>
      <point x="566" y="490"/>
      <point x="529" y="453"/>
      <point x="529" y="408" type="curve"/>
      <point x="527" y="408" type="line"/>
      <point x="527" y="295" type="line" smooth="yes"/>
      <point x="527" y="276"/>
      <point x="513" y="262"/>
      <point x="492" y="262" type="curve" smooth="yes"/>
      <point x="463" y="262" type="line" smooth="yes"/>
      <point x="447" y="262"/>
      <point x="430" y="269"/>
      <point x="412" y="285" type="curve"/>
      <point x="393" y="227" type="line"/>
      <point x="411" y="205"/>
      <point x="433" y="193"/>
      <point x="461" y="193" type="curve" smooth="yes"/>
      <point x="539" y="193" type="line" smooth="yes"/>
      <point x="577" y="193"/>
      <point x="607" y="228"/>
      <point x="607" y="271" type="curve" smooth="yes"/>
      <point x="607" y="393" type="line" smooth="yes"/>
      <point x="607" y="413"/>
      <point x="621" y="423"/>
      <point x="631" y="423" type="curve" smooth="yes"/>
      <point x="699" y="423" type="line" smooth="yes"/>
      <point x="709" y="423"/>
      <point x="734" y="416"/>
      <point x="734" y="389" type="curve" smooth="yes"/>
      <point x="734" y="175" type="line" smooth="yes"/>
      <point x="734" y="147"/>
      <point x="719" y="129"/>
      <point x="699" y="129" type="curve" smooth="yes"/>
      <point x="588" y="129" type="line"/>
      <point x="588" y="61" type="line"/>
      <point x="705" y="61" type="line" smooth="yes"/>
      <point x="766" y="61"/>
      <point x="813" y="108"/>
      <point x="813" y="164" type="curve" smooth="yes"/>
      <point x="813" y="423" type="line" smooth="yes"/>
      <point x="813" y="463"/>
      <point x="784" y="490"/>
    </contour>
    <contour>
      <point x="344" y="244" type="curve"/>
      <point x="358" y="254"/>
      <point x="383" y="270"/>
      <point x="383" y="318" type="curve" smooth="yes"/>
      <point x="383" y="406" type="line" smooth="yes"/>
      <point x="383" y="447"/>
      <point x="353" y="488"/>
      <point x="305" y="488" type="curve" smooth="yes"/>
      <point x="143" y="488" type="line" smooth="yes"/>
      <point x="94" y="488"/>
      <point x="51" y="458"/>
      <point x="51" y="416" type="curve" smooth="yes"/>
      <point x="51" y="361" type="line"/>
      <point x="129" y="361" type="line"/>
      <point x="129" y="387" type="line" smooth="yes"/>
      <point x="129" y="420"/>
      <point x="170" y="420"/>
      <point x="172" y="420" type="curve" smooth="yes"/>
      <point x="260" y="420" type="line" smooth="yes"/>
      <point x="276" y="420"/>
      <point x="305" y="408"/>
      <point x="305" y="377" type="curve" smooth="yes"/>
      <point x="305" y="322" type="line" smooth="yes"/>
      <point x="305" y="289"/>
      <point x="282" y="273"/>
      <point x="266" y="273" type="curve" smooth="yes"/>
      <point x="227" y="273" type="line"/>
      <point x="227" y="205" type="line"/>
      <point x="270" y="205" type="line" smooth="yes"/>
      <point x="288" y="205"/>
      <point x="305" y="188"/>
      <point x="305" y="162" type="curve" smooth="yes"/>
      <point x="305" y="113" type="line" smooth="yes"/>
      <point x="305" y="83"/>
      <point x="283" y="68"/>
      <point x="266" y="68" type="curve" smooth="yes"/>
      <point x="158" y="68" type="line" smooth="yes"/>
      <point x="144" y="68"/>
      <point x="129" y="85"/>
      <point x="129" y="104" type="curve" smooth="yes"/>
      <point x="129" y="127" type="line"/>
      <point x="51" y="127" type="line"/>
      <point x="51" y="64" type="line" smooth="yes"/>
      <point x="51" y="33"/>
      <point x="78" y="0"/>
      <point x="123" y="0" type="curve"/>
      <point x="123" y="2" type="line"/>
      <point x="318" y="2" type="line" smooth="yes"/>
      <point x="353" y="2"/>
      <point x="383" y="34"/>
      <point x="383" y="70" type="curve" smooth="yes"/>
      <point x="383" y="178" type="line" smooth="yes"/>
      <point x="383" y="223"/>
      <point x="353" y="240"/>
    </contour>
  </outline>
</glyph>
<glyph name="udatta" format="2">
  <advance width="9"/>
  <unicode hex="0951"/>
  <outline>
    <contour>
      <point x="-271" y="553" type="line"/>
      <point x="-271" y="719" type="line"/>
      <point x="-321" y="719" type="line"/>
      <point x="-321" y="553" type="line"/>
    </contour>
  </outline>
</glyph>
<glyph name="gravedeva" format="2">
  <advance width="9"/>
  <unicode hex="0953"/>
  <outline>
    <contour>
      <point x="-263" y="548" type="line"/>
      <point x="-436" y="721" type="line"/>
      <point x="-506" y="721" type="line"/>
      <point x="-337" y="553" type="line"/>
    </contour>
  </outline>
</glyph>
<glyph name="acutedeva" format="2">
  <advance width="9"/>
  <unicode hex="0954"/>
  <outline>
    <contour>
      <point x="-93" y="728" type="line"/>
      <point x="-162" y="728" type="line"/>
      <point x="-335" y="556" type="line"/>
      <point x="-266" y="556" type="line"/>
    </contour>
  </outline>
</glyph>
<glyph name="spacingcandrabindu" format="2">
  <advance width="790"/>
  <unicode hex="0C80"/>
  <outline>
    <contour>
      <point x="482" y="686" type="curve" smooth="yes"/>
      <point x="414" y="686" type="line" smooth="yes"/>
      <point x="393" y="686"/>
      <point x="391" y="663"/>
      <point x="391" y="662" type="curve" smooth="yes"/>
      <point x="391" y="613" type="line" smooth="yes"/>
      <point x="391" y="600"/>
      <point x="403" y="588"/>
      <point x="414" y="588" type="curve" smooth="yes"/>
      <point x="482" y="588" type="line" smooth="yes"/>
      <point x="497" y="588"/>
      <point x="509" y="601"/>
      <point x="509" y="613" type="curve" smooth="yes"/>
      <point x="509" y="662" type="line" smooth="yes"/>
      <point x="509" y="679"/>
      <point x="492" y="686"/>
    </contour>
    <contour>
      <point x="552" y="569" type="curve" smooth="yes"/>
      <point x="355" y="569" type="line" smooth="yes"/>
      <point x="332" y="569"/>
      <point x="309" y="583"/>
      <point x="287" y="613" type="curve"/>
      <point x="234" y="578" type="line"/>
      <point x="275" y="503"/>
      <point x="336" y="500"/>
      <point x="346" y="500" type="curve" smooth="yes"/>
      <point x="566" y="500" type="line" smooth="yes"/>
      <point x="629" y="500"/>
      <point x="662" y="564"/>
      <point x="668" y="578" type="curve"/>
      <point x="619" y="623" type="line"/>
      <point x="600" y="572"/>
      <point x="560" y="569"/>
    </contour>
  </outline>
</glyph>
<glyph name="anusvara" format="2">
  <advance width="534"/>
  <unicode hex="0C82"/>
  <outline>
    <contour>
      <point x="428" y="488" type="curve" smooth="yes"/>
      <point x="232" y="488" type="line" smooth="yes"/>
      <point x="170" y="488"/>
      <point x="125" y="440"/>
      <point x="125" y="387" type="curve" smooth="yes"/>
      <point x="125" y="117" type="line" smooth="yes"/>
      <point x="125" y="53"/>
      <point x="174" y="0"/>
      <point x="232" y="0" type="curve" smooth="yes"/>
      <point x="447" y="0" type="line" smooth="yes"/>
      <point x="496" y="0"/>
      <point x="535" y="50"/>
      <point x="535" y="107" type="curve" smooth="yes"/>
      <point x="535" y="377" type="line" smooth="yes"/>
      <point x="535" y="437"/>
      <point x="492" y="488"/>
    </contour>
    <contour>
      <point x="414" y="68" type="curve" smooth="yes"/>
      <point x="262" y="68" type="line" smooth="yes"/>
      <point x="225" y="68"/>
      <point x="203" y="99"/>
      <point x="203" y="123" type="curve" smooth="yes"/>
      <point x="203" y="377" type="line" smooth="yes"/>
      <point x="203" y="401"/>
      <point x="229" y="420"/>
      <point x="258" y="420" type="curve" smooth="yes"/>
      <point x="414" y="420" type="line" smooth="yes"/>
      <point x="430" y="420"/>
      <point x="457" y="408"/>
      <point x="457" y="371" type="curve" smooth="yes"/>
      <point x="457" y="123" type="line" smooth="yes"/>
      <point x="457" y="96"/>
      <point x="442" y="68"/>
    </contour>
  </outline>
</glyph>
<glyph name="visarga" format="2">
  <advance width="345"/>
  <unicode hex="0C83"/>
  <outline>
    <contour>
      <point x="287" y="488" type="curve" smooth="yes"/>
      <point x="189" y="488" type="line" smooth="yes"/>
      <point x="140" y="488"/>
      <point x="111" y="454"/>
      <point x="111" y="416" type="curve" smooth="yes"/>
      <point x="111" y="338" type="line" smooth="yes"/>
      <point x="111" y="302"/>
      <point x="142" y="264"/>
      <point x="189" y="264" type="curve" smooth="yes"/>
      <point x="297" y="264" type="line" smooth="yes"/>
      <point x="335" y="264"/>
      <point x="365" y="294"/>
      <point x="365" y="332" type="curve" smooth="yes"/>
      <point x="365" y="410" type="line" smooth="yes"/>
      <point x="365" y="452"/>
      <point x="331" y="488"/>
    </contour>
    <contour>
      <point x="287" y="225" type="curve" smooth="yes"/>
      <point x="189" y="225" type="line" smooth="yes"/>
      <point x="151" y="225"/>
      <point x="111" y="196"/>
      <point x="111" y="152" type="curve" smooth="yes"/>
      <point x="111" y="74" type="line" smooth="yes"/>
      <point x="111" y="38"/>
      <point x="142" y="0"/>
      <point x="189" y="0" type="curve" smooth="yes"/>
      <point x="303" y="0" type="line" smooth="yes"/>
      <point x="342" y="0"/>
      <point x="365" y="41"/>
      <point x="365" y="78" type="curve" smooth="yes"/>
      <point x="365" y="143" type="line" smooth="yes"/>
      <point x="365" y="189"/>
      <point x="332" y="225"/>
    </contour>
    <contour>
      <point x="264" y="332" type="curve" smooth="yes"/>
      <point x="215" y="332" type="line" smooth="yes"/>
      <point x="196" y="332"/>
      <point x="189" y="349"/>
      <point x="189" y="357" type="curve" smooth="yes"/>
      <point x="189" y="396" type="line" smooth="yes"/>
      <point x="189" y="408"/>
      <point x="201" y="420"/>
      <point x="219" y="420" type="curve" smooth="yes"/>
      <point x="264" y="420" type="line" smooth="yes"/>
      <point x="285" y="420"/>
      <point x="287" y="403"/>
      <point x="287" y="396" type="curve" smooth="yes"/>
      <point x="287" y="352" type="line" smooth="yes"/>
      <point x="287" y="338"/>
      <point x="272" y="332"/>
    </contour>
    <contour>
      <point x="268" y="68" type="curve" smooth="yes"/>
      <point x="209" y="68" type="line" smooth="yes"/>
      <point x="195" y="68"/>
      <point x="189" y="87"/>
      <point x="189" y="94" type="curve" smooth="yes"/>
      <point x="189" y="137" type="line" smooth="yes"/>
      <point x="189" y="137"/>
      <point x="189" y="156"/>
      <point x="215" y="156" type="curve" smooth="yes"/>
      <point x="273" y="156" type="line" smooth="yes"/>
      <point x="279" y="156"/>
      <point x="287" y="147"/>
      <point x="287" y="133" type="curve" smooth="yes"/>
      <point x="287" y="88" type="line" smooth="yes"/>
      <point x="287" y="76"/>
      <point x="276" y="68"/>
    </contour>
  </outline>
</glyph>
<glyph name="siddham" format="2">
  <advance width="359"/>
  <unicode hex="0C84"/>
  <outline>
    <contour>
      <point x="163" y="555" type="curve" smooth="yes"/>
      <point x="43" y="555"/>
      <point x="41" y="399"/>
      <point x="41" y="387" type="curve" smooth="yes"/>
      <point x="41" y="322"/>
      <point x="66" y="232"/>
      <point x="138" y="232" type="curve" smooth="yes"/>
      <point x="219" y="232"/>
      <point x="224" y="319"/>
      <point x="224" y="339" type="curve" smooth="yes"/>
      <point x="224" y="408"/>
      <point x="188" y="438"/>
      <point x="146" y="438" type="curve"/>
      <point x="146" y="392" type="line"/>
      <point x="167" y="392"/>
      <point x="187" y="377"/>
      <point x="187" y="339" type="curve" smooth="yes"/>
      <point x="187" y="317"/>
      <point x="178" y="280"/>
      <point x="138" y="280" type="curve" smooth="yes"/>
      <point x="86" y="280"/>
      <point x="78" y="346"/>
      <point x="78" y="387" type="curve" smooth="yes"/>
      <point x="78" y="436"/>
      <point x="97" y="507"/>
      <point x="163" y="507" type="curve" smooth="yes"/>
      <point x="265" y="507"/>
      <point x="281" y="411"/>
      <point x="281" y="349" type="curve" smooth="yes"/>
      <point x="281" y="227"/>
      <point x="170" y="81"/>
      <point x="53" y="46" type="curve"/>
      <point x="61" y="0" type="line"/>
      <point x="198" y="43"/>
      <point x="319" y="209"/>
      <point x="319" y="349" type="curve" smooth="yes"/>
      <point x="319" y="533"/>
      <point x="213" y="555"/>
    </contour>
  </outline>
</glyph>
<glyph name="avowel" format="2">
  <advance width="695"/>
  <unicode hex="0C85"/>
  <anchor x="424" y="-128" name="N"/>
  <outline>
    <contour>
      <point x="609" y="488" type="curve" smooth="yes"/>
      <point x="492" y="488" type="line"/>
      <point x="492" y="361" type="line" smooth="yes"/>
      <point x="492" y="342"/>
      <point x="505" y="319"/>
      <point x="531" y="293" type="curve"/>
      <point x="326" y="293" type="line"/>
      <point x="326" y="225" type="line"/>
      <point x="619" y="225" type="line"/>
      <point x="619" y="293" type="line"/>
      <point x="586" y="316"/>
      <point x="570" y="341"/>
      <point x="570" y="367" type="curve" smooth="yes"/>
      <point x="570" y="420" type="line"/>
      <point x="600" y="420" type="line" smooth="yes"/>
      <point x="623" y="420"/>
      <point x="639" y="404"/>
      <point x="639" y="381" type="curve" smooth="yes"/>
      <point x="639" y="137" type="line" smooth="yes"/>
      <point x="639" y="92"/>
      <point x="608" y="68"/>
      <point x="584" y="68" type="curve" smooth="yes"/>
      <point x="268" y="68" type="line" smooth="yes"/>
      <point x="230" y="68"/>
      <point x="209" y="97"/>
      <point x="209" y="123" type="curve" smooth="yes"/>
      <point x="209" y="361" type="line" smooth="yes"/>
      <point x="209" y="394"/>
      <point x="225" y="420"/>
      <point x="248" y="420" type="curve" smooth="yes"/>
      <point x="278" y="420" type="line"/>
      <point x="278" y="332" type="line"/>
      <point x="355" y="332" type="line"/>
      <point x="355" y="488" type="line"/>
      <point x="229" y="488" type="line" smooth="yes"/>
      <point x="174" y="488"/>
      <point x="132" y="446"/>
      <point x="132" y="391" type="curve" smooth="yes"/>
      <point x="132" y="98" type="line" smooth="yes"/>
      <point x="132" y="40"/>
      <point x="187" y="0"/>
      <point x="242" y="0" type="curve" smooth="yes"/>
      <point x="619" y="0" type="line" smooth="yes"/>
      <point x="670" y="0"/>
      <point x="717" y="39"/>
      <point x="717" y="98" type="curve" smooth="yes"/>
      <point x="717" y="396" type="line" smooth="yes"/>
      <point x="717" y="459"/>
      <point x="654" y="488"/>
    </contour>
  </outline>
</glyph>
<glyph name="aavowel" format="2">
  <advance width="744"/>
  <unicode hex="0C86"/>
  <anchor x="450" y="-130" name="N"/>
  <outline>
    <contour>
      <point x="684" y="486" type="curve" smooth="yes"/>
      <point x="621" y="486" type="line" smooth="yes"/>
      <point x="567" y="486"/>
      <point x="533" y="454"/>
      <point x="533" y="418" type="curve" smooth="yes"/>
      <point x="533" y="359" type="line" smooth="yes"/>
      <point x="533" y="352"/>
      <point x="540" y="339"/>
      <point x="553" y="322" type="curve"/>
      <point x="377" y="322" type="line"/>
      <point x="377" y="254" type="line"/>
      <point x="576" y="254" type="line"/>
      <point x="593" y="235"/>
      <point x="602" y="218"/>
      <point x="602" y="205" type="curve" smooth="yes"/>
      <point x="602" y="123" type="line" smooth="yes"/>
      <point x="602" y="86"/>
      <point x="573" y="68"/>
      <point x="553" y="68" type="curve" smooth="yes"/>
      <point x="260" y="68" type="line" smooth="yes"/>
      <point x="230" y="68"/>
      <point x="211" y="95"/>
      <point x="211" y="123" type="curve" smooth="yes"/>
      <point x="211" y="377" type="line" smooth="yes"/>
      <point x="211" y="400"/>
      <point x="231" y="420"/>
      <point x="254" y="420" type="curve" smooth="yes"/>
      <point x="270" y="420" type="line"/>
      <point x="270" y="332" type="line"/>
      <point x="348" y="332" type="line"/>
      <point x="348" y="488" type="line"/>
      <point x="250" y="488" type="line" smooth="yes"/>
      <point x="182" y="488"/>
      <point x="133" y="442"/>
      <point x="133" y="391" type="curve" smooth="yes"/>
      <point x="133" y="98" type="line" smooth="yes"/>
      <point x="133" y="41"/>
      <point x="177" y="0"/>
      <point x="225" y="0" type="curve" smooth="yes"/>
      <point x="592" y="0" type="line"/>
      <point x="592" y="-2" type="line"/>
      <point x="636" y="-2"/>
      <point x="680" y="28"/>
      <point x="680" y="73" type="curve" smooth="yes"/>
      <point x="680" y="203" type="line" smooth="yes"/>
      <point x="680" y="214"/>
      <point x="670" y="230"/>
      <point x="650" y="252" type="curve"/>
      <point x="680" y="252" type="line" smooth="yes"/>
      <point x="730" y="252"/>
      <point x="768" y="298"/>
      <point x="768" y="350" type="curve" smooth="yes"/>
      <point x="768" y="404" type="line" smooth="yes"/>
      <point x="768" y="444"/>
      <point x="735" y="486"/>
    </contour>
    <contour>
      <point x="664" y="321" type="curve" smooth="yes"/>
      <point x="631" y="321" type="line"/>
      <point x="618" y="337"/>
      <point x="611" y="351"/>
      <point x="611" y="365" type="curve" smooth="yes"/>
      <point x="611" y="389" type="line" smooth="yes"/>
      <point x="611" y="412"/>
      <point x="631" y="418"/>
      <point x="641" y="418" type="curve" smooth="yes"/>
      <point x="670" y="418" type="line" smooth="yes"/>
      <point x="682" y="418"/>
      <point x="689" y="408"/>
      <point x="689" y="389" type="curve" smooth="yes"/>
      <point x="689" y="355" type="line" smooth="yes"/>
      <point x="689" y="350"/>
      <point x="688" y="321"/>
    </contour>
  </outline>
</glyph>
<glyph name="ivowel" format="2">
  <advance width="560"/>
  <unicode hex="0C87"/>
  <anchor x="100" y="558" name="C"/>
  <anchor x="312" y="-71" name="N"/>
  <outline>
    <contour>
      <point x="521" y="94" type="curve" smooth="yes"/>
      <point x="521" y="143" type="line"/>
      <point x="560" y="181"/>
      <point x="580" y="222"/>
      <point x="580" y="264" type="curve" smooth="yes"/>
      <point x="580" y="387" type="line" smooth="yes"/>
      <point x="580" y="441"/>
      <point x="538" y="488"/>
      <point x="473" y="488" type="curve" smooth="yes"/>
      <point x="385" y="488" type="line" smooth="yes"/>
      <point x="338" y="488"/>
      <point x="320" y="448"/>
      <point x="316" y="439" type="curve"/>
      <point x="312" y="454"/>
      <point x="291" y="488"/>
      <point x="238" y="488" type="curve" smooth="yes"/>
      <point x="145" y="488" type="line" smooth="yes"/>
      <point x="92" y="488"/>
      <point x="43" y="447"/>
      <point x="43" y="391" type="curve" smooth="yes"/>
      <point x="43" y="318" type="line" smooth="yes"/>
      <point x="43" y="262"/>
      <point x="90" y="225"/>
      <point x="135" y="225" type="curve" smooth="yes"/>
      <point x="170" y="225" type="line"/>
      <point x="170" y="293" type="line"/>
      <point x="154" y="293" type="line" smooth="yes"/>
      <point x="142" y="293"/>
      <point x="121" y="303"/>
      <point x="121" y="332" type="curve" smooth="yes"/>
      <point x="121" y="381" type="line" smooth="yes"/>
      <point x="121" y="403"/>
      <point x="143" y="420"/>
      <point x="164" y="420" type="curve" smooth="yes"/>
      <point x="229" y="420" type="line" smooth="yes"/>
      <point x="265" y="420"/>
      <point x="278" y="392"/>
      <point x="278" y="377" type="curve" smooth="yes"/>
      <point x="278" y="332" type="line"/>
      <point x="355" y="332" type="line"/>
      <point x="355" y="381" type="line" smooth="yes"/>
      <point x="355" y="404"/>
      <point x="380" y="420"/>
      <point x="404" y="420" type="curve" smooth="yes"/>
      <point x="457" y="420" type="line" smooth="yes"/>
      <point x="474" y="420"/>
      <point x="502" y="413"/>
      <point x="502" y="387" type="curve" smooth="yes"/>
      <point x="502" y="250" type="line"/>
      <point x="494" y="275"/>
      <point x="469" y="293"/>
      <point x="443" y="293" type="curve" smooth="yes"/>
      <point x="359" y="293" type="line" smooth="yes"/>
      <point x="308" y="293"/>
      <point x="287" y="264"/>
      <point x="287" y="244" type="curve" smooth="yes"/>
      <point x="287" y="191" type="line" smooth="yes"/>
      <point x="287" y="160"/>
      <point x="316" y="127"/>
      <point x="365" y="127" type="curve" smooth="yes"/>
      <point x="443" y="127" type="line"/>
      <point x="443" y="78" type="line" smooth="yes"/>
      <point x="443" y="37"/>
      <point x="480" y="0"/>
      <point x="531" y="0" type="curve" smooth="yes"/>
      <point x="580" y="0" type="line"/>
      <point x="580" y="68" type="line"/>
      <point x="545" y="68" type="line" smooth="yes"/>
      <point x="539" y="68"/>
      <point x="521" y="75"/>
    </contour>
    <contour>
      <point x="365" y="211" type="curve" smooth="yes"/>
      <point x="365" y="219"/>
      <point x="371" y="225"/>
      <point x="379" y="225" type="curve" smooth="yes"/>
      <point x="424" y="225" type="line" smooth="yes"/>
      <point x="437" y="225"/>
      <point x="443" y="218"/>
      <point x="443" y="205" type="curve" smooth="yes"/>
      <point x="443" y="195" type="line"/>
      <point x="379" y="195" type="line" smooth="yes"/>
      <point x="375" y="195"/>
      <point x="365" y="199"/>
    </contour>
  </outline>
</glyph>
<glyph name="iivowel" format="2">
  <advance width="871"/>
  <unicode hex="0C88"/>
  <anchor x="483" y="-128" name="N"/>
  <outline>
    <contour>
      <point x="809" y="449" type="curve" smooth="yes"/>
      <point x="727" y="449" type="line" smooth="yes"/>
      <point x="687" y="449"/>
      <point x="648" y="415"/>
      <point x="648" y="367" type="curve" smooth="yes"/>
      <point x="648" y="313" type="line" smooth="yes"/>
      <point x="648" y="288"/>
      <point x="656" y="268"/>
      <point x="672" y="254" type="curve"/>
      <point x="570" y="254" type="line"/>
      <point x="570" y="338" type="line" smooth="yes"/>
      <point x="570" y="371"/>
      <point x="532" y="402"/>
      <point x="512" y="416" type="curve"/>
      <point x="563" y="426"/>
      <point x="600" y="467"/>
      <point x="600" y="518" type="curve" smooth="yes"/>
      <point x="600" y="557" type="line"/>
      <point x="521" y="557" type="line"/>
      <point x="521" y="518" type="line" smooth="yes"/>
      <point x="521" y="508"/>
      <point x="515" y="488"/>
      <point x="492" y="488" type="curve" smooth="yes"/>
      <point x="141" y="488" type="line"/>
      <point x="141" y="420" type="line"/>
      <point x="209" y="420" type="line"/>
      <point x="169" y="387"/>
      <point x="150" y="352"/>
      <point x="150" y="318" type="curve" smooth="yes"/>
      <point x="150" y="254" type="line"/>
      <point x="73" y="254" type="line"/>
      <point x="73" y="186" type="line"/>
      <point x="150" y="186" type="line"/>
      <point x="150" y="84" type="line" smooth="yes"/>
      <point x="150" y="38"/>
      <point x="189" y="0"/>
      <point x="232" y="0" type="curve" smooth="yes"/>
      <point x="477" y="0" type="line" smooth="yes"/>
      <point x="534" y="0"/>
      <point x="570" y="48"/>
      <point x="570" y="94" type="curve" smooth="yes"/>
      <point x="570" y="186" type="line"/>
      <point x="727" y="186" type="line"/>
      <point x="775" y="133" type="line"/>
      <point x="788" y="122"/>
      <point x="795" y="110"/>
      <point x="795" y="98" type="curve" smooth="yes"/>
      <point x="795" y="94" type="line" smooth="yes"/>
      <point x="795" y="75"/>
      <point x="778" y="68"/>
      <point x="770" y="68" type="curve" smooth="yes"/>
      <point x="668" y="68" type="line"/>
      <point x="668" y="0" type="line"/>
      <point x="828" y="0" type="line" smooth="yes"/>
      <point x="851" y="0"/>
      <point x="873" y="23"/>
      <point x="873" y="55" type="curve" smooth="yes"/>
      <point x="873" y="104" type="line" smooth="yes"/>
      <point x="873" y="117"/>
      <point x="853" y="146"/>
      <point x="814" y="191" type="curve"/>
      <point x="866" y="212"/>
      <point x="893" y="252"/>
      <point x="893" y="289" type="curve" smooth="yes"/>
      <point x="893" y="361" type="line" smooth="yes"/>
      <point x="893" y="412"/>
      <point x="852" y="449"/>
    </contour>
    <contour>
      <point x="766" y="254" type="curve"/>
      <point x="766" y="256" type="line"/>
      <point x="736" y="275" type="line"/>
      <point x="730" y="281"/>
      <point x="727" y="289"/>
      <point x="727" y="299" type="curve" smooth="yes"/>
      <point x="727" y="357" type="line" smooth="yes"/>
      <point x="727" y="365"/>
      <point x="733" y="381"/>
      <point x="750" y="381" type="curve" smooth="yes"/>
      <point x="789" y="381" type="line" smooth="yes"/>
      <point x="814" y="381"/>
      <point x="814" y="352"/>
      <point x="814" y="352" type="curve" smooth="yes"/>
      <point x="814" y="299" type="line" smooth="yes"/>
      <point x="814" y="279"/>
      <point x="798" y="254"/>
    </contour>
    <contour>
      <point x="492" y="256" type="line"/>
      <point x="229" y="256" type="line"/>
      <point x="229" y="324" type="line" smooth="yes"/>
      <point x="229" y="361"/>
      <point x="250" y="394"/>
      <point x="291" y="423" type="curve"/>
      <point x="443" y="423" type="line"/>
      <point x="475" y="404"/>
      <point x="492" y="377"/>
      <point x="492" y="344" type="curve" smooth="yes"/>
    </contour>
    <contour>
      <point x="443" y="70" type="curve" smooth="yes"/>
      <point x="268" y="70" type="line" smooth="yes"/>
      <point x="247" y="70"/>
      <point x="229" y="93"/>
      <point x="229" y="115" type="curve" smooth="yes"/>
      <point x="229" y="188" type="line"/>
      <point x="492" y="188" type="line"/>
      <point x="492" y="125" type="line" smooth="yes"/>
      <point x="492" y="99"/>
      <point x="475" y="70"/>
    </contour>
  </outline>
</glyph>
<glyph name="uvowel" format="2">
  <advance width="1045"/>
  <unicode hex="0C89"/>
  <anchor x="100" y="558" name="C"/>
  <anchor x="600" y="-71" name="N"/>
  <outline>
    <contour>
      <point x="984" y="488" type="curve" smooth="yes"/>
      <point x="941" y="488" type="line"/>
      <point x="941" y="410" type="line"/>
      <point x="955" y="410" type="line" smooth="yes"/>
      <point x="969" y="410"/>
      <point x="990" y="403"/>
      <point x="990" y="381" type="curve" smooth="yes"/>
      <point x="990" y="107" type="line" smooth="yes"/>
      <point x="990" y="78"/>
      <point x="969" y="68"/>
      <point x="955" y="68" type="curve" smooth="yes"/>
      <point x="844" y="68" type="line" smooth="yes"/>
      <point x="827" y="68"/>
      <point x="805" y="85"/>
      <point x="805" y="113" type="curve" smooth="yes"/>
      <point x="805" y="391" type="line" smooth="yes"/>
      <point x="805" y="441"/>
      <point x="764" y="488"/>
      <point x="701" y="488" type="curve" smooth="yes"/>
      <point x="545" y="488" type="line" smooth="yes"/>
      <point x="490" y="488"/>
      <point x="453" y="441"/>
      <point x="453" y="387" type="curve" smooth="yes"/>
      <point x="453" y="107" type="line" smooth="yes"/>
      <point x="453" y="86"/>
      <point x="438" y="68"/>
      <point x="418" y="68" type="curve" smooth="yes"/>
      <point x="252" y="68" type="line" smooth="yes"/>
      <point x="234" y="68"/>
      <point x="209" y="85"/>
      <point x="209" y="113" type="curve" smooth="yes"/>
      <point x="209" y="381" type="line" smooth="yes"/>
      <point x="209" y="401"/>
      <point x="228" y="420"/>
      <point x="248" y="420" type="curve" smooth="yes"/>
      <point x="297" y="420" type="line"/>
      <point x="297" y="348" type="line" smooth="yes"/>
      <point x="297" y="338"/>
      <point x="289" y="322"/>
      <point x="271" y="322" type="curve" smooth="yes"/>
      <point x="238" y="322" type="line"/>
      <point x="238" y="254" type="line"/>
      <point x="291" y="254" type="line" smooth="yes"/>
      <point x="344" y="254"/>
      <point x="375" y="306"/>
      <point x="375" y="348" type="curve" smooth="yes"/>
      <point x="375" y="488" type="line"/>
      <point x="229" y="488" type="line" smooth="yes"/>
      <point x="195" y="488"/>
      <point x="132" y="462"/>
      <point x="132" y="381" type="curve" smooth="yes"/>
      <point x="132" y="113" type="line" smooth="yes"/>
      <point x="132" y="45"/>
      <point x="188" y="0"/>
      <point x="248" y="0" type="curve" smooth="yes"/>
      <point x="424" y="0" type="line" smooth="yes"/>
      <point x="490" y="0"/>
      <point x="531" y="49"/>
      <point x="531" y="98" type="curve" smooth="yes"/>
      <point x="531" y="387" type="line" smooth="yes"/>
      <point x="531" y="411"/>
      <point x="552" y="420"/>
      <point x="564" y="420" type="curve" smooth="yes"/>
      <point x="691" y="420" type="line" smooth="yes"/>
      <point x="711" y="420"/>
      <point x="727" y="406"/>
      <point x="727" y="387" type="curve" smooth="yes"/>
      <point x="727" y="104" type="line" smooth="yes"/>
      <point x="727" y="47"/>
      <point x="776" y="0"/>
      <point x="838" y="0" type="curve" smooth="yes"/>
      <point x="971" y="0" type="line" smooth="yes"/>
      <point x="1018" y="0"/>
      <point x="1068" y="40"/>
      <point x="1068" y="104" type="curve" smooth="yes"/>
      <point x="1068" y="400" type="line" smooth="yes"/>
      <point x="1068" y="451"/>
      <point x="1030" y="488"/>
    </contour>
  </outline>
</glyph>
<glyph name="uuvowel" format="2">
  <advance width="1252"/>
  <unicode hex="0C8A"/>
  <anchor x="702" y="-128" name="N"/>
  <outline>
    <contour>
      <point x="1156" y="488" type="curve" smooth="yes"/>
      <point x="1043" y="488" type="line" smooth="yes"/>
      <point x="976" y="488"/>
      <point x="932" y="430"/>
      <point x="932" y="371" type="curve" smooth="yes"/>
      <point x="932" y="117" type="line" smooth="yes"/>
      <point x="932" y="91"/>
      <point x="912" y="68"/>
      <point x="887" y="68" type="curve" smooth="yes"/>
      <point x="795" y="68" type="line" smooth="yes"/>
      <point x="780" y="68"/>
      <point x="757" y="76"/>
      <point x="757" y="107" type="curve" smooth="yes"/>
      <point x="757" y="381" type="line" smooth="yes"/>
      <point x="757" y="440"/>
      <point x="705" y="488"/>
      <point x="643" y="488" type="curve" smooth="yes"/>
      <point x="535" y="488" type="line" smooth="yes"/>
      <point x="484" y="488"/>
      <point x="424" y="448"/>
      <point x="424" y="381" type="curve" smooth="yes"/>
      <point x="424" y="117" type="line" smooth="yes"/>
      <point x="424" y="85"/>
      <point x="400" y="68"/>
      <point x="385" y="68" type="curve" smooth="yes"/>
      <point x="262" y="68" type="line" smooth="yes"/>
      <point x="230" y="68"/>
      <point x="209" y="93"/>
      <point x="209" y="117" type="curve" smooth="yes"/>
      <point x="209" y="381" type="line" smooth="yes"/>
      <point x="209" y="403"/>
      <point x="231" y="420"/>
      <point x="252" y="420" type="curve" smooth="yes"/>
      <point x="297" y="420" type="line"/>
      <point x="297" y="357" type="line" smooth="yes"/>
      <point x="297" y="346"/>
      <point x="285" y="332"/>
      <point x="271" y="332" type="curve" smooth="yes"/>
      <point x="248" y="332" type="line"/>
      <point x="248" y="264" type="line"/>
      <point x="281" y="264" type="line" smooth="yes"/>
      <point x="332" y="264"/>
      <point x="375" y="305"/>
      <point x="375" y="361" type="curve" smooth="yes"/>
      <point x="375" y="488" type="line"/>
      <point x="242" y="488" type="line" smooth="yes"/>
      <point x="211" y="488"/>
      <point x="185" y="478"/>
      <point x="164" y="458" type="curve" smooth="yes"/>
      <point x="142" y="439"/>
      <point x="132" y="416"/>
      <point x="132" y="387" type="curve" smooth="yes"/>
      <point x="132" y="113" type="line" smooth="yes"/>
      <point x="132" y="48"/>
      <point x="189" y="0"/>
      <point x="258" y="0" type="curve" smooth="yes"/>
      <point x="389" y="0" type="line" smooth="yes"/>
      <point x="455" y="0"/>
      <point x="502" y="54"/>
      <point x="502" y="117" type="curve" smooth="yes"/>
      <point x="502" y="377" type="line" smooth="yes"/>
      <point x="502" y="398"/>
      <point x="519" y="420"/>
      <point x="541" y="420" type="curve" smooth="yes"/>
      <point x="639" y="420" type="line" smooth="yes"/>
      <point x="650" y="420"/>
      <point x="678" y="414"/>
      <point x="678" y="381" type="curve" smooth="yes"/>
      <point x="678" y="107" type="line" smooth="yes"/>
      <point x="678" y="49"/>
      <point x="719" y="0"/>
      <point x="770" y="0" type="curve" smooth="yes"/>
      <point x="912" y="0" type="line" smooth="yes"/>
      <point x="962" y="0"/>
      <point x="1010" y="45"/>
      <point x="1010" y="113" type="curve" smooth="yes"/>
      <point x="1010" y="371" type="line" smooth="yes"/>
      <point x="1010" y="403"/>
      <point x="1036" y="420"/>
      <point x="1059" y="420" type="curve" smooth="yes"/>
      <point x="1156" y="420" type="line" smooth="yes"/>
      <point x="1163" y="420"/>
      <point x="1195" y="414"/>
      <point x="1195" y="371" type="curve" smooth="yes"/>
      <point x="1195" y="94" type="line" smooth="yes"/>
      <point x="1195" y="75"/>
      <point x="1186" y="68"/>
      <point x="1180" y="68" type="curve" smooth="yes"/>
      <point x="1156" y="68" type="line" smooth="yes"/>
      <point x="1149" y="68"/>
      <point x="1137" y="74"/>
      <point x="1137" y="88" type="curve" smooth="yes"/>
      <point x="1137" y="156" type="line"/>
      <point x="1059" y="156" type="line"/>
      <point x="1059" y="88" type="line" smooth="yes"/>
      <point x="1059" y="38"/>
      <point x="1100" y="0"/>
      <point x="1146" y="0" type="curve" smooth="yes"/>
      <point x="1186" y="0" type="line" smooth="yes"/>
      <point x="1234" y="0"/>
      <point x="1273" y="43"/>
      <point x="1273" y="98" type="curve" smooth="yes"/>
      <point x="1273" y="371" type="line" smooth="yes"/>
      <point x="1273" y="434"/>
      <point x="1224" y="488"/>
    </contour>
  </outline>
</glyph>
<glyph name="evowel" format="2">
  <advance width="678"/>
  <unicode hex="0C8E"/>
  <anchor x="406" y="-128" name="N"/>
  <outline>
    <contour>
      <point x="569" y="488" type="curve" smooth="yes"/>
      <point x="494" y="488" type="line"/>
      <point x="494" y="420" type="line"/>
      <point x="559" y="420" type="line" smooth="yes"/>
      <point x="595" y="420"/>
      <point x="621" y="393"/>
      <point x="621" y="357" type="curve" smooth="yes"/>
      <point x="621" y="123" type="line" smooth="yes"/>
      <point x="621" y="97"/>
      <point x="605" y="68"/>
      <point x="572" y="68" type="curve" smooth="yes"/>
      <point x="490" y="68" type="line" smooth="yes"/>
      <point x="464" y="68"/>
      <point x="436" y="91"/>
      <point x="436" y="123" type="curve" smooth="yes"/>
      <point x="436" y="166" type="line"/>
      <point x="357" y="166" type="line"/>
      <point x="357" y="117" type="line" smooth="yes"/>
      <point x="357" y="89"/>
      <point x="337" y="68"/>
      <point x="314" y="68" type="curve" smooth="yes"/>
      <point x="240" y="68" type="line" smooth="yes"/>
      <point x="215" y="68"/>
      <point x="191" y="89"/>
      <point x="191" y="117" type="curve" smooth="yes"/>
      <point x="191" y="225" type="line"/>
      <point x="220" y="225"/>
      <point x="242" y="192"/>
      <point x="246" y="156" type="curve"/>
      <point x="318" y="176" type="line"/>
      <point x="309" y="244"/>
      <point x="269" y="293"/>
      <point x="230" y="293" type="curve" smooth="yes"/>
      <point x="113" y="293" type="line"/>
      <point x="113" y="98" type="line" smooth="yes"/>
      <point x="113" y="43"/>
      <point x="163" y="0"/>
      <point x="221" y="0" type="curve" smooth="yes"/>
      <point x="334" y="0" type="line" smooth="yes"/>
      <point x="376" y="0"/>
      <point x="392" y="36"/>
      <point x="396" y="49" type="curve"/>
      <point x="396" y="22"/>
      <point x="428" y="0"/>
      <point x="463" y="0" type="curve" smooth="yes"/>
      <point x="611" y="0" type="line" smooth="yes"/>
      <point x="657" y="0"/>
      <point x="699" y="44"/>
      <point x="699" y="104" type="curve" smooth="yes"/>
      <point x="699" y="367" type="line" smooth="yes"/>
      <point x="699" y="432"/>
      <point x="644" y="488"/>
    </contour>
  </outline>
</glyph>
<glyph name="eevowel" format="2">
  <advance width="676"/>
  <unicode hex="0C8F"/>
  <anchor x="404" y="-130" name="N"/>
  <outline>
    <contour>
      <point x="564" y="488" type="curve" smooth="yes"/>
      <point x="404" y="488" type="line"/>
      <point x="404" y="436" type="line" smooth="yes"/>
      <point x="404" y="413"/>
      <point x="393" y="400"/>
      <point x="379" y="400" type="curve" smooth="yes"/>
      <point x="316" y="400" type="line" smooth="yes"/>
      <point x="302" y="400"/>
      <point x="287" y="413"/>
      <point x="287" y="430" type="curve" smooth="yes"/>
      <point x="287" y="488" type="line"/>
      <point x="209" y="488" type="line"/>
      <point x="209" y="420" type="line" smooth="yes"/>
      <point x="209" y="362"/>
      <point x="264" y="332"/>
      <point x="307" y="332" type="curve" smooth="yes"/>
      <point x="398" y="332" type="line" smooth="yes"/>
      <point x="446" y="332"/>
      <point x="482" y="361"/>
      <point x="482" y="396" type="curve" smooth="yes"/>
      <point x="482" y="420" type="line"/>
      <point x="555" y="420" type="line" smooth="yes"/>
      <point x="592" y="420"/>
      <point x="619" y="394"/>
      <point x="619" y="357" type="curve" smooth="yes"/>
      <point x="619" y="123" type="line" smooth="yes"/>
      <point x="619" y="86"/>
      <point x="590" y="68"/>
      <point x="570" y="68" type="curve" smooth="yes"/>
      <point x="486" y="68" type="line" smooth="yes"/>
      <point x="449" y="68"/>
      <point x="434" y="103"/>
      <point x="434" y="123" type="curve" smooth="yes"/>
      <point x="434" y="166" type="line"/>
      <point x="355" y="166" type="line"/>
      <point x="355" y="117" type="line" smooth="yes"/>
      <point x="355" y="88"/>
      <point x="335" y="68"/>
      <point x="311" y="68" type="curve" smooth="yes"/>
      <point x="238" y="68" type="line" smooth="yes"/>
      <point x="213" y="68"/>
      <point x="189" y="89"/>
      <point x="189" y="117" type="curve" smooth="yes"/>
      <point x="189" y="225" type="line"/>
      <point x="216" y="225"/>
      <point x="237" y="191"/>
      <point x="242" y="156" type="curve"/>
      <point x="316" y="176" type="line"/>
      <point x="305" y="238"/>
      <point x="272" y="293"/>
      <point x="229" y="293" type="curve" smooth="yes"/>
      <point x="111" y="293" type="line"/>
      <point x="111" y="107" type="line" smooth="yes"/>
      <point x="111" y="49"/>
      <point x="165" y="0"/>
      <point x="229" y="0" type="curve" smooth="yes"/>
      <point x="316" y="0" type="line" smooth="yes"/>
      <point x="351" y="0"/>
      <point x="377" y="18"/>
      <point x="395" y="55" type="curve"/>
      <point x="402" y="26"/>
      <point x="429" y="0"/>
      <point x="463" y="0" type="curve" smooth="yes"/>
      <point x="574" y="0" type="line"/>
      <point x="574" y="-2" type="line"/>
      <point x="650" y="-2"/>
      <point x="697" y="58"/>
      <point x="697" y="115" type="curve" smooth="yes"/>
      <point x="697" y="367" type="line" smooth="yes"/>
      <point x="697" y="436"/>
      <point x="638" y="488"/>
    </contour>
  </outline>
</glyph>
<glyph name="aivowel" format="2">
  <advance width="717"/>
  <unicode hex="0C90"/>
  <anchor x="100" y="558" name="C"/>
  <anchor x="424" y="-71" name="N"/>
  <outline>
    <contour>
      <point x="629" y="486" type="curve" smooth="yes"/>
      <point x="531" y="486" type="line" smooth="yes"/>
      <point x="483" y="486"/>
      <point x="460" y="446"/>
      <point x="455" y="434" type="curve"/>
      <point x="436" y="478"/>
      <point x="399" y="486"/>
      <point x="373" y="486" type="curve" smooth="yes"/>
      <point x="221" y="486" type="line" smooth="yes"/>
      <point x="181" y="486"/>
      <point x="142" y="456"/>
      <point x="123" y="408" type="curve"/>
      <point x="182" y="369" type="line"/>
      <point x="198" y="410"/>
      <point x="221" y="418"/>
      <point x="236" y="418" type="curve" smooth="yes"/>
      <point x="357" y="418" type="line" smooth="yes"/>
      <point x="408" y="418"/>
      <point x="416" y="390"/>
      <point x="416" y="379" type="curve" smooth="yes"/>
      <point x="416" y="350" type="line"/>
      <point x="494" y="350" type="line"/>
      <point x="494" y="375" type="line" smooth="yes"/>
      <point x="494" y="402"/>
      <point x="516" y="418"/>
      <point x="533" y="418" type="curve" smooth="yes"/>
      <point x="617" y="418" type="line" smooth="yes"/>
      <point x="643" y="418"/>
      <point x="660" y="394"/>
      <point x="660" y="369" type="curve" smooth="yes"/>
      <point x="660" y="125" type="line" smooth="yes"/>
      <point x="660" y="93"/>
      <point x="641" y="66"/>
      <point x="617" y="66" type="curve" smooth="yes"/>
      <point x="523" y="66" type="line" smooth="yes"/>
      <point x="488" y="66"/>
      <point x="466" y="99"/>
      <point x="466" y="125" type="curve" smooth="yes"/>
      <point x="466" y="154" type="line"/>
      <point x="387" y="154" type="line"/>
      <point x="387" y="125" type="line" smooth="yes"/>
      <point x="387" y="92"/>
      <point x="356" y="66"/>
      <point x="324" y="66" type="curve" smooth="yes"/>
      <point x="240" y="66" type="line" smooth="yes"/>
      <point x="215" y="66"/>
      <point x="191" y="93"/>
      <point x="191" y="125" type="curve" smooth="yes"/>
      <point x="191" y="199" type="line" smooth="yes"/>
      <point x="191" y="220"/>
      <point x="213" y="242"/>
      <point x="246" y="242" type="curve" smooth="yes"/>
      <point x="279" y="242" type="line"/>
      <point x="279" y="213" type="line" smooth="yes"/>
      <point x="279" y="185"/>
      <point x="248" y="172"/>
      <point x="230" y="172" type="curve"/>
      <point x="250" y="104" type="line"/>
      <point x="323" y="111"/>
      <point x="357" y="165"/>
      <point x="357" y="211" type="curve" smooth="yes"/>
      <point x="357" y="313" type="line"/>
      <point x="221" y="313" type="line" smooth="yes"/>
      <point x="156" y="313"/>
      <point x="113" y="261"/>
      <point x="113" y="205" type="curve" smooth="yes"/>
      <point x="113" y="98" type="line" smooth="yes"/>
      <point x="113" y="43"/>
      <point x="163" y="0"/>
      <point x="221" y="0" type="curve" smooth="yes"/>
      <point x="344" y="0" type="line" smooth="yes"/>
      <point x="390" y="0"/>
      <point x="419" y="47"/>
      <point x="426" y="59" type="curve"/>
      <point x="451" y="3"/>
      <point x="507" y="0"/>
      <point x="518" y="0" type="curve" smooth="yes"/>
      <point x="629" y="0" type="line"/>
      <point x="629" y="-2" type="line"/>
      <point x="686" y="-2"/>
      <point x="736" y="44"/>
      <point x="736" y="105" type="curve" smooth="yes"/>
      <point x="736" y="389" type="line" smooth="yes"/>
      <point x="736" y="437"/>
      <point x="697" y="486"/>
    </contour>
  </outline>
</glyph>
<glyph name="ovowel" format="2">
  <advance width="656"/>
  <unicode hex="0C92"/>
  <anchor x="100" y="558" name="C"/>
  <anchor x="390" y="-71" name="N"/>
  <outline>
    <contour>
      <point x="605" y="283" type="curve" smooth="yes"/>
      <point x="537" y="283" type="line"/>
      <point x="537" y="215" type="line"/>
      <point x="563" y="215" type="line" smooth="yes"/>
      <point x="584" y="215"/>
      <point x="596" y="199"/>
      <point x="596" y="182" type="curve" smooth="yes"/>
      <point x="596" y="113" type="line" smooth="yes"/>
      <point x="596" y="87"/>
      <point x="575" y="68"/>
      <point x="557" y="68" type="curve" smooth="yes"/>
      <point x="479" y="68" type="line" smooth="yes"/>
      <point x="447" y="68"/>
      <point x="430" y="95"/>
      <point x="430" y="117" type="curve" smooth="yes"/>
      <point x="430" y="146" type="line"/>
      <point x="352" y="146" type="line"/>
      <point x="352" y="113" type="line" smooth="yes"/>
      <point x="352" y="89"/>
      <point x="333" y="68"/>
      <point x="313" y="68" type="curve" smooth="yes"/>
      <point x="225" y="68" type="line" smooth="yes"/>
      <point x="205" y="68"/>
      <point x="186" y="83"/>
      <point x="186" y="107" type="curve" smooth="yes"/>
      <point x="186" y="156" type="line"/>
      <point x="256" y="204" type="line" smooth="yes"/>
      <point x="341" y="261"/>
      <point x="361" y="278"/>
      <point x="361" y="303" type="curve" smooth="yes"/>
      <point x="361" y="416" type="line" smooth="yes"/>
      <point x="361" y="461"/>
      <point x="319" y="488"/>
      <point x="273" y="488" type="curve" smooth="yes"/>
      <point x="107" y="488" type="line"/>
      <point x="107" y="381" type="line" smooth="yes"/>
      <point x="107" y="326"/>
      <point x="148" y="283"/>
      <point x="191" y="283" type="curve" smooth="yes"/>
      <point x="225" y="283" type="line"/>
      <point x="225" y="352" type="line"/>
      <point x="215" y="352" type="line" smooth="yes"/>
      <point x="187" y="352"/>
      <point x="186" y="378"/>
      <point x="186" y="381" type="curve" smooth="yes"/>
      <point x="186" y="420" type="line"/>
      <point x="254" y="420" type="line" smooth="yes"/>
      <point x="261" y="420"/>
      <point x="283" y="416"/>
      <point x="283" y="391" type="curve" smooth="yes"/>
      <point x="283" y="328" type="line" smooth="yes"/>
      <point x="283" y="304"/>
      <point x="268" y="292"/>
      <point x="192" y="243" type="curve"/>
      <point x="107" y="186" type="line"/>
      <point x="107" y="78" type="line" smooth="yes"/>
      <point x="107" y="31"/>
      <point x="155" y="0"/>
      <point x="201" y="0" type="curve" smooth="yes"/>
      <point x="338" y="0" type="line" smooth="yes"/>
      <point x="369" y="0"/>
      <point x="388" y="27"/>
      <point x="391" y="45" type="curve"/>
      <point x="397" y="26"/>
      <point x="419" y="0"/>
      <point x="455" y="0" type="curve" smooth="yes"/>
      <point x="605" y="0" type="line" smooth="yes"/>
      <point x="650" y="0"/>
      <point x="674" y="46"/>
      <point x="674" y="84" type="curve" smooth="yes"/>
      <point x="674" y="215" type="line" smooth="yes"/>
      <point x="674" y="253"/>
      <point x="649" y="283"/>
    </contour>
  </outline>
</glyph>
<glyph name="oovowel" format="2">
  <advance width="656"/>
  <unicode hex="0C93"/>
  <anchor x="390" y="-128" name="N"/>
  <outline>
    <contour>
      <point x="596" y="283" type="curve" smooth="yes"/>
      <point x="537" y="283" type="line"/>
      <point x="537" y="215" type="line"/>
      <point x="563" y="215" type="line" smooth="yes"/>
      <point x="584" y="215"/>
      <point x="596" y="199"/>
      <point x="596" y="182" type="curve" smooth="yes"/>
      <point x="596" y="113" type="line" smooth="yes"/>
      <point x="596" y="87"/>
      <point x="575" y="68"/>
      <point x="557" y="68" type="curve" smooth="yes"/>
      <point x="479" y="68" type="line" smooth="yes"/>
      <point x="446" y="68"/>
      <point x="430" y="91"/>
      <point x="430" y="107" type="curve" smooth="yes"/>
      <point x="430" y="146" type="line"/>
      <point x="352" y="146" type="line"/>
      <point x="352" y="113" type="line" smooth="yes"/>
      <point x="352" y="89"/>
      <point x="333" y="68"/>
      <point x="313" y="68" type="curve" smooth="yes"/>
      <point x="225" y="68" type="line" smooth="yes"/>
      <point x="205" y="68"/>
      <point x="186" y="83"/>
      <point x="186" y="107" type="curve" smooth="yes"/>
      <point x="186" y="156" type="line"/>
      <point x="256" y="204" type="line" smooth="yes"/>
      <point x="341" y="261"/>
      <point x="361" y="278"/>
      <point x="361" y="303" type="curve" smooth="yes"/>
      <point x="361" y="416" type="line" smooth="yes"/>
      <point x="361" y="461"/>
      <point x="319" y="488"/>
      <point x="273" y="488" type="curve" smooth="yes"/>
      <point x="264" y="488" type="line"/>
      <point x="212" y="520"/>
      <point x="186" y="546"/>
      <point x="186" y="566" type="curve" smooth="yes"/>
      <point x="186" y="596" type="line" smooth="yes"/>
      <point x="186" y="615"/>
      <point x="210" y="615"/>
      <point x="211" y="615" type="curve" smooth="yes"/>
      <point x="273" y="615" type="line"/>
      <point x="273" y="684" type="line"/>
      <point x="186" y="684" type="line" smooth="yes"/>
      <point x="138" y="684"/>
      <point x="107" y="654"/>
      <point x="107" y="625" type="curve" smooth="yes"/>
      <point x="107" y="563" type="line" smooth="yes"/>
      <point x="107" y="544"/>
      <point x="132" y="519"/>
      <point x="182" y="488" type="curve"/>
      <point x="107" y="488" type="line"/>
      <point x="107" y="381" type="line" smooth="yes"/>
      <point x="107" y="326"/>
      <point x="148" y="283"/>
      <point x="191" y="283" type="curve" smooth="yes"/>
      <point x="225" y="283" type="line"/>
      <point x="225" y="352" type="line"/>
      <point x="215" y="352" type="line" smooth="yes"/>
      <point x="187" y="352"/>
      <point x="186" y="378"/>
      <point x="186" y="381" type="curve" smooth="yes"/>
      <point x="186" y="420" type="line"/>
      <point x="244" y="420" type="line" smooth="yes"/>
      <point x="283" y="420"/>
      <point x="283" y="382"/>
      <point x="283" y="381" type="curve" smooth="yes"/>
      <point x="283" y="328" type="line" smooth="yes"/>
      <point x="283" y="304"/>
      <point x="268" y="292"/>
      <point x="192" y="243" type="curve"/>
      <point x="107" y="186" type="line"/>
      <point x="107" y="78" type="line" smooth="yes"/>
      <point x="107" y="31"/>
      <point x="155" y="0"/>
      <point x="201" y="0" type="curve" smooth="yes"/>
      <point x="328" y="0" type="line" smooth="yes"/>
      <point x="369" y="0"/>
      <point x="389" y="42"/>
      <point x="391" y="45" type="curve"/>
      <point x="397" y="26"/>
      <point x="419" y="0"/>
      <point x="455" y="0" type="curve" smooth="yes"/>
      <point x="596" y="0" type="line" smooth="yes"/>
      <point x="644" y="0"/>
      <point x="674" y="50"/>
      <point x="674" y="94" type="curve" smooth="yes"/>
      <point x="674" y="195" type="line" smooth="yes"/>
      <point x="674" y="242"/>
      <point x="641" y="283"/>
    </contour>
  </outline>
</glyph>
